<svg aria-label="Andaman and Nicobar Islands" preserveAspectRatio="xMidYMid meet" style="width: 130%; height: 130%;"
  viewBox="1250 1200 500 800" xmlns="http://www.w3.org/2000/svg">
  <title>Andaman and Nicobar Islands</title>
  <g >

    <path d="m 1374.8863,1294.8176 c 1.4915,0 6.5627,-2.983 6.5627,-2.983 0,0 0.5966,-2.6848 -0.895,-3.5797 -1.4915,-0.8949 -1.7898,-2.6847 -3.8779,-1.4915 -2.0881,1.1932 -3.5797,1.7898 -3.5797,4.1762 0,2.3865 1.7899,3.878 1.7899,3.878 z" id="path3950" style="fill:#c1e0b2;fill-opacity:1;stroke:#000000;stroke-width:1px;stroke-linecap:butt;stroke-linejoin:miter;stroke-opacity:1"/>
    <path d="m 1361.1642,1332.1057 c 1.1933,2.983 -1.4915,1.4915 1.4916,4.7729 2.983,3.2813 3.8779,4.4745 5.6678,2.983 1.7898,-1.4915 4.4745,-0.5966 2.3864,-3.5796 -2.0881,-2.9831 -1.7898,-2.3865 -3.878,-5.6678 -2.0881,-3.2814 -3.2813,-5.6678 -3.8779,-2.6848 -0.5966,2.9831 -1.7899,4.1763 -1.7899,4.1763 z" id="path3952" style="fill:#c1e0b2;fill-opacity:1;stroke:#000000;stroke-width:1px;stroke-linecap:butt;stroke-linejoin:miter;stroke-opacity:1"/>
    <path d="m 1356.6897,1341.9497 c -0.2983,4.4746 -2.3865,4.4746 -1.1932,7.1594 1.1932,2.6847 4.1762,3.8779 5.0711,1.4915 0.8949,-2.3865 2.9831,0.2983 1.1933,-4.7729 -1.7899,-5.0712 -0.2984,-5.6678 -2.0882,-6.2644 -1.7898,-0.5966 -2.983,2.3864 -2.983,2.3864 z" id="path3954" style="fill:#c1e0b2;fill-opacity:1;stroke:#000000;stroke-width:1px;stroke-linecap:butt;stroke-linejoin:miter;stroke-opacity:1"/>
    <path d="m 1411.2794,1363.726 c 1.4916,5.0712 4.1763,7.1593 4.1763,7.1593 0,0 2.0881,-0.5966 2.0881,-3.5797 0,-2.983 0.5966,-5.9661 -2.3864,-6.2644 -2.9831,-0.2983 -3.878,2.6848 -3.878,2.6848 z" id="path3956" style="fill:#c1e0b2;fill-opacity:1;stroke:#000000;stroke-width:1px;stroke-linecap:butt;stroke-linejoin:miter;stroke-opacity:1"/>
    <path d="m 1339.6863,1377.1497 c 0.2983,2.0881 0.2983,5.3695 0.8949,7.1593 0.5966,1.7898 1.4915,3.878 0.8949,5.0712 -0.5966,1.1932 0,1.4915 -2.6847,1.7898 -2.6847,0.2983 -4.7729,-0.2983 -4.1763,2.3864 0.5966,2.6848 6.2644,1.7899 5.9661,3.2814 -0.2983,1.4915 -3.8779,2.6847 -1.4915,5.0712 2.3864,2.3864 6.2644,1.7898 7.4576,-1.1932 1.1932,-2.9831 -1.7898,-2.6848 1.7898,-4.1763 3.5797,-1.4915 6.5627,-2.0881 6.5627,-5.0712 0,-2.983 1.7899,-3.5796 0,-6.2644 -1.7898,-2.6847 -2.3864,0 -2.983,-2.6847 -0.5966,-2.6848 1.7898,-3.2814 1.7898,-3.2814 0,0 2.3865,-1.4915 0.8949,-5.6678 -1.4915,-4.1762 1.7899,-7.4576 -4.1762,-7.7559 -5.9661,-0.2983 -8.9492,0.8949 -10.1424,3.878 -1.1932,2.983 -0.5966,7.4576 -0.5966,7.4576 z" id="path3958" style="fill:#c1e0b2;fill-opacity:1;stroke:#000000;stroke-width:1px;stroke-linecap:butt;stroke-linejoin:miter;stroke-opacity:1"/>
    <path d="m 1340.2829,1407.8751 c 1.4915,-0.8949 0.5966,-1.7899 3.878,-2.6848 3.2813,-0.8949 5.6678,-5.6678 5.9661,0 0.2983,5.6678 0.2983,7.4576 1.4915,9.8441 1.1932,2.3864 3.878,0.5966 1.1932,6.2644 -2.6847,5.6678 -2.0881,6.861 -5.6678,8.9491 -3.5796,2.0882 -2.983,-0.2983 -6.2644,3.5797 -3.2813,3.8779 -4.4745,5.9661 -4.4745,2.0881 0,-3.8779 1.1932,-4.1763 -0.5967,-8.3525 -1.7898,-4.1763 -5.3694,-3.878 -2.0881,-5.9661 3.2814,-2.0881 3.5797,-3.2814 2.3865,-5.3695 -1.1933,-2.0881 0.5966,-3.878 0.5966,-3.878 0,0 3.5796,1.1933 0,-1.7898 -3.5797,-2.983 -3.5797,-2.0881 -3.878,-4.1762 -0.2983,-2.0882 -1.7898,-0.895 -0.5966,-3.878 1.1932,-2.9831 2.3864,-4.4746 2.983,-2.0881 0.5966,2.3864 0.2983,2.3864 2.0882,5.3694 1.7898,2.9831 2.983,2.0882 2.983,2.0882 z" id="path3960" style="fill:#c1e0b2;fill-opacity:1;stroke:#000000;stroke-width:1px;stroke-linecap:butt;stroke-linejoin:miter;stroke-opacity:1"/>
    <path d="m 1398.4523,1429.9496 c -1.7898,2.9831 -7.4576,5.0712 -2.983,5.9661 4.4746,0.8949 7.1593,-0.2983 7.7559,-2.3864 0.5966,-2.0882 2.0881,-7.7559 -0.8949,-5.0712 -2.9831,2.6847 -3.878,1.4915 -3.878,1.4915 z" id="path3962" style="fill:#c1e0b2;fill-opacity:1;stroke:#000000;stroke-width:1px;stroke-linecap:butt;stroke-linejoin:miter;stroke-opacity:1"/>
    <path d="m 1358.1812,1463.0614 c 1.7898,5.0712 5.0712,5.3695 5.0712,5.3695 0,0 1.7898,-3.2813 0.2983,-4.7729 -1.4915,-1.4915 -5.3695,-1.4915 -5.3695,-0.5966 z" id="path3964" style="fill:#c1e0b2;fill-opacity:1;stroke:#000000;stroke-width:1px;stroke-linecap:butt;stroke-linejoin:miter;stroke-opacity:1"/>
    <path d="m 1357.5846,1458.8852 c 1.4915,-0.8949 5.9661,2.3864 2.6847,-3.5797 -3.2813,-5.9661 1.1932,-2.3864 -3.2813,-7.4576 -4.4746,-5.0712 -4.7729,-6.861 -4.7729,-2.983 0,3.8779 -0.8949,2.3864 0.2983,7.7559 1.1932,5.3695 4.7729,4.7729 5.0712,6.2644 z" id="path3966" style="fill:#c1e0b2;fill-opacity:1;stroke:#000000;stroke-width:1px;stroke-linecap:butt;stroke-linejoin:miter;stroke-opacity:1"/>
    <path d="m 1359.3744,1436.5123 c 0,0 -3.8779,-0.2983 -2.6847,4.1763 1.1932,4.4746 2.0881,7.7559 3.8779,6.2644 1.7899,-1.4915 3.2814,-4.7729 2.3865,-7.4576 -0.8949,-2.6848 -3.5797,-2.9831 -3.5797,-2.9831 z" id="path3968" style="fill:#c1e0b2;fill-opacity:1;stroke:#000000;stroke-width:1px;stroke-linecap:butt;stroke-linejoin:miter;stroke-opacity:1"/>
    <path d="m 1350.127,1434.7225 c 0,4.4746 0.8949,6.861 2.3864,5.6678 1.4915,-1.1932 4.7729,-2.6848 2.9831,-3.878 -1.7899,-1.1932 -5.3695,-1.7898 -5.3695,-1.7898 z" id="path3970" style="fill:#c1e0b2;fill-opacity:1;stroke:#000000;stroke-width:1px;stroke-linecap:butt;stroke-linejoin:miter;stroke-opacity:1"/>
    <path d="m 1342.0727,1444.8649 c 0,0 2.0882,4.1762 3.878,0.8949 1.7898,-3.2814 1.7898,-3.878 1.7898,-6.2644 0,-2.3865 2.0882,-3.878 0,-4.1763 -2.0881,-0.2983 -3.2813,-2.6847 -4.4745,0.2983 -1.1933,2.9831 -0.5966,3.878 -1.7899,4.4746 -1.1932,0.5966 -2.6847,0.8949 -3.8779,0.8949 -1.1932,0 -2.3865,-2.6847 -2.3865,1.7898 0,4.4746 1.4916,5.3695 0,6.861 -1.4915,1.4916 -1.7898,2.9831 -1.4915,4.7729 0.2983,1.7898 2.3865,2.3864 -0.5966,2.9831 -2.983,0.5966 -4.7729,-0.5967 -4.1763,2.6847 0.5966,3.2813 2.6848,2.983 2.9831,6.5627 0.2983,3.5797 -2.3865,3.2813 0,5.3695 2.3864,2.0881 2.983,0 2.983,3.5796 0,3.5797 -1.7898,5.3695 2.9831,5.3695 4.7729,0 10.1423,3.878 9.5457,-0.8949 -0.5966,-4.7729 -3.2813,-4.7729 -3.8779,-7.7559 -0.5966,-2.9831 3.5796,-6.2644 2.983,-9.2475 -0.5966,-2.983 -0.2983,-5.9661 -2.3864,-5.3694 -2.0882,0.5966 -2.3865,2.983 -2.9831,-2.3865 -0.5966,-5.3695 0.8949,-10.4406 0.8949,-10.4406 z" id="path3972" style="fill:#c1e0b2;fill-opacity:1;stroke:#000000;stroke-width:1px;stroke-linecap:butt;stroke-linejoin:miter;stroke-opacity:1"/>
    <path d="m 1331.3338,1486.9258 c -1.7899,0.8949 -0.8949,5.9661 1.1932,5.3695 2.0881,-0.5966 3.878,-2.6847 2.3864,-3.878 -1.4915,-1.1932 -3.5796,-1.4915 -3.5796,-1.4915 z" id="path3974" style="fill:#c1e0b2;fill-opacity:1;stroke:#000000;stroke-width:1px;stroke-linecap:butt;stroke-linejoin:miter;stroke-opacity:1"/>
    <path d="m 1337.8965,1488.4173 c 2.0881,1.7899 3.8779,4.4746 4.1762,1.4916 0.2983,-2.9831 3.5797,-5.0712 0,-5.3695 -3.5796,-0.2983 -5.6677,-0.8949 -5.6677,1.1932 0,2.0881 1.4915,2.6847 1.4915,2.6847 z" id="path3976" style="fill:#c1e0b2;fill-opacity:1;stroke:#000000;stroke-width:1px;stroke-linecap:butt;stroke-linejoin:miter;stroke-opacity:1"/>
    <path d="m 1339.9846,1492.5936 c 0.2983,2.983 0.8949,4.1763 2.9831,3.878 2.0881,-0.2983 3.5796,-1.1933 3.2813,-2.3865 -0.2983,-1.1932 1.7898,-1.7898 -1.1932,-1.7898 -2.9831,0 -5.0712,0.2983 -5.0712,0.2983 z" id="path3978" style="fill:#c1e0b2;fill-opacity:1;stroke:#000000;stroke-width:1px;stroke-linecap:butt;stroke-linejoin:miter;stroke-opacity:1"/>
    <path d="m 1340.5812,1497.9631 c 0,0 -2.3864,0.5966 -0.2983,2.3864 2.0881,1.7899 1.4915,4.1763 3.2814,4.7729 1.7898,0.5966 3.5796,2.3864 3.8779,0 0.2983,-2.3864 2.9831,-2.6847 -0.2983,-3.878 -3.2813,-1.1932 -6.5627,-3.2813 -6.5627,-3.2813 z" id="path3980" style="fill:#c1e0b2;fill-opacity:1;stroke:#000000;stroke-width:1px;stroke-linecap:butt;stroke-linejoin:miter;stroke-opacity:1"/>
    <path d="m 1314.0321,1477.6784 c -1.1932,1.4915 -0.2983,4.1762 1.4915,5.3695 1.7899,1.1932 2.6848,1.7898 3.5797,-0.895 0.8949,-2.6847 3.5796,-4.7728 1.1932,-5.0711 -2.3864,-0.2983 -6.2644,0.5966 -6.2644,0.5966 z" id="path3982" style="fill:#c1e0b2;fill-opacity:1;stroke:#000000;stroke-width:1px;stroke-linecap:butt;stroke-linejoin:miter;stroke-opacity:1"/>
    <path d="m 1341.1778,1510.7902 c 0.5966,1.7898 2.6848,4.4746 3.878,3.8779 1.1932,-0.5966 3.878,-0.5966 2.0881,-3.5796 -1.7898,-2.9831 -2.983,-6.2644 -4.4745,-5.0712 -1.4916,1.1932 -2.3865,0.2983 -3.878,2.3865 -1.4915,2.0881 -1.4915,4.7728 0,3.8779 1.4915,-0.8949 2.3864,-1.4915 2.3864,-1.4915 z" id="path3984" style="fill:#c1e0b2;fill-opacity:1;stroke:#000000;stroke-width:1px;stroke-linecap:butt;stroke-linejoin:miter;stroke-opacity:1"/>
    <path d="m 1337.5982,1515.5631 c 1.1932,2.6847 2.983,2.6847 2.983,5.3694 0,2.6848 -0.2983,2.6848 1.1932,4.7729 1.4916,2.0882 1.4916,3.5797 0,4.4746 -1.4915,0.8949 -2.3864,3.2813 -2.0881,5.3695 0.2983,2.0881 2.9831,5.9661 -1.1932,5.6678 -4.1763,-0.2983 -9.2475,-2.6848 -9.5458,-3.5797 -0.2983,-0.8949 -4.4745,0.8949 -3.5796,-3.5796 0.8949,-4.4746 1.4915,-2.9831 0.2983,-6.5627 -1.1932,-3.5797 -4.1763,-3.878 -0.5966,-6.8611 3.5796,-2.983 3.2813,-6.5627 5.6678,-5.3694 2.3864,1.1932 6.861,0.2983 6.861,0.2983 z" id="path3986" style="fill:#c1e0b2;fill-opacity:1;stroke:#000000;stroke-width:1px;stroke-linecap:butt;stroke-linejoin:miter;stroke-opacity:1"/>
    <path d="m 1313.7338,1508.4038 c -1.4915,1.7898 -1.4915,5.6677 1.1932,5.966 2.6848,0.2983 2.3865,2.3865 4.7729,0.2983 2.3864,-2.0881 2.983,-2.3864 2.0881,-3.8779 -0.8949,-1.4915 0,-0.2983 -2.3864,-2.0881 -2.3864,-1.7899 -5.6678,-0.2983 -5.6678,-0.2983 z" id="path3988" style="fill:#c1e0b2;fill-opacity:1;stroke:#000000;stroke-width:1px;stroke-linecap:butt;stroke-linejoin:miter;stroke-opacity:1"/>
    <path d="m 1352.8117,1607.4409 c 0,2.6847 -2.0881,7.4576 0.5966,8.0542 2.6848,0.5966 7.7559,-0.2983 9.2475,-2.0881 1.4915,-1.7898 3.5796,-1.1932 2.3864,-3.2814 -1.1932,-2.0881 -2.0881,-2.6847 -4.1763,-4.7728 -2.0881,-2.0882 -8.0542,2.0881 -8.0542,2.0881 z" id="path3990" style="fill:#c1e0b2;fill-opacity:1;stroke:#000000;stroke-width:1px;stroke-linecap:butt;stroke-linejoin:miter;stroke-opacity:1"/>
    <path d="m 1363.2524,1626.5324 c -0.5966,2.3864 -1.1932,6.2644 0.2983,5.6678 1.4915,-0.5966 2.6847,-0.8949 3.5796,-2.3864 0.895,-1.4916 4.1763,-2.3865 1.1933,-3.5797 -2.9831,-1.1932 -5.0712,0.2983 -5.0712,0.2983 z" id="path3992" style="fill:#c1e0b2;fill-opacity:1;stroke:#000000;stroke-width:1px;stroke-linecap:butt;stroke-linejoin:miter;stroke-opacity:1"/>
    <path d="m 1403.5235,1635.4815 c 0.2983,2.9831 0,3.2814 1.7898,6.8611 1.7899,3.5796 2.9831,5.3694 4.4746,6.2643 1.4915,0.895 1.7898,2.0882 2.6847,-1.7898 0.895,-3.8779 5.0712,-2.6847 1.1933,-6.861 -3.878,-4.1763 -9.8441,-5.9661 -9.8441,-5.9661 l -0.2983,8.3526 4.1763,3.5796 4.4745,2.6847 -0.2983,0" id="path3994" style="fill:#c1e0b2;fill-opacity:1;stroke:#000000;stroke-width:1px;stroke-linecap:butt;stroke-linejoin:miter;stroke-opacity:1"/>
    <path d="m 1375.1846,1646.5188 c -0.8949,2.0881 -1.1933,4.7729 0,5.3695 1.1932,0.5966 0.5966,-2.0881 2.0881,2.0881 1.4915,4.1763 0.2983,5.0712 2.6847,6.5627 2.3865,1.4916 1.1933,2.3865 4.4746,2.0882 3.2814,-0.2983 4.7729,-3.878 4.7729,-3.878 0,0 0.8949,-2.3864 -2.9831,-4.4746 -3.8779,-2.0881 -2.3864,-3.2813 -4.7728,-2.983 -2.3865,0.2983 -2.3865,-0.5966 -1.1933,-1.4915 1.1933,-0.8949 3.2814,-0.8949 2.0882,-2.0882 -1.1932,-1.1932 -7.1593,-1.1932 -7.1593,-1.1932 z" id="path3996" style="fill:#c1e0b2;fill-opacity:1;stroke:#000000;stroke-width:1px;stroke-linecap:butt;stroke-linejoin:miter;stroke-opacity:1"/>
    <path d="m 1403.2252,1654.573 c 1.1932,3.2814 2.6847,2.6848 3.2814,4.7729 0.5966,2.0882 0.5966,3.5797 0.5966,3.5797 l 2.3864,-1.4915 c 0,0 4.7729,-0.895 4.1763,1.4915 -0.5966,2.3864 -1.7899,3.2813 -2.9831,3.5796 -1.1932,0.2983 -3.2813,-1.4915 -1.7898,1.7899 1.4915,3.2813 5.0712,5.0711 1.4915,5.3694 -3.5796,0.2983 -4.1762,0.895 -5.9661,-0.8949 -1.7898,-1.7898 -3.5796,-2.0881 -4.4745,-5.6678 -0.895,-3.5796 -2.6848,-5.0711 -1.4916,-7.4576 1.1932,-2.3864 4.7729,-5.0712 4.7729,-5.0712 z" id="path3998" style="fill:#c1e0b2;fill-opacity:1;stroke:#000000;stroke-width:1px;stroke-linecap:butt;stroke-linejoin:miter;stroke-opacity:1"/>
    <path d="m 1398.154,1667.4001 c 0,0 -2.983,-0.2983 -4.1762,0.5967 -1.1933,0.8949 -2.9831,0.2983 -2.6848,2.983 0.2983,2.6847 1.1932,4.4746 2.9831,5.9661 1.7898,1.4915 2.6847,2.983 5.3694,3.2813 2.6848,0.2983 4.1763,-3.2813 4.1763,-3.2813 l -0.5966,-4.7729 z" id="path4000" style="fill:#c1e0b2;fill-opacity:1;stroke:#000000;stroke-width:1px;stroke-linecap:butt;stroke-linejoin:miter;stroke-opacity:1"/>
    <path d="m 1412.771,1693.9493 -3.2814,-2.0882 c 0,0 -3.878,-2.6847 -4.4746,-1.1932 -0.5966,1.4915 -2.983,4.1763 -1.7898,5.9661 1.1932,1.7898 4.4746,3.5797 4.4746,3.5797 0,0 0.8949,-0.2983 3.2813,-1.1933 2.3865,-0.8949 3.5797,0 3.5797,0 l 2.983,-0.8949 -0.5966,-3.8779 z" id="path4002" style="fill:#c1e0b2;fill-opacity:1;stroke:#000000;stroke-width:1px;stroke-linecap:butt;stroke-linejoin:miter;stroke-opacity:1"/>
    <path d="m 1413.0693,1702.8984 c 0,0 -1.7899,1.1932 -0.5967,3.2814 1.1933,2.0881 2.0882,2.6847 2.3865,4.1762 0.2983,1.4915 0.8949,2.6848 2.3864,1.7898 1.4915,-0.8949 2.6848,-2.0881 2.9831,-3.5796 0.2983,-1.4915 2.3864,-1.1932 2.983,-2.9831 0.5966,-1.7898 3.2814,-4.4745 0.5966,-5.9661 -2.6847,-1.4915 -3.8779,-3.5796 -5.6678,-2.6847 -1.7898,0.8949 -3.5796,2.9831 -3.8779,4.4746 -0.2983,1.4915 -1.1932,1.4915 -1.1932,1.4915 z" id="path4004" style="fill:#c1e0b2;fill-opacity:1;stroke:#000000;stroke-width:1px;stroke-linecap:butt;stroke-linejoin:miter;stroke-opacity:1"/>
    <path d="m 1413.6659,1719.3052 c 1.1932,1.7898 1.7898,1.1932 2.0881,2.6847 0.2983,1.4915 -1.1932,1.4915 0,4.4746 1.1932,2.983 5.9661,3.5796 7.1593,5.0711 1.1932,1.4916 1.1932,3.5797 2.3864,5.9661 1.1933,2.3865 5.6678,2.6848 7.4577,2.3865 1.7898,-0.2983 3.5796,-3.5797 3.5796,-5.0712 0,-1.4915 1.7899,-5.3695 0.8949,-8.3525 -0.8949,-2.9831 -5.3694,-3.878 -6.2644,-6.5627 -0.8949,-2.6848 -0.8949,-3.2814 -0.8949,-5.9661 0,-2.6848 2.9831,-6.2644 -0.8949,-6.2644 -3.878,0 -5.6678,-1.1932 -6.861,2.0881 -1.1932,3.2814 -1.4915,4.7729 -3.2813,4.7729 -1.7899,0 -5.3695,4.7729 -5.3695,4.7729 z" id="path4006" style="fill:#c1e0b2;fill-opacity:1;stroke:#000000;stroke-width:1px;stroke-linecap:butt;stroke-linejoin:miter;stroke-opacity:1"/>
  </g>
</svg>
