<svg aria-label="Daman And Diu" preserveAspectRatio="xMidYMid meet" style="width: 100%; height: 100%;"
  viewBox="164 800 400 600" xmlns="http://www.w3.org/2000/svg">
  <g>
   <path d="m 168.88201,1003.1663 c 0,0 -0.78917,-0.4932 -1.38104,-2.2688 -0.59188,-1.77564 -2.36751,-3.84721 -2.17022,-5.22825 0.1973,-1.38105 7.99033,-5.62283 7.39846,-7.59575 -0.59188,-1.97292 7.00387,0.59188 7.2998,2.07157 0.29594,1.47969 -2.3675,2.17021 0.69053,4.73501 3.05802,2.56479 4.73501,3.74855 3.45261,4.9323 -1.2824,1.18372 -10.35784,4.24182 -12.23211,4.43912 -1.87428,0.1972 -3.05803,-1.0852 -3.05803,-1.0852 z" id="path3121" style="fill:#ebc5dd;fill-opacity:1;stroke:#000000;stroke-width:1px;stroke-linecap:butt;stroke-linejoin:miter;stroke-opacity:1"/>
   <path d="m 259.84898,1004.8044 c 0,0 1.75135,-2.0108 1.81621,-2.2702 0.0649,-0.2595 4.92974,-1.3622 4.92974,-1.3622 0,0 0.90811,0.973 0.84324,1.427 -0.0649,0.4541 -1.03784,2.4649 0.1946,3.5676 1.23243,1.1027 2.5946,1.8811 2.33514,2.9189 -0.25946,1.0379 -1.2973,3.4379 -2.07568,2.4649 -0.77838,-0.973 -3.11352,-1.7514 -3.43784,-1.3622 -0.32433,0.3892 -1.68649,1.946 -2.14055,1.6217 -0.45405,-0.3244 -1.42703,-0.3892 -1.42703,-1.8811 0,-1.4919 -1.16756,-3.5027 -1.1027,-3.8919 0.0649,-0.3892 0.0649,-1.2325 0.0649,-1.2325 z" id="path7865" style="fill:#ebc5dd;fill-opacity:1;stroke:#000000;stroke-width:1px;stroke-linecap:butt;stroke-linejoin:miter;stroke-opacity:1"/>
  </g>
</svg>