<svg aria-label="lakshadweep" preserveAspectRatio="xMidYMid meet" style="width: 100%; height: 100%;"
  viewBox="80 1200 500 170" xmlns="http://www.w3.org/2000/svg">
  <g >
    <path d="m 183.04976,1459.4325 c 3.2494,0 4.8741,-1.6247 4.8741,-1.6247 0,0 3.24941,-7.0404 3.79098,-2.1663 0.54156,4.8742 -0.54157,7.0404 -0.54157,8.6651 0,1.6247 3.2494,4.8741 0,5.9573 -3.24941,1.0831 -3.79097,3.7909 -5.95724,0.5415 -2.16627,-3.2494 -2.16627,-11.3729 -2.16627,-11.3729 z" id="path3907" style="fill:#c1e0b2;fill-opacity:1;stroke:#000000;stroke-width:1px;stroke-linecap:butt;stroke-linejoin:miter;stroke-opacity:1"/>
    <path d="m 176.55095,1477.3042 c 0,0 -2.16627,-1.6247 -2.70784,1.0832 -0.54156,2.7078 -1.6247,3.7909 -0.54156,6.4988 1.08313,2.7078 2.70783,2.7078 5.95724,4.3325 3.2494,1.6247 7.04037,0 7.04037,0 l -0.54157,-5.9572 -6.4988,-5.9573 z" id="path3909" style="fill:#c1e0b2;fill-opacity:1;stroke:#000000;stroke-width:1px;stroke-linecap:butt;stroke-linejoin:miter;stroke-opacity:1"/>
    <path d="m 196.58894,1497.8838 c 0.54157,2.1663 2.70784,3.791 2.70784,3.791 l -1.08314,4.3325 5.95724,1.6247 c 0,0 2.70784,-1.6247 2.16627,-4.3325 -0.54156,-2.7079 -0.54156,-4.3326 -2.70783,-5.4157 -2.16627,-1.0831 -7.04038,0 -7.04038,0 z" id="path3911" style="fill:#c1e0b2;fill-opacity:1;stroke:#000000;stroke-width:1px;stroke-linecap:butt;stroke-linejoin:miter;stroke-opacity:1"/>
    <path d="m 228.54141,1494.6344 c 0,2.1663 0,5.9572 0,5.9572 l 4.33254,2.1663 3.24941,-2.7078 c 0,0 1.08313,-3.791 -1.08314,-4.3326 -2.16627,-0.5415 -6.49881,-1.0831 -6.49881,-1.0831 z" id="path3913" style="fill:#c1e0b2;fill-opacity:1;stroke:#000000;stroke-width:1px;stroke-linecap:butt;stroke-linejoin:miter;stroke-opacity:1"/>
    <path d="m 187.92386,1516.2971 -1.08313,4.8741 3.2494,1.6247 3.24941,0.5416 -1.08314,3.2494 c 0,0 -0.54156,2.7078 2.70784,3.7909 3.2494,1.0832 4.87411,0.5416 4.87411,0.5416 l -1.08314,-4.8741 0.54157,-2.7078" id="path3915" style="fill:#c1e0b2;fill-opacity:1;stroke:#000000;stroke-width:1px;stroke-linecap:butt;stroke-linejoin:miter;stroke-opacity:1"/>
    <path d="m 186.29916,1519.0049 5.41568,5.4157 c 0,0 0.54156,4.3325 2.70783,5.9572 2.16627,1.6247 5.95724,0 5.95724,0 0,0 0.54157,-3.2494 0,-5.4156 -0.54156,-2.1663 0,-3.791 0,-3.791 0,0 0,-1.6247 -3.2494,-2.7078 -3.24941,-1.0832 -2.70784,-3.791 -4.87411,-4.3326 -2.16627,-0.5416 -4.8741,3.2494 -5.95724,4.8741 z" id="path3917" style="fill:#c1e0b2;fill-opacity:1;stroke:#000000;stroke-width:1px;stroke-linecap:butt;stroke-linejoin:miter;stroke-opacity:1"/>
    <path d="m 245.33,1509.2567 c -1.08313,2.7078 -1.6247,9.7482 2.16627,9.2067 3.79097,-0.5416 3.79097,1.6247 5.41567,-1.6247 1.62471,-3.2495 2.70784,-4.3326 2.70784,-7.582 0,-3.2494 -0.54157,-8.6651 -3.79097,-5.9572 -3.24941,2.7078 -6.49881,5.9572 -6.49881,5.9572 z" id="path3919" style="fill:#c1e0b2;fill-opacity:1;stroke:#000000;stroke-width:1px;stroke-linecap:butt;stroke-linejoin:miter;stroke-opacity:1"/>
    <path d="m 229.62455,1519.0049 c 0,0 -1.6247,4.8741 1.6247,5.4157 3.2494,0.5416 5.41567,3.791 5.41567,0 0,-3.791 2.16627,-7.0404 -1.08313,-7.0404 -3.24941,0 -5.95724,1.6247 -5.95724,1.6247 z" id="path3921" style="fill:#c1e0b2;fill-opacity:1;stroke:#000000;stroke-width:1px;stroke-linecap:butt;stroke-linejoin:miter;stroke-opacity:1"/>
    <path d="m 227.45828,1530.3778 c 0,3.2494 -0.54157,6.4988 2.70784,6.4988 3.2494,0 5.95724,-1.0831 5.95724,-3.2494 0,-2.1662 -0.54157,-3.7909 -2.70784,-3.7909 -2.16627,0 -5.95724,0.5415 -5.95724,0.5415 z" id="path3923" style="fill:#c1e0b2;fill-opacity:1;stroke:#000000;stroke-width:1px;stroke-linecap:butt;stroke-linejoin:miter;stroke-opacity:1"/>
    <path d="m 204.17088,1536.3351 c 0,0 -1.08313,3.7909 2.16627,4.3325 3.24941,0.5416 7.58195,-2.1663 7.04038,-4.3325 -0.54157,-2.1663 -8.66508,-2.7079 -8.66508,-2.7079 z" id="path3925" style="fill:#c1e0b2;fill-opacity:1;stroke:#000000;stroke-width:1px;stroke-linecap:butt;stroke-linejoin:miter;stroke-opacity:1"/>
    <path d="m 193.33954,1542.2923 c 1.08313,3.791 3.79097,10.8314 6.49881,8.1235 2.70783,-2.7078 4.33253,-6.4988 4.33253,-6.4988 l -8.12351,-5.4157 z" id="path3927" style="fill:#c1e0b2;fill-opacity:1;stroke:#000000;stroke-width:1px;stroke-linecap:butt;stroke-linejoin:miter;stroke-opacity:1"/>
    <path d="m 215.5438,1547.708 c 3.2494,2.7078 7.58194,3.791 8.12351,1.6247 0.54157,-2.1663 3.79097,-3.2494 1.08313,-4.8741 -2.70783,-1.6247 -7.04037,-4.3326 -7.58194,-1.6247 -0.54157,2.7078 -1.6247,4.8741 -1.6247,4.8741 z" id="path3929" style="fill:#c1e0b2;fill-opacity:1;stroke:#000000;stroke-width:1px;stroke-linecap:butt;stroke-linejoin:miter;stroke-opacity:1"/>
    <path d="m 278.90718,1551.499 c 3.2494,4.8741 7.04037,6.4988 7.04037,6.4988 0,0 3.79097,1.0831 4.33254,-3.2494 0.54157,-4.3326 5.95724,-4.3326 -0.54157,-7.582 -6.49881,-3.2494 -3.79097,-7.5819 -7.58194,-3.2494 -3.79097,4.3326 -3.2494,7.582 -3.2494,7.582 z" id="path3931" style="fill:#c1e0b2;fill-opacity:1;stroke:#000000;stroke-width:1px;stroke-linecap:butt;stroke-linejoin:miter;stroke-opacity:1"/>
    <path d="m 221.50104,1557.9978 c 0.54157,4.8741 3.2494,7.5819 5.41567,4.8741 2.16627,-2.7079 5.95724,-6.4988 2.70784,-7.0404 -3.24941,-0.5416 -8.12351,1.0831 -8.12351,2.1663 z" id="path3933" style="fill:#c1e0b2;fill-opacity:1;stroke:#000000;stroke-width:1px;stroke-linecap:butt;stroke-linejoin:miter;stroke-opacity:1"/>
    <path d="m 218.7932,1575.8695 c 3.79097,-4.8741 7.04038,-4.8741 2.70784,-6.4988 -4.33254,-1.6247 -5.95724,-6.4988 -7.04038,-2.1663 -1.08313,4.3326 -2.70783,4.3326 -3.79097,5.9573 -1.08313,1.6247 -1.08313,2.1662 1.6247,5.9572 2.70784,3.791 2.16627,5.9572 5.41568,5.4157 3.2494,-0.5416 4.8741,2.1662 4.33254,-2.1663 -0.54157,-4.3325 -3.24941,-6.4988 -3.24941,-6.4988 z" id="path3935" style="fill:#c1e0b2;fill-opacity:1;stroke:#000000;stroke-width:1px;stroke-linecap:butt;stroke-linejoin:miter;stroke-opacity:1"/>
    <path d="m 203.08775,1583.4514 c 0.54157,2.7079 8.12351,2.1663 8.12351,0 0,-2.1662 2.16627,-4.3325 -1.6247,-5.4156 -3.79097,-1.0832 -10.83135,-1.0832 -9.74821,2.7078 1.08313,3.791 3.2494,2.7078 3.2494,2.7078 z" id="path3937" style="fill:#c1e0b2;fill-opacity:1;stroke:#000000;stroke-width:1px;stroke-linecap:butt;stroke-linejoin:miter;stroke-opacity:1"/>
    <path d="m 198.75521,1585.6177 c -0.54157,3.791 0.54157,9.2066 2.70784,7.5819 2.16627,-1.6247 7.58194,-3.2494 3.79097,-5.4156 -3.79097,-2.1663 -6.49881,-2.1663 -6.49881,-2.1663 z" id="path3939" style="fill:#c1e0b2;fill-opacity:1;stroke:#000000;stroke-width:1px;stroke-linecap:butt;stroke-linejoin:miter;stroke-opacity:1"/>
    <path d="m 274.57464,1589.9502 c 0,3.791 -1.62471,7.0404 3.79097,7.0404 5.41567,0 8.12351,2.7079 7.04037,-1.6247 -1.08313,-4.3325 -3.2494,-7.5819 -3.2494,-7.5819 0,0 -5.95724,0.5415 -7.58194,2.1662 z" id="path3943" style="fill:#c1e0b2;fill-opacity:1;stroke:#000000;stroke-width:1px;stroke-linecap:butt;stroke-linejoin:miter;stroke-opacity:1"/>
    <path d="m 229.08298,1656.0215 c 2.70784,5.4156 4.87411,5.4156 5.95724,2.7078 1.08314,-2.7078 3.24941,-0.5416 1.08314,-4.8741 -2.16627,-4.3326 -4.33254,-7.0404 -4.33254,-7.0404 0,0 -3.79097,-0.5416 -5.95724,2.1663 -2.16627,2.7078 -3.79097,7.0404 -3.79097,7.0404 z" id="path3945" style="fill:#c1e0b2;fill-opacity:1;stroke:#000000;stroke-width:1px;stroke-linecap:butt;stroke-linejoin:miter;stroke-opacity:1"/>
    <path d="m 235.58179,1682.0167 c 1.6247,3.791 4.33254,6.4988 4.33254,6.4988 0,0 3.79097,-2.1663 3.79097,-4.8741 0,-2.7078 3.2494,-1.0831 0,-4.3325 -3.24941,-3.2495 -7.58194,2.1662 -8.12351,2.7078 z" id="path3947" style="fill:#c1e0b2;fill-opacity:1;stroke:#000000;stroke-width:1px;stroke-linecap:butt;stroke-linejoin:miter;stroke-opacity:1"/>
  </g>
</svg>

