<svg width="2000" height="1500" viewBox="0 0 2000 1500" fill="none" xmlns="http://www.w3.org/2000/svg">
<g clip-path="url(#clip0_1_65)">
<rect width="1500" height="2000" transform="translate(0 1500) rotate(-90)" fill="#374E57"/>
<path d="M276.936 -368.457C6.61335 -844.114 -487.178 -942.779 -700.283 -932.655L-1476 410.926L-85.4998 1671L1511.7 2135.88L2121.08 1080.41C1857.66 1288.85 1206.16 1619 707.466 1272.07C84.0954 838.4 614.84 226.114 276.936 -368.457Z" fill="#B06D73"/>
<path fill-rule="evenodd" clip-rule="evenodd" d="M2100.04 -10.6864C1885.83 39.039 1668.56 86.5686 1447.51 75.1451C1289.29 67.4373 1138.88 23.2465 980.07 29.1712C893.875 31.8518 734.499 51.355 666.526 118.803C615.03 170.189 746.048 125.309 771.658 115.889C798.096 111.774 951.701 55.2241 965.831 93.6389C973.828 127.577 870.517 211.435 859.663 245.583C839.26 305.628 871.266 319.568 923.823 292.424C994.521 259.687 1043.56 192.473 1110.37 152.236C1137.35 134.457 1259.83 69.3027 1286.2 116.586C1311.71 158.619 1169.76 237.67 1145.83 257.645C1101.01 299.844 1013.56 381.189 1092.21 433.874C1156.4 480.661 1258.75 443.004 1307.28 389.399C1365.5 328.857 1373.38 240.976 1431.6 180.434C1465.9 139.867 1564.97 81.0774 1619.97 121.191C1707.76 180.518 1419.58 415.119 1429.22 511.096C1437.72 582.854 1505.63 566.805 1549.85 538.238C1618.87 494.947 1657.11 410.481 1691.69 337.367C1718.77 268.136 1744.98 193.653 1801.84 141.471C1860.89 86.2333 1938.49 63.2473 2013.07 38.0115C2054.51 26.1317 2098.23 11.1744 2142.72 1.49052C2129.65 -12.6827 2106.32 -6.34035 2087.39 -6.10739L2100.04 -10.6864Z" fill="#ECC986"/>
<path d="M1622.37 1730.42C1553.67 1611.55 1221.98 1188.56 1431 1057.71C1560.3 975.184 1729.32 1147.9 1858.69 1022.1C1911.06 972.681 1913.62 894.437 1955.97 835.306C2000.41 764.752 2096.76 711.601 2186.43 716.259C2323.19 721.691 2370.37 872.038 2392.68 986.333C2421.14 1152.92 2393.49 1324.95 2378.66 1491.46C2365.62 1626.81 2376.12 1762.55 2277.59 1870.41C2188.08 1972.04 2063.37 2008.18 1939.5 1953.95" fill="#ECC986"/>
<path d="M1782.12 770.395C1782.12 770.395 1626.99 602.727 1591.93 645.291C1556.88 687.856 1621.96 762.888 1782.12 770.395Z" fill="#B06D73"/>
<path d="M1682.02 76C1663.25 147.316 1693.28 237.4 1712.05 304.963C1742.07 413.814 1772.1 511.405 1813.39 616.503C1884.11 787.662 2039.61 910.851 2195.91 1004.39C2188.89 956.419 2192.38 908.449 2184.99 860.48C2136.19 552.693 1926 259.921 1682.02 76Z" fill="#B06D73"/>
<path d="M1884.71 898.014C1790.87 871.74 1712.05 826.698 1610.7 819.191C1573.17 815.437 1347.96 789.163 1329.19 834.205C1314.18 875.493 1445.55 939.303 1479.33 950.563C1539.39 973.084 1606.95 988.098 1674.51 976.838C1749.58 969.331 1813.39 939.303 1880.95 909.275L1884.71 898.014Z" fill="#B06D73"/>
<path d="M1847.17 1021.88C1888.46 1021.88 2001.07 1003.11 2012.33 950.563L1997.31 939.303C1929.75 939.303 1884.71 980.591 1847.17 1021.88Z" fill="#B06D73"/>
<path d="M56.751 48.7603C56.2266 48.7603 55.7012 48.6797 55.1768 48.6392C52.2295 48.0742 49.2822 47.5493 46.335 46.9844L46.3203 47.0127C46.0527 46.9517 45.7344 46.8613 45.4121 46.7695C44.6055 46.54 43.7715 46.3022 43.6299 46.5C42.4639 48.2788 41.4609 50.1743 40.4619 52.062C40.1465 52.6587 39.8311 53.2544 39.5117 53.8457C40.0361 53.9263 40.5215 54.0068 41.0059 54.0879C41.7725 53.8457 42.5801 53.563 43.3477 53.3208C43.459 54.1592 43.7637 54.8843 44.1846 55.542C44.8115 56.5205 45.6943 57.3496 46.5781 58.1787C48.332 59.8247 50.0889 61.4731 49.8477 64.2988C50.1016 64.3184 50.3555 64.3379 50.6094 64.3525L50.8379 64.3647L50.9814 64.3706C51.1279 64.376 51.2754 64.3794 51.4219 64.3794C52.1973 63.9917 53.0625 64.4976 53.9248 65.0024C55.3076 65.8115 56.6846 66.6172 57.6797 63.7339L58.8613 64.3711L60.833 65.4258L61.96 66.0342C62 64.2988 62 62.5229 62 60.7876L61.8789 59.1328L61.3838 58.0991L60.8623 56.9995L60.6504 56.5542L60.2236 55.6616C59.6387 54.5117 59.0625 53.3613 58.4873 52.2109C57.9121 51.0605 57.3359 49.9102 56.751 48.7603Z" fill="#EFD4AC"/>
<path d="M240.296 182.397C240.458 184.011 240.619 185.666 240.741 187.28L245.464 187.644L248.855 191.155C248.976 192.77 249.097 194.384 249.259 195.999C247.281 198.824 247.038 201.326 250.631 203.102C250.612 204.211 250.602 205.311 250.592 206.411C250.581 207.511 250.572 208.611 250.551 209.721C246.635 208.268 246.634 208.268 247.119 211.577C242.113 212.546 237.712 210.851 233.594 208.147C233.07 207.542 232.504 206.936 231.979 206.331C231.944 205.864 231.908 205.397 231.868 204.927C231.819 204.34 231.764 203.747 231.697 203.142C231.737 200.922 230.647 199.711 228.426 199.55C228.381 199.354 228.341 199.163 228.307 198.973L228.269 198.746L228.234 198.495C228.213 198.338 228.197 198.179 228.184 198.017C228.254 197.861 228.326 197.707 228.4 197.552C228.497 197.347 228.597 197.143 228.697 196.939C229.934 194.398 231.114 191.979 227.821 189.218C226.604 188.183 227.047 186.568 227.5 184.914C227.684 184.245 227.868 183.569 227.947 182.923C227.976 182.675 227.99 182.432 227.982 182.195C229.234 182.236 230.526 182.236 231.778 182.276L232.047 182.008L232.243 181.816L232.686 181.388L232.727 181.349C233.016 181.069 233.305 180.789 233.594 180.5C235.815 181.146 238.075 181.751 240.296 182.397Z" fill="#EFD4AC"/>
<path d="M381.614 337.518L385.127 339.213C385.785 340.622 386.084 342.146 386.384 343.677C386.874 346.182 387.367 348.702 389.447 350.756C389.964 351.272 389.528 352.722 389.09 354.181C388.877 354.889 388.664 355.599 388.559 356.205C386.944 354.711 385.531 353.42 382.866 354.429C381.633 354.895 380.193 354.765 378.739 354.634C378.053 354.572 377.362 354.51 376.689 354.51C373.782 351.644 370.916 348.779 368.009 345.954C368.009 345.075 368.011 344.199 368.014 343.323L368.019 341.965L368.031 339.485L368.044 336.474C368.047 335.652 368.049 334.831 368.049 334.007C368.389 333.966 368.731 333.93 369.075 333.894C370.079 333.789 371.094 333.682 372.087 333.442C372.288 333.392 372.483 333.326 372.676 333.249C373.109 333.076 373.527 332.846 373.947 332.615C374.212 332.47 374.478 332.324 374.749 332.19L374.672 332.077C374.474 331.79 374.272 331.498 374.146 331.182C374.105 331.061 374.509 330.818 374.67 330.657C374.707 331.171 374.744 331.652 374.812 332.161L374.832 332.15C377.053 333.967 379.313 335.742 381.614 337.518Z" fill="#EFD4AC"/>
<path d="M370.962 497.202L370.947 497.188C369.84 496.26 368.742 495.339 368.009 494.253C365.466 490.419 362.155 489.37 357.916 490.5C357.457 490.625 357.003 490.769 356.551 490.922C356.151 491.058 355.753 491.201 355.354 491.344L354.73 491.566C354.475 491.656 354.218 491.746 353.959 491.832C353.879 493.446 353.838 495.101 353.798 496.715L353.807 496.717C355.276 496.975 355.971 497.097 356.221 497.497C356.478 497.908 356.265 498.614 355.938 500.065C355.563 501.706 355.497 503.407 355.431 505.112V505.127C355.404 505.808 355.378 506.49 355.332 507.168C355.635 507.451 355.928 507.744 356.22 508.036L356.321 508.137C356.581 508.396 356.841 508.654 357.108 508.904V508.863C360.943 510.518 364.779 512.173 364.053 517.5C364.698 520.36 366.844 521.72 368.989 523.081L369.592 523.465C369.837 523.623 370.081 523.783 370.32 523.947C370.447 524.034 370.573 524.122 370.697 524.212L370.956 524.402C374.146 523.756 377.295 523.111 380 522.545C380.232 521.086 379.653 519.858 379.117 518.722C378.35 517.094 377.67 515.653 379.597 513.989C379.576 512.58 379.565 511.18 379.555 509.785V509.68L379.539 507.669C379.533 506.937 379.525 506.205 379.516 505.473C375.761 507.168 374.631 505.191 374.388 501.881C374.308 501.316 374.267 500.792 374.267 500.227C373.702 499.662 373.096 499.137 372.531 498.572C372.033 498.1 371.496 497.65 370.962 497.202Z" fill="#EFD4AC"/>
<path d="M-48.1953 264.656C-47.9004 267.701 -49.249 270.178 -50.6055 272.668C-51.4785 274.272 -52.3545 275.882 -52.7979 277.652C-53.5645 280.679 -56.2295 281.002 -58.5713 278.5C-59.1553 278.143 -59.7441 277.795 -60.3311 277.449L-60.3779 277.42C-63.7539 275.426 -67.0967 273.452 -69.3916 269.822C-70.1719 268.596 -71.917 267.966 -73.666 267.334L-73.6865 267.327C-74.4619 267.047 -75.2383 266.766 -75.9316 266.432C-76.1738 266.392 -76.416 266.361 -76.6582 266.331C-76.9004 266.301 -77.1426 266.271 -77.3848 266.23C-77.5732 265.606 -77.7676 264.982 -77.9639 264.358L-78.1816 263.664C-78.458 262.784 -78.7344 261.904 -79 261.024C-78.4756 258.199 -77.9912 255.414 -77.4658 252.589L-75.8105 250.934C-75.6465 250.907 -75.4824 250.875 -75.3184 250.84L-75.0225 250.773L-74.6826 250.692L-74.3574 250.611C-73.8799 250.537 -73.3965 250.475 -72.9121 250.412L-72.8711 250.406C-72.5469 250.364 -72.2227 250.321 -71.8984 250.276C-71.4688 250.215 -71.041 250.149 -70.6172 250.069C-70.0361 249.959 -69.4629 249.824 -68.9062 249.643C-68.1396 249.4 -67.6953 248.27 -67.0898 247.503C-66.2764 248.004 -65.4668 248.512 -64.6562 249.019L-64.5859 249.063C-63.4736 249.76 -62.3613 250.457 -61.2373 251.138C-60.832 251.384 -60.4258 251.627 -60.0176 251.869C-59.4189 252.223 -58.8154 252.571 -58.208 252.912C-56.7949 253.679 -55.1797 254.001 -53.6455 254.566C-53.5615 254.788 -53.4814 255.013 -53.4033 255.239C-53.332 255.444 -53.2627 255.651 -53.1934 255.857C-52.375 258.286 -51.5479 260.737 -48.3975 261.387C-48.3564 262.518 -48.2764 263.607 -48.1953 264.656Z" fill="#EFD4AC"/>
<path d="M190.584 534.625C191.108 534.625 191.674 534.665 192.198 534.786C197.543 533.338 198.854 529.035 200.153 524.768L200.171 524.708C200.388 523.999 200.604 523.291 200.839 522.597C200.818 521.759 200.788 520.931 200.758 520.104C200.728 519.256 200.697 518.409 200.677 517.552C200.404 517.593 200.076 517.685 199.751 517.775C199.111 517.954 198.481 518.129 198.295 517.916L197.636 517.152C197.28 516.742 196.925 516.33 196.571 515.917L196.021 515.275C194.953 514.023 193.892 512.763 192.841 511.493C191.281 509.607 189.744 507.7 188.242 505.767C188.053 505.524 188.315 504.921 188.582 504.306C188.715 504.001 188.849 503.694 188.929 503.426L188.859 502.796L188.767 501.873L188.752 501.732L188.683 501.03L188.64 500.631L188.605 500.318C187.475 499.713 186.385 499.107 185.254 498.502C184.705 498.463 184.165 498.433 183.63 498.404C183.064 498.373 182.504 498.342 181.943 498.3C179.037 500.682 176.09 503.022 173.183 505.363C173.327 505.516 173.493 505.667 173.667 505.818L173.962 506.071C174.577 506.593 175.198 507.12 175.282 507.704C175.312 507.917 175.327 508.133 175.332 508.35C175.335 508.458 175.335 508.566 175.332 508.675C175.328 508.85 175.318 509.026 175.304 509.202C175.292 509.347 175.276 509.492 175.259 509.637C175.231 509.861 175.199 510.086 175.163 510.312C175.125 510.554 175.084 510.797 175.042 511.04L174.964 511.5C174.918 511.782 174.874 512.063 174.838 512.346C174.871 512.8 174.901 513.255 174.931 513.709L174.99 514.665C175.044 515.546 175.097 516.428 175.161 517.31C175.398 517.584 175.625 517.866 175.853 518.148L175.861 518.157L175.885 518.185L175.923 518.232C176.177 518.547 176.431 518.862 176.695 519.167C176.879 519.636 177.065 520.103 177.254 520.568L177.685 521.628C178.018 522.446 178.351 523.263 178.673 524.09C181.821 523.602 182.447 525.564 183.074 527.527C183.275 528.157 183.477 528.788 183.761 529.337C186.021 531.113 188.322 532.849 190.584 534.625Z" fill="#EFD4AC"/>
<path d="M-7.98314 448.774C-8.2058 448.758 -8.42747 448.751 -8.64232 448.751C-9.11595 448.54 -9.58958 448.321 -10.0652 448.101C-10.7663 447.776 -11.4734 447.45 -12.1951 447.137C-12.7986 446.503 -13.3113 445.726 -13.824 444.949C-15.3347 442.661 -16.8454 440.373 -20.6736 441.729L-22.49 438.459C-23.6609 437.33 -24.8318 436.199 -26.0437 435.069C-26.0701 434.493 -26.0749 433.917 -26.0788 433.344C-26.0876 432.19 -26.0964 431.049 -26.2859 429.943C-27.2546 423.849 -26.366 422.073 -20.8347 419.006C-19.987 418.522 -19.5427 417.271 -18.9372 416.342L-17.3523 417.075L-15.6033 417.879C-14.6892 418.299 -13.7751 418.718 -12.8562 419.144L-12.1951 419.45C-11.9148 419.801 -11.6365 420.155 -11.3572 420.511L-11.2663 420.628L-10.8083 421.214C-10.3064 421.854 -9.79369 422.494 -9.24779 423.123C-9.02513 423.39 -8.77025 423.71 -8.50462 424.045C-8.31908 424.279 -8.12865 424.52 -7.93822 424.755C-7.2097 425.655 -6.49876 426.465 -6.18919 426.444C-6.55247 426.468 -7.45482 425.338 -8.30931 424.268L-8.50462 424.045L-8.76048 423.707L-9.00755 423.406L-9.24779 423.123C-10.2566 421.952 -11.1853 420.701 -12.1951 419.45L-11.9929 419.452L-11.8435 419.455C-11.7214 419.458 -11.5993 419.464 -11.4773 419.472C-11.1511 419.491 -10.8249 419.524 -10.4988 419.571C-10.3015 419.571 -10.1042 419.576 -9.90697 419.582L-9.6638 419.591C-9.37767 419.601 -9.09056 419.611 -8.80345 419.611H-5.37181C-5.33177 420.136 -5.29076 420.62 -5.29076 421.145C-4.68529 421.75 -4.07982 422.355 -3.47435 423.001C-2.18724 423.472 -0.925522 423.967 0.350845 424.467L1.45143 424.898C2.0569 426.028 2.66237 427.118 3.26784 428.248C3.30885 428.813 3.30885 429.378 3.30788 429.943C3.87428 429.943 4.3987 429.984 4.92409 430.024C5.48952 431.154 6.05397 432.325 6.6194 433.455C6.70045 434.02 6.70045 434.585 6.66042 435.15C4.47096 435.376 3.30495 435.497 2.8196 434.979C2.62233 434.769 2.53737 434.453 2.54323 433.995C2.53249 434.475 2.61549 434.803 2.81862 435.02C3.30397 435.538 4.46999 435.417 6.65944 435.19L6.86159 435.069C6.60378 436.133 6.33815 437.197 6.07253 438.261L5.91432 438.9C5.6487 439.964 5.38307 441.028 5.12526 442.092C5.08522 442.657 5.08424 443.222 5.0442 443.787C2.79225 446.699 -0.465561 447.4 -3.71361 448.1L-3.7224 448.101C-4.83861 448.342 -5.95384 448.583 -7.02708 448.913C-7.33763 448.841 -7.66185 448.798 -7.98314 448.774Z" fill="#EFD4AC"/>
<path d="M518.525 357.197L518.562 357.239L519.209 357.91L519.729 358.451C520.048 358.785 520.365 359.119 520.679 359.453C521.085 359.885 521.484 360.318 521.872 360.75L522.922 361.499L522.998 361.554C524.305 362.485 525.592 363.401 526.879 364.342C527.211 364.508 527.549 364.671 527.888 364.836L528.339 365.058L528.638 365.208L528.868 365.327C529.427 365.617 529.971 365.927 530.472 366.28C532.732 367.894 534.711 369.993 537.134 371.244C538.412 371.905 539.366 372.638 539.975 373.588C539.803 373.329 539.605 373.086 539.383 372.856C539.197 372.664 538.994 372.48 538.773 372.305C538.313 371.937 537.778 371.602 537.174 371.284C536.378 370.873 535.63 370.371 534.904 369.824C534.241 369.324 533.597 368.788 532.952 368.251L532.381 367.776L531.896 367.379C531.731 367.246 531.565 367.114 531.399 366.984C531.279 366.89 531.158 366.797 531.036 366.705L530.818 366.542L530.513 366.32C529.382 365.553 528.13 365.029 526.919 364.383C527 364.908 527.04 365.473 527.04 366.078C527.687 367.167 528.292 368.257 528.938 369.387C529.49 369.979 530.003 370.57 530.516 371.161L530.553 371.204C530.882 371.544 531.251 371.842 531.643 372.115C531.929 372.314 532.228 372.5 532.533 372.68C532.812 372.845 533.098 373.004 533.383 373.163C535.284 374.228 537.183 375.291 537.577 377.944C537.979 377.759 538.386 377.58 538.797 377.402L539.459 377.117C539.9 376.927 540.346 376.736 540.79 376.539C542.208 379.484 544.82 380.042 547.752 379.921L548.609 377.783L549.488 375.583C550.063 374.14 550.64 372.697 551.225 371.244C550.724 371.552 550.108 371.832 549.493 372.111C548.174 372.71 546.854 373.31 546.662 374.19C545.947 377.289 544.242 376.979 542.537 376.668C541.946 376.561 541.356 376.454 540.807 376.488L540.805 376.407C540.993 376.391 541.187 376.393 541.384 376.406C541.538 376.416 541.695 376.433 541.854 376.455C542.086 376.486 542.32 376.526 542.555 376.566L542.563 376.568C544.259 376.86 545.95 377.152 546.662 374.069C546.76 373.636 547.149 373.27 547.682 372.937C547.904 372.797 548.151 372.663 548.413 372.532C548.747 372.366 549.104 372.205 549.462 372.043L549.471 372.04C550.093 371.758 550.717 371.475 551.224 371.163C551.445 370.319 551.662 369.47 551.877 368.62L552.132 367.613C552.418 366.479 552.704 365.346 553 364.221C552.879 363.697 552.839 363.172 552.879 362.607L548.155 360.669C547.105 360.266 546.016 359.943 545.047 359.378C541.043 357.097 541.05 357.078 542.664 352.196L542.705 352.073C542.662 351.497 542.631 350.92 542.599 350.343C542.57 349.83 542.541 349.317 542.503 348.804L540.687 347.23L540.367 347.179C535.95 346.472 531.533 345.766 530.311 340.288C529.18 339.723 528.01 339.158 526.879 338.593C526.354 338.472 525.789 338.351 525.224 338.27C524.619 338.171 523.992 337.836 523.365 337.5C521.938 336.735 520.507 335.969 519.329 337.987C518.846 338.83 518.031 339.455 517.216 340.08C515.648 341.284 514.077 342.49 514.848 345.252C515.413 347.351 515.13 349.732 515.211 351.992C515.561 352.69 515.925 353.403 516.285 354.113C516.509 354.553 516.731 354.991 516.947 355.423C517.5 356.014 518.013 356.605 518.525 357.197Z" fill="#EFD4AC"/>
<path fill-rule="evenodd" clip-rule="evenodd" d="M81.0266 219.184C82.2385 220.273 83.4895 221.322 84.7005 222.412C85.7678 222.464 86.8342 222.533 87.8889 222.607L89.6272 222.735C90.2327 223.865 90.8782 224.955 91.4837 226.085L91.7415 226.344L91.969 226.578L91.9924 226.602L92.0481 226.659C92.429 227.048 92.8157 227.443 93.22 227.82C93.2415 228.073 93.2512 228.347 93.262 228.631V228.659C93.2717 228.908 93.2825 229.164 93.3001 229.421V229.395C96.6028 233.663 97.1487 238.675 97.6946 243.68L97.7063 243.784L97.7649 244.317L97.8323 244.916L97.9007 245.513C97.9514 245.953 98.0061 246.392 98.0647 246.83C98.3069 248.808 97.6204 250.382 95.1985 248.646C93.0178 247.072 92.2913 248.848 91.4837 250.341C89.0784 248.823 86.6731 247.293 84.2678 245.764L83.9661 245.572C81.8694 244.239 79.7727 242.907 77.676 241.583L77.9524 239.398C78.0989 238.234 78.2385 237.076 78.3626 235.933C78.2561 236.77 78.1497 237.606 78.0462 238.439L77.8967 239.67C77.8196 240.312 77.7454 240.95 77.676 241.583C77.554 241.574 77.4339 241.567 77.3147 241.562L76.8479 241.543C76.5755 241.533 76.303 241.522 76.0208 241.502C75.7327 241.193 75.4544 240.884 75.176 240.581C74.9094 240.29 74.6428 240.003 74.3655 239.727C73.76 239.162 73.1546 238.637 72.5491 238.072C71.4182 236.901 70.2874 235.771 69.1174 234.601C69.0979 234.106 69.0882 233.611 69.0784 233.12V232.988L69.0755 232.84C69.0657 232.304 69.0559 231.773 69.0364 231.251C69.6419 230.646 70.2073 230.04 70.7727 229.475C70.7317 226.004 70.6917 222.493 70.6106 219.022C73.1907 221.207 75.8167 220.494 78.4368 219.783C79.301 219.548 80.1653 219.313 81.0266 219.184ZM91.4104 229.301C90.6858 229.257 89.9592 229.214 89.2405 229.14C88.9651 229.112 88.6897 229.079 88.4153 229.04C88.1546 229.002 87.8948 228.959 87.638 228.91L87.801 228.938C88.1663 229.003 88.5354 229.053 88.9065 229.094C89.6311 229.175 90.3645 229.219 91.0989 229.264C91.5423 229.291 91.9856 229.318 92.427 229.353C92.719 229.376 93.01 229.403 93.3001 229.435C92.6751 229.377 92.0432 229.339 91.4104 229.301ZM74.4446 232.691C74.9778 233.687 75.5139 234.683 76.3723 235.303C76.0803 235.091 75.8264 234.834 75.5969 234.549C75.4641 234.384 75.3401 234.21 75.2219 234.029C74.9534 233.621 74.7141 233.178 74.4749 232.735L74.4602 232.71C74.3001 232.415 74.1399 232.119 73.971 231.833C74.1311 232.107 74.2835 232.39 74.4358 232.673L74.4446 232.691Z" fill="#EFD4AC"/>
<path fill-rule="evenodd" clip-rule="evenodd" d="M203.694 349.839C203.673 349.597 203.655 349.354 203.638 349.102C203.371 349.058 203.117 349.001 202.882 348.945L202.706 348.903L202.452 348.843L202.346 348.819C200.044 347.649 197.178 347.084 197.057 343.694C193.302 343.29 194.068 341.03 194.997 338.729C193.988 338.648 192.979 338.527 191.97 338.407C191.758 338.581 191.546 338.737 191.334 338.875C191.041 339.066 190.747 339.224 190.453 339.354C190.313 339.415 190.174 339.47 190.034 339.519C189.778 339.608 189.521 339.677 189.265 339.728C188.85 339.81 188.434 339.844 188.018 339.843C189.305 339.829 190.595 339.462 191.889 338.407C190.622 337.512 189.344 336.617 188.066 335.716C186.982 334.951 185.898 334.181 184.823 333.402C181.513 333.443 179.857 335.178 179.494 338.367L179.574 338.366C179.09 338.406 178.605 338.447 178.121 338.527L178 343.653C179.979 345.631 182.644 347.205 182.481 350.474C182.475 350.594 182.478 350.707 182.489 350.813C182.511 351.009 182.562 351.183 182.638 351.341C182.694 351.46 182.764 351.569 182.845 351.671C182.89 351.728 182.938 351.783 182.99 351.836C183.351 352.203 183.857 352.471 184.368 352.741C185.612 353.397 186.88 354.067 186.115 356.205C185.903 356.813 186.678 357.767 187.477 358.749L187.806 359.158C187.909 359.288 188.011 359.417 188.108 359.544C188.3 359.796 188.475 360.043 188.618 360.282C189.494 361.781 190.32 363.281 191.155 364.781L191.889 366.093C195.797 366.54 194.833 368.632 193.868 370.727C193.786 370.905 193.704 371.083 193.625 371.259V371.3C193.943 371.619 194.263 371.951 194.582 372.281L195.068 372.782L195.32 373.035C195.886 373.52 196.491 374.044 197.057 374.569L203.88 376.627C205.326 375.744 206.763 374.85 208.199 373.956C209.649 373.054 211.1 372.151 212.56 371.259L212.317 364.6C212.127 364.58 211.937 364.562 211.746 364.545L211.479 364.52L211.078 364.479C210.906 364.461 210.734 364.439 210.562 364.414C210.38 364.387 210.198 364.356 210.017 364.317C209.612 364.237 209.249 363.874 208.886 363.631C209.491 363.309 210.138 362.986 210.743 362.663C210.501 362.36 210.269 362.058 210.036 361.755C209.804 361.452 209.572 361.149 209.33 360.847C208.725 359.717 208.078 358.546 207.433 357.416V357.457L207.392 357.375C207.39 356.272 207.351 355.169 207.311 354.066C206.76 354.027 206.208 354.026 205.656 354.026H205.615L205.476 352.182L205.373 350.797C204.862 350.719 204.312 350.72 203.799 350.757C203.754 350.443 203.722 350.142 203.694 349.839ZM205.615 354.026L205.432 354.042L204.877 354.099L204.435 354.145C204.83 354.102 205.223 354.06 205.615 354.026ZM202.83 354.308C203.328 354.266 203.815 354.213 204.298 354.16L204.153 354.175C203.709 354.223 203.27 354.27 202.83 354.308Z" fill="#EFD4AC"/>
<path d="M-8.76341 419.571C-9.32787 419.571 -9.8933 419.53 -10.4587 419.53C-9.8933 419.45 -9.32787 419.45 -8.76341 419.571Z" fill="#EFD4AC"/>
<path d="M100.931 251.916L101.739 251.754C101.249 251.829 100.724 251.869 100.232 251.907L100.123 251.916H100.931Z" fill="#EFD4AC"/>
<path d="M-3.46654 422.968C-3.93431 422.5 -4.40208 422.033 -4.86986 421.546L-4.70287 421.713L-4.35814 422.059C-4.05052 422.366 -3.73705 422.679 -3.43431 423.001L-3.46654 422.968Z" fill="#EFD4AC"/>
<path d="M409.296 146.397C409.458 148.011 409.619 149.666 409.74 151.28L414.464 151.644L417.855 155.155C417.976 156.77 418.097 158.384 418.259 159.999C416.28 162.824 416.038 165.326 419.631 167.102C419.611 168.211 419.602 169.311 419.592 170.411C419.581 171.511 419.571 172.611 419.551 173.721C415.635 172.268 415.634 172.268 416.119 175.577C411.112 176.546 406.712 174.851 402.594 172.147C402.069 171.542 401.504 170.936 400.979 170.331C400.943 169.864 400.907 169.397 400.868 168.927C400.818 168.34 400.764 167.747 400.696 167.142C400.736 164.922 399.646 163.711 397.426 163.55C397.381 163.354 397.341 163.163 397.307 162.973L397.269 162.746L397.233 162.495C397.213 162.338 397.196 162.179 397.184 162.017C397.254 161.861 397.326 161.707 397.399 161.552C397.497 161.347 397.597 161.143 397.696 160.939C398.934 158.398 400.113 155.979 396.82 153.218C395.604 152.183 396.047 150.568 396.5 148.914C396.684 148.245 396.868 147.569 396.946 146.923C396.976 146.675 396.989 146.432 396.981 146.195C398.233 146.236 399.525 146.236 400.777 146.276L401.047 146.008L401.243 145.816L401.686 145.388L401.727 145.349C402.016 145.069 402.305 144.789 402.594 144.5C404.814 145.146 407.075 145.751 409.296 146.397Z" fill="#EFD4AC"/>
<path d="M248.165 1.89697C248.327 3.51123 248.488 5.16602 248.609 6.78027L253.333 7.14404L256.724 10.6553C256.845 12.2695 256.966 13.8838 257.128 15.4985C255.149 18.3237 254.907 20.8257 258.5 22.6016C258.48 23.7114 258.471 24.811 258.461 25.9106C258.45 27.0107 258.44 28.1108 258.42 29.2207C254.504 27.7676 254.503 27.7681 254.988 31.0771C249.981 32.0459 245.581 30.3511 241.463 27.647C240.938 27.0415 240.373 26.436 239.848 25.8306C239.812 25.3638 239.776 24.897 239.737 24.4268C239.688 23.8398 239.633 23.2471 239.565 22.6421C239.605 20.4224 238.516 19.2114 236.295 19.0503C236.25 18.8535 236.21 18.6626 236.176 18.4731L236.138 18.2461L236.103 17.9946C236.082 17.8379 236.065 17.6792 236.053 17.5166C236.123 17.3613 236.195 17.2065 236.269 17.0522C236.366 16.8472 236.466 16.6431 236.565 16.4395C237.803 13.8984 238.982 11.479 235.689 8.71777C234.473 7.68311 234.916 6.06787 235.369 4.41406C235.553 3.74463 235.737 3.06885 235.815 2.42285C235.845 2.17529 235.858 1.93213 235.851 1.69531C237.103 1.73584 238.395 1.73584 239.646 1.77588L239.916 1.5083L240.112 1.31592L240.555 0.888184L240.596 0.848633C240.885 0.568848 241.174 0.289062 241.463 0C243.684 0.645996 245.944 1.25098 248.165 1.89697Z" fill="#EFD4AC"/>
<path d="M937.751 1029.76C937.227 1029.76 936.701 1029.68 936.177 1029.64C933.229 1029.07 930.282 1028.55 927.335 1027.98L927.32 1028.01C927.053 1027.95 926.734 1027.86 926.412 1027.77C925.605 1027.54 924.771 1027.3 924.63 1027.5C923.464 1029.28 922.461 1031.17 921.462 1033.06C921.146 1033.66 920.831 1034.25 920.512 1034.85C921.036 1034.93 921.521 1035.01 922.006 1035.09C922.772 1034.85 923.58 1034.56 924.348 1034.32C924.459 1035.16 924.764 1035.88 925.185 1036.54C925.812 1037.52 926.694 1038.35 927.578 1039.18C929.332 1040.82 931.089 1042.47 930.848 1045.3C931.102 1045.32 931.355 1045.34 931.609 1045.35L931.838 1045.36L931.981 1045.37C932.128 1045.38 932.275 1045.38 932.422 1045.38C933.197 1044.99 934.062 1045.5 934.925 1046C936.308 1046.81 937.685 1047.62 938.68 1044.73L939.861 1045.37L941.833 1046.43L942.96 1047.03C943 1045.3 943 1043.52 943 1041.79L942.879 1040.13L942.384 1039.1L941.862 1038L941.65 1037.55L941.224 1036.66C940.639 1035.51 940.062 1034.36 939.487 1033.21C938.912 1032.06 938.336 1030.91 937.751 1029.76Z" fill="#EFD4AC"/>
<path d="M1121.3 1163.4C1121.46 1165.01 1121.62 1166.67 1121.74 1168.28L1126.46 1168.64L1129.85 1172.16C1129.98 1173.77 1130.1 1175.38 1130.26 1177C1128.28 1179.82 1128.04 1182.33 1131.63 1184.1C1131.61 1185.21 1131.6 1186.31 1131.59 1187.41C1131.58 1188.51 1131.57 1189.61 1131.55 1190.72C1127.64 1189.27 1127.63 1189.27 1128.12 1192.58C1123.11 1193.55 1118.71 1191.85 1114.59 1189.15C1114.07 1188.54 1113.5 1187.94 1112.98 1187.33C1112.94 1186.86 1112.91 1186.4 1112.87 1185.93C1112.82 1185.34 1112.76 1184.75 1112.7 1184.14C1112.74 1181.92 1111.65 1180.71 1109.43 1180.55C1109.38 1180.35 1109.34 1180.16 1109.31 1179.97L1109.27 1179.75L1109.23 1179.49C1109.21 1179.34 1109.2 1179.18 1109.18 1179.02C1109.25 1178.86 1109.33 1178.71 1109.4 1178.55C1109.5 1178.35 1109.6 1178.14 1109.7 1177.94C1110.93 1175.4 1112.11 1172.98 1108.82 1170.22C1107.6 1169.18 1108.05 1167.57 1108.5 1165.91C1108.68 1165.24 1108.87 1164.57 1108.95 1163.92C1108.98 1163.68 1108.99 1163.43 1108.98 1163.2C1110.23 1163.24 1111.53 1163.24 1112.78 1163.28L1113.05 1163.01L1113.24 1162.82L1113.69 1162.39L1113.73 1162.35C1114.02 1162.07 1114.3 1161.79 1114.59 1161.5C1116.81 1162.15 1119.08 1162.75 1121.3 1163.4Z" fill="#EFD4AC"/>
<path d="M1262.61 1318.52L1266.13 1320.21C1266.79 1321.62 1267.08 1323.15 1267.38 1324.68C1267.87 1327.18 1268.37 1329.7 1270.45 1331.76C1270.96 1332.27 1270.53 1333.72 1270.09 1335.18C1269.88 1335.89 1269.66 1336.6 1269.56 1337.21C1267.94 1335.71 1266.53 1334.42 1263.87 1335.43C1262.63 1335.9 1261.19 1335.77 1259.74 1335.63C1259.05 1335.57 1258.36 1335.51 1257.69 1335.51C1254.78 1332.64 1251.92 1329.78 1249.01 1326.95C1249.01 1326.08 1249.01 1325.2 1249.01 1324.32L1249.02 1322.97L1249.03 1320.49L1249.04 1317.47C1249.05 1316.65 1249.05 1315.83 1249.05 1315.01C1249.39 1314.97 1249.73 1314.93 1250.08 1314.89C1251.08 1314.79 1252.09 1314.68 1253.09 1314.44C1253.29 1314.39 1253.48 1314.33 1253.68 1314.25C1254.11 1314.08 1254.53 1313.85 1254.95 1313.62C1255.21 1313.47 1255.48 1313.32 1255.75 1313.19L1255.67 1313.08C1255.47 1312.79 1255.27 1312.5 1255.15 1312.18C1255.11 1312.06 1255.51 1311.82 1255.67 1311.66C1255.71 1312.17 1255.74 1312.65 1255.81 1313.16L1255.83 1313.15C1258.05 1314.97 1260.31 1316.74 1262.61 1318.52Z" fill="#EFD4AC"/>
<path d="M1251.96 1478.2L1251.95 1478.19C1250.84 1477.26 1249.74 1476.34 1249.01 1475.25C1246.47 1471.42 1243.16 1470.37 1238.92 1471.5C1238.46 1471.62 1238 1471.77 1237.55 1471.92C1237.15 1472.06 1236.75 1472.2 1236.35 1472.34L1235.73 1472.57C1235.47 1472.66 1235.22 1472.75 1234.96 1472.83C1234.88 1474.45 1234.84 1476.1 1234.8 1477.72L1234.81 1477.72C1236.28 1477.98 1236.97 1478.1 1237.22 1478.5C1237.48 1478.91 1237.26 1479.61 1236.94 1481.06C1236.56 1482.71 1236.5 1484.41 1236.43 1486.11V1486.13C1236.4 1486.81 1236.38 1487.49 1236.33 1488.17C1236.63 1488.45 1236.93 1488.74 1237.22 1489.04L1237.32 1489.14C1237.58 1489.4 1237.84 1489.65 1238.11 1489.9V1489.86C1241.94 1491.52 1245.78 1493.17 1245.05 1498.5C1245.7 1501.36 1247.84 1502.72 1249.99 1504.08L1250.59 1504.47C1250.84 1504.62 1251.08 1504.78 1251.32 1504.95C1251.45 1505.03 1251.57 1505.12 1251.7 1505.21L1251.96 1505.4C1255.15 1504.76 1258.29 1504.11 1261 1503.55C1261.23 1502.09 1260.65 1500.86 1260.12 1499.72C1259.35 1498.09 1258.67 1496.65 1260.6 1494.99C1260.58 1493.58 1260.57 1492.18 1260.55 1490.79V1490.68L1260.54 1488.67C1260.53 1487.94 1260.53 1487.21 1260.52 1486.47C1256.76 1488.17 1255.63 1486.19 1255.39 1482.88C1255.31 1482.32 1255.27 1481.79 1255.27 1481.23C1254.7 1480.66 1254.1 1480.14 1253.53 1479.57C1253.03 1479.1 1252.5 1478.65 1251.96 1478.2Z" fill="#EFD4AC"/>
<path d="M832.805 1245.66C833.1 1248.7 831.751 1251.18 830.395 1253.67C829.521 1255.27 828.646 1256.88 828.202 1258.65C827.436 1261.68 824.771 1262 822.429 1259.5C821.845 1259.14 821.256 1258.8 820.669 1258.45L820.622 1258.42C817.246 1256.43 813.903 1254.45 811.608 1250.82C810.828 1249.6 809.083 1248.97 807.334 1248.33L807.313 1248.33C806.538 1248.05 805.762 1247.77 805.068 1247.43C804.826 1247.39 804.584 1247.36 804.342 1247.33C804.1 1247.3 803.857 1247.27 803.615 1247.23C803.427 1246.61 803.232 1245.98 803.036 1245.36L802.818 1244.66C802.542 1243.78 802.266 1242.9 802 1242.02C802.524 1239.2 803.009 1236.41 803.534 1233.59L805.189 1231.93C805.354 1231.91 805.518 1231.88 805.682 1231.84L805.978 1231.77L806.317 1231.69L806.643 1231.61C807.12 1231.54 807.604 1231.47 808.088 1231.41L808.129 1231.41C808.453 1231.36 808.777 1231.32 809.102 1231.28C809.531 1231.22 809.959 1231.15 810.383 1231.07C810.964 1230.96 811.537 1230.82 812.094 1230.64C812.86 1230.4 813.305 1229.27 813.91 1228.5C814.724 1229 815.533 1229.51 816.344 1230.02L816.414 1230.06C817.526 1230.76 818.639 1231.46 819.763 1232.14C820.168 1232.38 820.574 1232.63 820.982 1232.87C821.581 1233.22 822.185 1233.57 822.792 1233.91C824.205 1234.68 825.82 1235 827.354 1235.57C827.438 1235.79 827.519 1236.01 827.597 1236.24C827.668 1236.44 827.737 1236.65 827.807 1236.86C828.625 1239.29 829.452 1241.74 832.603 1242.39C832.644 1243.52 832.724 1244.61 832.805 1245.66Z" fill="#EFD4AC"/>
<path d="M1071.58 1515.62C1072.11 1515.62 1072.67 1515.66 1073.2 1515.79C1078.54 1514.34 1079.85 1510.04 1081.15 1505.77L1081.17 1505.71C1081.39 1505 1081.6 1504.29 1081.84 1503.6C1081.82 1502.76 1081.79 1501.93 1081.76 1501.1C1081.73 1500.26 1081.7 1499.41 1081.68 1498.55C1081.4 1498.59 1081.08 1498.68 1080.75 1498.78C1080.11 1498.95 1079.48 1499.13 1079.29 1498.92L1078.64 1498.15C1078.28 1497.74 1077.92 1497.33 1077.57 1496.92L1077.02 1496.27C1075.95 1495.02 1074.89 1493.76 1073.84 1492.49C1072.28 1490.61 1070.74 1488.7 1069.24 1486.77C1069.05 1486.52 1069.32 1485.92 1069.58 1485.31C1069.71 1485 1069.85 1484.69 1069.93 1484.43L1069.86 1483.8L1069.77 1482.87L1069.75 1482.73L1069.68 1482.03L1069.64 1481.63L1069.61 1481.32C1068.47 1480.71 1067.38 1480.11 1066.25 1479.5C1065.71 1479.46 1065.17 1479.43 1064.63 1479.4C1064.06 1479.37 1063.5 1479.34 1062.94 1479.3C1060.04 1481.68 1057.09 1484.02 1054.18 1486.36C1054.33 1486.52 1054.49 1486.67 1054.67 1486.82L1054.96 1487.07C1055.58 1487.59 1056.2 1488.12 1056.28 1488.7C1056.31 1488.92 1056.33 1489.13 1056.33 1489.35C1056.33 1489.46 1056.33 1489.57 1056.33 1489.68C1056.33 1489.85 1056.32 1490.03 1056.3 1490.2C1056.29 1490.35 1056.28 1490.49 1056.26 1490.64C1056.23 1490.86 1056.2 1491.09 1056.16 1491.31C1056.12 1491.55 1056.08 1491.8 1056.04 1492.04L1055.96 1492.5C1055.92 1492.78 1055.87 1493.06 1055.84 1493.35C1055.87 1493.8 1055.9 1494.25 1055.93 1494.71L1055.99 1495.66C1056.04 1496.55 1056.1 1497.43 1056.16 1498.31C1056.4 1498.58 1056.62 1498.87 1056.85 1499.15L1056.86 1499.16L1056.88 1499.19L1056.92 1499.23C1057.18 1499.55 1057.43 1499.86 1057.7 1500.17C1057.88 1500.64 1058.07 1501.1 1058.25 1501.57L1058.68 1502.63C1059.02 1503.45 1059.35 1504.26 1059.67 1505.09C1062.82 1504.6 1063.45 1506.56 1064.07 1508.53C1064.28 1509.16 1064.48 1509.79 1064.76 1510.34C1067.02 1512.11 1069.32 1513.85 1071.58 1515.62Z" fill="#EFD4AC"/>
<path d="M873.017 1429.77C872.794 1429.76 872.573 1429.75 872.358 1429.75C871.884 1429.54 871.41 1429.32 870.935 1429.1C870.234 1428.78 869.527 1428.45 868.805 1428.14C868.201 1427.5 867.689 1426.73 867.176 1425.95C865.665 1423.66 864.155 1421.37 860.326 1422.73L858.51 1419.46C857.339 1418.33 856.168 1417.2 854.956 1416.07C854.93 1415.49 854.925 1414.92 854.921 1414.34C854.912 1413.19 854.904 1412.05 854.714 1410.94C853.745 1404.85 854.634 1403.07 860.165 1400.01C861.013 1399.52 861.457 1398.27 862.063 1397.34L863.648 1398.08L865.397 1398.88C866.311 1399.3 867.225 1399.72 868.144 1400.14L868.805 1400.45C869.085 1400.8 869.364 1401.15 869.643 1401.51L869.734 1401.63L870.192 1402.21C870.694 1402.85 871.206 1403.49 871.752 1404.12C871.975 1404.39 872.23 1404.71 872.495 1405.04C872.681 1405.28 872.871 1405.52 873.062 1405.75C873.79 1406.65 874.501 1407.47 874.811 1407.44C874.448 1407.47 873.545 1406.34 872.691 1405.27L872.495 1405.04L872.24 1404.71L871.992 1404.41L871.752 1404.12C870.743 1402.95 869.815 1401.7 868.805 1400.45L869.007 1400.45L869.157 1400.46C869.279 1400.46 869.401 1400.46 869.523 1400.47C869.849 1400.49 870.175 1400.52 870.501 1400.57C870.699 1400.57 870.896 1400.58 871.093 1400.58L871.336 1400.59C871.622 1400.6 871.909 1400.61 872.197 1400.61H875.628C875.668 1401.14 875.709 1401.62 875.709 1402.15C876.315 1402.75 876.92 1403.36 877.526 1404C878.813 1404.47 880.074 1404.97 881.351 1405.47L882.451 1405.9C883.057 1407.03 883.662 1408.12 884.268 1409.25C884.309 1409.81 884.309 1410.38 884.308 1410.94C884.874 1410.94 885.399 1410.98 885.924 1411.02C886.49 1412.15 887.054 1413.32 887.619 1414.45C887.7 1415.02 887.7 1415.58 887.66 1416.15C885.471 1416.38 884.305 1416.5 883.82 1415.98C883.622 1415.77 883.537 1415.45 883.543 1415C883.532 1415.47 883.615 1415.8 883.819 1416.02C884.304 1416.54 885.47 1416.42 887.659 1416.19L887.862 1416.07C887.604 1417.13 887.338 1418.2 887.073 1419.26L886.914 1419.9C886.649 1420.96 886.383 1422.03 886.125 1423.09C886.085 1423.66 886.084 1424.22 886.044 1424.79C883.792 1427.7 880.534 1428.4 877.286 1429.1L877.278 1429.1C876.161 1429.34 875.046 1429.58 873.973 1429.91C873.662 1429.84 873.338 1429.8 873.017 1429.77Z" fill="#EFD4AC"/>
<path d="M1399.53 1338.2L1399.56 1338.24L1400.21 1338.91L1400.73 1339.45C1401.05 1339.78 1401.37 1340.12 1401.68 1340.45C1402.08 1340.89 1402.48 1341.32 1402.87 1341.75L1403.92 1342.5L1404 1342.55C1405.3 1343.48 1406.59 1344.4 1407.88 1345.34C1408.21 1345.51 1408.55 1345.67 1408.89 1345.84L1409.34 1346.06L1409.64 1346.21L1409.87 1346.33C1410.43 1346.62 1410.97 1346.93 1411.47 1347.28C1413.73 1348.89 1415.71 1350.99 1418.13 1352.24C1419.41 1352.9 1420.37 1353.64 1420.97 1354.59C1420.8 1354.33 1420.61 1354.09 1420.38 1353.86C1420.2 1353.66 1419.99 1353.48 1419.77 1353.3C1419.31 1352.94 1418.78 1352.6 1418.17 1352.28C1417.38 1351.87 1416.63 1351.37 1415.9 1350.82C1415.24 1350.32 1414.6 1349.79 1413.95 1349.25L1413.38 1348.78L1412.9 1348.38C1412.73 1348.25 1412.57 1348.11 1412.4 1347.98C1412.28 1347.89 1412.16 1347.8 1412.04 1347.71L1411.82 1347.54L1411.51 1347.32C1410.38 1346.55 1409.13 1346.03 1407.92 1345.38C1408 1345.91 1408.04 1346.47 1408.04 1347.08C1408.69 1348.17 1409.29 1349.26 1409.94 1350.39C1410.49 1350.98 1411 1351.57 1411.52 1352.16L1411.55 1352.2C1411.88 1352.54 1412.25 1352.84 1412.64 1353.12C1412.93 1353.31 1413.23 1353.5 1413.53 1353.68C1413.81 1353.84 1414.1 1354 1414.38 1354.16C1416.28 1355.23 1418.18 1356.29 1418.58 1358.94C1418.98 1358.76 1419.39 1358.58 1419.8 1358.4L1420.46 1358.12C1420.9 1357.93 1421.35 1357.74 1421.79 1357.54C1423.21 1360.48 1425.82 1361.04 1428.75 1360.92L1429.61 1358.78L1430.49 1356.58C1431.06 1355.14 1431.64 1353.7 1432.22 1352.24C1431.72 1352.55 1431.11 1352.83 1430.49 1353.11C1429.17 1353.71 1427.85 1354.31 1427.66 1355.19C1426.95 1358.29 1425.24 1357.98 1423.54 1357.67C1422.95 1357.56 1422.36 1357.45 1421.81 1357.49L1421.8 1357.41C1421.99 1357.39 1422.19 1357.39 1422.38 1357.41C1422.54 1357.42 1422.7 1357.43 1422.85 1357.45C1423.09 1357.49 1423.32 1357.53 1423.55 1357.57L1423.56 1357.57C1425.26 1357.86 1426.95 1358.15 1427.66 1355.07C1427.76 1354.64 1428.15 1354.27 1428.68 1353.94C1428.9 1353.8 1429.15 1353.66 1429.41 1353.53C1429.75 1353.37 1430.1 1353.2 1430.46 1353.04L1430.47 1353.04C1431.09 1352.76 1431.72 1352.48 1432.22 1352.16C1432.45 1351.32 1432.66 1350.47 1432.88 1349.62L1433.13 1348.61C1433.42 1347.48 1433.7 1346.35 1434 1345.22C1433.88 1344.7 1433.84 1344.17 1433.88 1343.61L1429.16 1341.67C1428.11 1341.27 1427.02 1340.94 1426.05 1340.38C1422.04 1338.1 1422.05 1338.08 1423.66 1333.2L1423.71 1333.07C1423.66 1332.5 1423.63 1331.92 1423.6 1331.34C1423.57 1330.83 1423.54 1330.32 1423.5 1329.8L1421.69 1328.23L1421.37 1328.18C1416.95 1327.47 1412.53 1326.77 1411.31 1321.29C1410.18 1320.72 1409.01 1320.16 1407.88 1319.59C1407.35 1319.47 1406.79 1319.35 1406.22 1319.27C1405.62 1319.17 1404.99 1318.84 1404.37 1318.5C1402.94 1317.74 1401.51 1316.97 1400.33 1318.99C1399.85 1319.83 1399.03 1320.45 1398.22 1321.08C1396.65 1322.28 1395.08 1323.49 1395.85 1326.25C1396.41 1328.35 1396.13 1330.73 1396.21 1332.99C1396.56 1333.69 1396.92 1334.4 1397.29 1335.11C1397.51 1335.55 1397.73 1335.99 1397.95 1336.42C1398.5 1337.01 1399.01 1337.61 1399.53 1338.2Z" fill="#EFD4AC"/>
<path fill-rule="evenodd" clip-rule="evenodd" d="M962.027 1200.18C963.239 1201.27 964.49 1202.32 965.7 1203.41C966.768 1203.46 967.834 1203.53 968.889 1203.61L970.627 1203.73C971.233 1204.87 971.878 1205.95 972.484 1207.08L972.741 1207.34L972.969 1207.58L972.992 1207.6L973.048 1207.66C973.429 1208.05 973.816 1208.44 974.22 1208.82C974.241 1209.07 974.251 1209.35 974.262 1209.63V1209.66C974.272 1209.91 974.282 1210.16 974.3 1210.42V1210.39C977.603 1214.66 978.149 1219.68 978.695 1224.68L978.706 1224.78L978.765 1225.32L978.832 1225.92L978.901 1226.51C978.951 1226.95 979.006 1227.39 979.065 1227.83C979.307 1229.81 978.62 1231.38 976.199 1229.65C974.018 1228.07 973.291 1229.85 972.484 1231.34C970.078 1229.82 967.673 1228.29 965.268 1226.76L964.966 1226.57C962.869 1225.24 960.773 1223.91 958.676 1222.58L958.952 1220.4C959.099 1219.23 959.239 1218.08 959.363 1216.93C959.256 1217.77 959.15 1218.61 959.046 1219.44L958.897 1220.67C958.82 1221.31 958.745 1221.95 958.676 1222.58C958.554 1222.57 958.434 1222.57 958.315 1222.56L957.848 1222.54C957.575 1222.53 957.303 1222.52 957.021 1222.5C956.733 1222.19 956.454 1221.88 956.176 1221.58C955.909 1221.29 955.643 1221 955.365 1220.73C954.76 1220.16 954.155 1219.64 953.549 1219.07C952.418 1217.9 951.287 1216.77 950.117 1215.6C950.098 1215.11 950.088 1214.61 950.078 1214.12V1213.99L950.075 1213.84C950.066 1213.3 950.056 1212.77 950.036 1212.25C950.642 1211.65 951.207 1211.04 951.773 1210.48C951.732 1207 951.692 1203.49 951.611 1200.02C954.191 1202.21 956.817 1201.49 959.437 1200.78C960.301 1200.55 961.165 1200.31 962.027 1200.18ZM972.41 1210.3C971.686 1210.26 970.959 1210.21 970.24 1210.14C969.965 1210.11 969.69 1210.08 969.415 1210.04C969.155 1210 968.895 1209.96 968.638 1209.91L968.801 1209.94C969.166 1210 969.535 1210.05 969.907 1210.09C970.631 1210.17 971.365 1210.22 972.099 1210.26C972.542 1210.29 972.986 1210.32 973.427 1210.35C973.719 1210.38 974.01 1210.4 974.3 1210.44C973.675 1210.38 973.043 1210.34 972.41 1210.3ZM955.445 1213.69C955.978 1214.69 956.514 1215.68 957.372 1216.3C957.08 1216.09 956.826 1215.83 956.597 1215.55C956.464 1215.38 956.34 1215.21 956.222 1215.03C955.953 1214.62 955.714 1214.18 955.475 1213.74L955.46 1213.71C955.3 1213.41 955.14 1213.12 954.971 1212.83C955.131 1213.11 955.283 1213.39 955.436 1213.67L955.445 1213.69Z" fill="#EFD4AC"/>
<path fill-rule="evenodd" clip-rule="evenodd" d="M1084.69 1330.84C1084.67 1330.6 1084.66 1330.35 1084.64 1330.1C1084.37 1330.06 1084.12 1330 1083.88 1329.95L1083.71 1329.9L1083.45 1329.84L1083.35 1329.82C1081.04 1328.65 1078.18 1328.08 1078.06 1324.69C1074.3 1324.29 1075.07 1322.03 1076 1319.73C1074.99 1319.65 1073.98 1319.53 1072.97 1319.41C1072.76 1319.58 1072.55 1319.74 1072.33 1319.88C1072.04 1320.07 1071.75 1320.22 1071.45 1320.35C1071.31 1320.42 1071.17 1320.47 1071.03 1320.52C1070.78 1320.61 1070.52 1320.68 1070.26 1320.73C1069.85 1320.81 1069.43 1320.84 1069.02 1320.84C1070.3 1320.83 1071.59 1320.46 1072.89 1319.41C1071.62 1318.51 1070.34 1317.62 1069.07 1316.72C1067.98 1315.95 1066.9 1315.18 1065.82 1314.4C1062.51 1314.44 1060.86 1316.18 1060.49 1319.37L1060.57 1319.37C1060.09 1319.41 1059.61 1319.45 1059.12 1319.53L1059 1324.65C1060.98 1326.63 1063.64 1328.21 1063.48 1331.47C1063.47 1331.59 1063.48 1331.71 1063.49 1331.81C1063.51 1332.01 1063.56 1332.18 1063.64 1332.34C1063.69 1332.46 1063.76 1332.57 1063.84 1332.67C1063.89 1332.73 1063.94 1332.78 1063.99 1332.84C1064.35 1333.2 1064.86 1333.47 1065.37 1333.74C1066.61 1334.4 1067.88 1335.07 1067.12 1337.21C1066.9 1337.81 1067.68 1338.77 1068.48 1339.75L1068.81 1340.16C1068.91 1340.29 1069.01 1340.42 1069.11 1340.54C1069.3 1340.8 1069.47 1341.04 1069.62 1341.28C1070.49 1342.78 1071.32 1344.28 1072.16 1345.78L1072.89 1347.09C1076.8 1347.54 1075.83 1349.63 1074.87 1351.73C1074.79 1351.9 1074.7 1352.08 1074.62 1352.26V1352.3C1074.94 1352.62 1075.26 1352.95 1075.58 1353.28L1076.07 1353.78L1076.32 1354.04C1076.89 1354.52 1077.49 1355.04 1078.06 1355.57L1084.88 1357.63C1086.33 1356.74 1087.76 1355.85 1089.2 1354.96C1090.65 1354.05 1092.1 1353.15 1093.56 1352.26L1093.32 1345.6C1093.13 1345.58 1092.94 1345.56 1092.75 1345.54L1092.48 1345.52L1092.08 1345.48C1091.91 1345.46 1091.73 1345.44 1091.56 1345.41C1091.38 1345.39 1091.2 1345.36 1091.02 1345.32C1090.61 1345.24 1090.25 1344.87 1089.89 1344.63C1090.49 1344.31 1091.14 1343.99 1091.74 1343.66C1091.5 1343.36 1091.27 1343.06 1091.04 1342.75C1090.8 1342.45 1090.57 1342.15 1090.33 1341.85C1089.72 1340.72 1089.08 1339.55 1088.43 1338.42V1338.46L1088.39 1338.37C1088.39 1337.27 1088.35 1336.17 1088.31 1335.07C1087.76 1335.03 1087.21 1335.03 1086.66 1335.03H1086.62L1086.48 1333.18L1086.37 1331.8C1085.86 1331.72 1085.31 1331.72 1084.8 1331.76C1084.75 1331.44 1084.72 1331.14 1084.69 1330.84ZM1086.62 1335.03L1086.43 1335.04L1085.88 1335.1L1085.43 1335.15C1085.83 1335.1 1086.22 1335.06 1086.62 1335.03ZM1083.83 1335.31C1084.33 1335.27 1084.82 1335.21 1085.3 1335.16L1085.15 1335.17C1084.71 1335.22 1084.27 1335.27 1083.83 1335.31Z" fill="#EFD4AC"/>
<path d="M872.237 1400.57C871.672 1400.57 871.107 1400.53 870.541 1400.53C871.107 1400.45 871.672 1400.45 872.237 1400.57Z" fill="#EFD4AC"/>
<path d="M981.931 1232.92L982.739 1232.75C982.249 1232.83 981.724 1232.87 981.232 1232.91L981.123 1232.92H981.931Z" fill="#EFD4AC"/>
<path d="M877.533 1403.97C877.066 1403.5 876.598 1403.03 876.13 1402.55L876.297 1402.71L876.642 1403.06C876.949 1403.37 877.263 1403.68 877.566 1404L877.533 1403.97Z" fill="#EFD4AC"/>
<path d="M1290.3 1127.4C1290.46 1129.01 1290.62 1130.67 1290.74 1132.28L1295.46 1132.64L1298.85 1136.16C1298.98 1137.77 1299.1 1139.38 1299.26 1141C1297.28 1143.82 1297.04 1146.33 1300.63 1148.1C1300.61 1149.21 1300.6 1150.31 1300.59 1151.41C1300.58 1152.51 1300.57 1153.61 1300.55 1154.72C1296.63 1153.27 1296.63 1153.27 1297.12 1156.58C1292.11 1157.55 1287.71 1155.85 1283.59 1153.15C1283.07 1152.54 1282.5 1151.94 1281.98 1151.33C1281.94 1150.86 1281.91 1150.4 1281.87 1149.93C1281.82 1149.34 1281.76 1148.75 1281.7 1148.14C1281.74 1145.92 1280.65 1144.71 1278.43 1144.55C1278.38 1144.35 1278.34 1144.16 1278.31 1143.97L1278.27 1143.75L1278.23 1143.49C1278.21 1143.34 1278.2 1143.18 1278.18 1143.02C1278.25 1142.86 1278.33 1142.71 1278.4 1142.55C1278.5 1142.35 1278.6 1142.14 1278.7 1141.94C1279.93 1139.4 1281.11 1136.98 1277.82 1134.22C1276.6 1133.18 1277.05 1131.57 1277.5 1129.91C1277.68 1129.24 1277.87 1128.57 1277.95 1127.92C1277.98 1127.68 1277.99 1127.43 1277.98 1127.2C1279.23 1127.24 1280.53 1127.24 1281.78 1127.28L1282.05 1127.01L1282.24 1126.82L1282.69 1126.39L1282.73 1126.35C1283.02 1126.07 1283.3 1125.79 1283.59 1125.5C1285.81 1126.15 1288.08 1126.75 1290.3 1127.4Z" fill="#EFD4AC"/>
<path d="M1129.17 982.897C1129.33 984.511 1129.49 986.166 1129.61 987.78L1134.33 988.144L1137.72 991.655C1137.84 993.27 1137.97 994.884 1138.13 996.499C1136.15 999.324 1135.91 1001.83 1139.5 1003.6C1139.48 1004.71 1139.47 1005.81 1139.46 1006.91C1139.45 1008.01 1139.44 1009.11 1139.42 1010.22C1135.5 1008.77 1135.5 1008.77 1135.99 1012.08C1130.98 1013.05 1126.58 1011.35 1122.46 1008.65C1121.94 1008.04 1121.37 1007.44 1120.85 1006.83C1120.81 1006.36 1120.78 1005.9 1120.74 1005.43C1120.69 1004.84 1120.63 1004.25 1120.57 1003.64C1120.61 1001.42 1119.52 1000.21 1117.29 1000.05C1117.25 999.854 1117.21 999.663 1117.18 999.473L1117.14 999.246L1117.1 998.995C1117.08 998.838 1117.07 998.679 1117.05 998.517C1117.12 998.361 1117.2 998.207 1117.27 998.052C1117.37 997.847 1117.47 997.643 1117.57 997.439C1118.8 994.898 1119.98 992.479 1116.69 989.718C1115.47 988.683 1115.92 987.068 1116.37 985.414C1116.55 984.745 1116.74 984.069 1116.82 983.423C1116.84 983.175 1116.86 982.932 1116.85 982.695C1118.1 982.736 1119.39 982.736 1120.65 982.776L1120.92 982.508L1121.11 982.316L1121.55 981.888L1121.6 981.849C1121.88 981.569 1122.17 981.289 1122.46 981C1124.68 981.646 1126.94 982.251 1129.17 982.897Z" fill="#EFD4AC"/>
<path fill-rule="evenodd" clip-rule="evenodd" d="M-238.373 1632.54C-104.724 1489.56 28.5904 1343.26 118.152 1167.8C182.616 1042.42 215.487 906.831 290.723 787.064C331.145 721.822 417.097 607.663 499.329 585.287C561.85 568.463 468.957 649.473 450.301 665.02C435.365 683.566 323.427 776.792 346.747 804.776C369.346 826.042 479.951 783.732 511.1 790.562C566.459 801.556 562.961 832.427 518.652 860.856C461.961 900.778 388.335 908.663 327.591 942.255C301.883 955.137 197.164 1020.55 221.872 1061.91C242.916 1100.28 367.014 1026.04 393.055 1016.49C445.526 1000.72 547.136 969.518 552.744 1053.58C560.24 1123.88 485.67 1186.01 422.761 1199.56C350.19 1217.49 278.952 1184.45 206.381 1202.39C159.851 1210.77 70.4561 1260.97 76.897 1321.21C83.56 1415.27 392.611 1297.56 462.294 1347.7C513.821 1386.18 471.234 1431.37 429.535 1452.75C365.459 1486.68 283.338 1478.57 211.6 1472.68C146.192 1462.74 77.1191 1449.81 11.5999 1470.41C-57.2508 1491.34 -109.5 1540.92 -162.137 1587.18C-189.733 1613.83 -220.716 1640.87 -247.978 1670.85C-253.087 1654.47 -237.817 1639.31 -229.211 1624.82L-238.373 1632.54Z" fill="#ECC986"/>
</g>
<defs>
<clipPath id="clip0_1_65">
<rect width="1500" height="2000" fill="white" transform="translate(0 1500) rotate(-90)"/>
</clipPath>
</defs>
</svg>
