<svg xmlns="http://www.w3.org/2000/svg" viewBox="0 0 24 24" width="24" height="24">
  <path fill="none" d="M0 0h24v24H0z"></path>
  <path
    d="M12 3c5.392 0 9.878 3.88 10.819 9-.94 5.12-5.427 9-10.819 9-5.392 0-9.878-3.88-10.819-9C2.121 6.88 6.608 3 12 3zm0 16c3.691 0 6.915-2.534 7.736-6C18.915 9.534 15.691 7 12 7c-3.691 0-6.915 2.534-7.736 6 .82 3.466 4.045 6 7.736 6zm0-10c2.21 0 4 1.791 4 4s-1.79 4-4 4-4-1.791-4-4 1.79-4 4-4zm0 6c1.105 0 2-.895 2-2s-.895-2-2-2-2 .895-2 2 .895 2 2 2z"
    fill="currentColor"></path>
</svg>