<svg  xmlns:svg="http://www.w3.org/2000/svg" xmlns="http://www.w3.org/2000/svg" xmlns:xlink="http://www.w3.org/1999/xlink"  viewBox="0 0 1024 768" height="768px" width="1024px" version="1.1" fill="black" >
  <linearGradient spreadMethod="pad" y2="30%" x2="-10%" y1="120%" x1="30%" id="3d_gradient2-logo-233f3419-c7c9-43ef-8209-245f64baea62">
    <stop id="stop165370" stop-opacity="1" stop-color="#ffffff" offset="0%"></stop>
    <stop id="stop165372" stop-opacity="1" stop-color="#000000" offset="100%"></stop>
  </linearGradient>
  <linearGradient gradientTransform="rotate(-30)" spreadMethod="pad" y2="30%" x2="-10%" y1="120%" x1="30%" id="3d_gradient3-logo-233f3419-c7c9-43ef-8209-245f64baea62">
    <stop id="stop165375" stop-opacity="1" stop-color="#ffffff" offset="0%"></stop>
    <stop id="stop165377" stop-opacity="1" stop-color="#cccccc" offset="50%"></stop>
    <stop id="stop165379" stop-opacity="1" stop-color="#000000" offset="100%"></stop>
  </linearGradient>
  <g id="logo-group">
    <image xlink:href="" id="container" x="272" y="144" width="480" height="480" style="display: none;" transform="translate(0 0)"></image>
    <g id="logo-center" transform="translate(208.19819999999999 0)">
      <g id="slogan" style="font-style:normal;font-weight:normal;font-size:32px;line-height:1;font-family:'Brandmark Sans 2 Color';font-variant-ligatures:none;text-align:center;text-anchor:middle" transform="translate(0 0)"></g>
      <g id="title" style="font-style:normal;font-weight:normal;font-size:72px;line-height:1;font-family:'Brandmark Sans 2 Color';font-variant-ligatures:normal;text-align:center;text-anchor:middle" transform="translate(0 0)">
        <g id="path165398" aria-label="A" transform="translate(0 318.37600000000003) translate(50 30.344000000000015) scale(1.4) translate(-329.69656 50.4)"> <polygon class="c1" points="106.19287,74.79785 94.23975,74.79785 73.78955,125.20215 85.31104,125.20215 92.0791,106.84082 92.0791,106.84082 99.85596,86.74268 114.18506,125.20215 126.21045,125.20215 " transform="translate(255.90701 -125.19785)" stroke-width="0" stroke-linejoin="miter" stroke-miterlimit="2" fill="#f1c40f" stroke="#f1c40f"></polygon> </g>
        <g id="path165400" aria-label="B" transform="translate(0 318.37600000000003) translate(131.25425000000007 30.344000000000015) scale(1.4) translate(-387.73531 50.4)"> <path class="c1" d="M111.08887,98.91992c5.83301,1.22412,9.57715,6.12061,9.57715,12.52881 c0,8.49707-6.91309,13.75342-18.07324,13.75342H79.33398v-50.4043h22.39453c10.65625,0,17.28125,4.75244,17.28125,12.38477 c0,5.18457-3.02441,9.36084-7.9209,10.80127l-2.01563,0.57617l2.01563,0.43164V98.91992z M90.49512,95.3916h10.5127 c3.88867,0,6.40918-2.3042,6.40918-5.9043c0-3.52832-2.44824-5.76074-6.40918-5.76074h-10.5127V95.3916z M108.92871,109.86475 c0-3.74414-3.02441-6.12061-7.9209-6.12061h-10.5127v12.45703h10.5127C105.9043,116.20117,108.92871,113.75293,108.92871,109.86475 z" transform="translate(308.40133 -125.19785)" stroke-width="0" stroke-linejoin="miter" stroke-miterlimit="2" fill="#f1c40f" stroke="#f1c40f"></path> </g>
        <g id="path165402" aria-label="C" transform="translate(0 318.37600000000003) translate(197.32865000000004 29.638399999999997) scale(1.4) translate(-434.93131 50.904)"> <path class="c1" d="M102.19629,115.8418c4.89648,0,9.57617-2.44824,12.52832-6.33691l10.36914,4.6084 c-4.75195,7.05664-13.10449,11.59277-23.04199,11.59277c-15.55273,0-27.29004-11.08887-27.29004-25.84961 c0-14.5459,11.7373-25.5625,27.29004-25.5625c10.00879,0,18.43359,4.53613,23.18652,11.59277l-10.44141,4.68066 c-2.95215-3.88867-7.63281-6.33691-12.60059-6.33691c-8.4248,0-16.12988,6.9126-16.12988,15.76953 c0,8.78516,7.77734,15.91406,16.05762,15.91406L102.19629,115.8418z" transform="translate(360.16959 -125.19795)" stroke-width="0" stroke-linejoin="miter" stroke-miterlimit="2" fill="#f1c40f" stroke="#f1c40f"></path> </g>
        <g id="path165404" aria-label="D" transform="translate(0 318.37600000000003) translate(277.3355000000001 30.344000000000015) scale(1.4) translate(-492.07906 50.4)"> <path class="c1" d="M97.47998,74.79785c15.12109,0,25.27441,10.15283,25.27441,25.20215 c0,14.83301-10.58496,25.20215-25.70703,25.20215H77.24561v-50.4043h20.30566H97.47998z M97.83936,115.8418 c7.9209,0,13.46582-6.48047,13.46582-15.76953c0-9.36133-5.76074-15.91357-14.04102-15.91357H88.479v31.61084h9.28906 L97.83936,115.8418z" transform="translate(414.83345 -125.19785)" stroke-width="0" stroke-linejoin="miter" stroke-miterlimit="2" fill="#f1c40f" stroke="#f1c40f"></path> </g>
        <g id="path165406" aria-label="^K" transform="translate(0 318.37600000000003) translate(351.95113200000003 30.344000000000015) scale(1.4) translate(-545.37594 50.4)"> <polygon class="c1" points="121.02588,74.76172 88.83936,112.85352 88.83936,125.16602 77.53369,125.16602 77.53369,74.76172 88.83936,74.76172 88.83936,97.94775 108.13721,74.76172 " transform="translate(467.84225 -125.16172)" stroke-width="0" stroke-linejoin="miter" stroke-miterlimit="2" fill="#f1c40f" stroke="#f1c40f"></polygon> <path class="c3" d="M122.46631,125.23828H108.9292l-9.2168-14.47363c1.43945-8.7124,8.56836-7.70459,8.56836-7.70459 L122.46631,125.23828z" transform="translate(467.84225 -125.16172)" stroke-width="0" stroke-linejoin="miter" stroke-miterlimit="2" fill="#de860c" stroke="#de860c"></path> </g>
        <g id="path165408" aria-label="B" transform="translate(0 318.37600000000003) translate(424.59800000000007 30.344000000000015) scale(1.4) translate(-597.26656 50.4)"> <path class="c1" d="M111.08887,98.91992c5.83301,1.22412,9.57715,6.12061,9.57715,12.52881 c0,8.49707-6.91309,13.75342-18.07324,13.75342H79.33398v-50.4043h22.39453c10.65625,0,17.28125,4.75244,17.28125,12.38477 c0,5.18457-3.02441,9.36084-7.9209,10.80127l-2.01563,0.57617l2.01563,0.43164V98.91992z M90.49512,95.3916h10.5127 c3.88867,0,6.40918-2.3042,6.40918-5.9043c0-3.52832-2.44824-5.76074-6.40918-5.76074h-10.5127V95.3916z M108.92871,109.86475 c0-3.74414-3.02441-6.12061-7.9209-6.12061h-10.5127v12.45703h10.5127C105.9043,116.20117,108.92871,113.75293,108.92871,109.86475 z" transform="translate(517.93258 -125.19785)" stroke-width="0" stroke-linejoin="miter" stroke-miterlimit="2" fill="#f1c40f" stroke="#f1c40f"></path> </g>
        <g id="path165410" aria-label="D" transform="translate(0 318.37600000000003) translate(493.8980000000001 30.344000000000015) scale(1.4) translate(-646.76656 50.4)"> <path class="c1" d="M97.47998,74.79785c15.12109,0,25.27441,10.15283,25.27441,25.20215 c0,14.83301-10.58496,25.20215-25.70703,25.20215H77.24561v-50.4043h20.30566H97.47998z M97.83936,115.8418 c7.9209,0,13.46582-6.48047,13.46582-15.76953c0-9.36133-5.76074-15.91357-14.04102-15.91357H88.479v31.61084h9.28906 L97.83936,115.8418z" transform="translate(569.52095 -125.19785)" stroke-width="0" stroke-linejoin="miter" stroke-miterlimit="2" fill="#f1c40f" stroke="#f1c40f"></path> </g>
        </g>
    </g>
  </g>
</svg>