<svg
  xmlns="http://www.w3.org/2000/svg"
  viewBox="0 0 24 24" fill="none" stroke="currentColor" stroke-width="1.5"
  stroke-linecap="round" stroke-linejoin="round">
  <title>Quote</title>
  <path
    d="M10 13a5 5 0 0 0 7.54.54l3-3a5 5 0 0 0-7.07-7.07L9.54 2.46c-.54.54-.54 1.42 0 1.96l3 3c.39.39 1.02.39 1.41 0a.96.96 0 0 0 0-1.41l-3-3A5 5 0 0 0 5.46 7.54l3 3a.96.96 0 0 0 1.41 0c.39-.39.39-1.02 0-1.41z"></path>
  <path d="M18.5 8.5L20 7"></path>
  <path d="M14 14h.01"></path>
  <path d="M17 17h.01"></path>
  <path d="M19 19h.01"></path>
</svg>