<svg xmlns="http://www.w3.org/2000/svg" x="0px" y="0px" width="100" height="100" viewBox="0 0 50 50">
<path d="M 14 4 C 8.489 4 4 8.489 4 14 L 4 36 C 4 41.511 8.489 46 14 46 L 36 46 C 41.511 46 46 41.511 46 36 L 46 14 C 46 8.489 41.511 4 36 4 L 14 4 z M 14 6 L 36 6 C 40.431 6 44 9.569 44 14 L 44 36 C 44 40.431 40.431 44 36 44 L 14 44 C 9.569 44 6 40.431 6 36 L 6 14 C 6 9.569 9.569 6 14 6 z M 25 8 A 2 2 0 0 0 24 11.730469 L 24 37.269531 A 2 2 0 0 0 25 41 A 2 2 0 0 0 26 37.269531 L 26 11.730469 A 2 2 0 0 0 25 8 z M 17 11 C 16.447 11 16 11.447 16 12 L 16 37 C 16 37.553 16.447 38 17 38 C 17.553 38 18 37.553 18 37 L 18 12 C 18 11.447 17.553 11 17 11 z M 29 18 C 28.447 18 28 18.447 28 19 L 28 29 C 28 29.553 28.447 30 29 30 C 29.553 30 30 29.553 30 29 L 30 19 C 30 18.447 29.553 18 29 18 z M 33 20 C 32.447 20 32 20.447 32 21 L 32 26 C 32 26.553 32.447 27 33 27 C 33.553 27 34 26.553 34 26 L 34 21 C 34 20.447 33.553 20 33 20 z M 13 21 C 12.447 21 12 21.447 12 22 L 12 26 C 12 26.553 12.447 27 13 27 C 13.553 27 14 26.553 14 26 L 14 22 C 14 21.447 13.553 21 13 21 z M 21 21 C 20.447 21 20 21.447 20 22 L 20 28 C 20 28.553 20.447 29 21 29 C 21.553 29 22 28.553 22 28 L 22 22 C 22 21.447 21.553 21 21 21 z M 37 22 C 36.447 22 36 22.447 36 23 L 36 25 C 36 25.553 36.447 26 37 26 C 37.553 26 38 25.553 38 25 L 38 23 C 38 22.447 37.553 22 37 22 z M 9 23.011719 C 8.7375 23.011719 8.4740625 23.104062 8.2890625 23.289062 C 8.1990625 23.389062 8.1300781 23.499141 8.0800781 23.619141 C 8.0200781 23.739141 8 23.87 8 24 C 8 24.26 8.0990625 24.520937 8.2890625 24.710938 C 8.4780625 24.899938 8.729 25 9 25 C 9.27 25 9.5209375 24.899938 9.7109375 24.710938 C 9.8999375 24.520937 10 24.27 10 24 C 10 23.87 9.9699219 23.739141 9.9199219 23.619141 C 9.8699219 23.499141 9.8009375 23.389063 9.7109375 23.289062 C 9.5259375 23.104062 9.2625 23.011719 9 23.011719 z M 41 23.011719 C 40.74 23.011719 40.479062 23.104062 40.289062 23.289062 C 40.199062 23.389062 40.130078 23.489141 40.080078 23.619141 C 40.020078 23.739141 40 23.87 40 24 C 40 24.27 40.099063 24.520937 40.289062 24.710938 C 40.478062 24.899938 40.729 25 41 25 C 41.13 25 41.260859 24.969922 41.380859 24.919922 C 41.500859 24.869922 41.609938 24.800937 41.710938 24.710938 C 41.800938 24.609937 41.869922 24.500859 41.919922 24.380859 C 41.978922 24.260859 42 24.13 42 24 C 42 23.74 41.890937 23.478062 41.710938 23.289062 C 41.520938 23.104062 41.26 23.011719 41 23.011719 z"
fill="currentColor"></path>
</svg>