<svg aria-label="Kashmir" preserveAspectRatio="xMidYMid meet" style="width: 100%; height: 100%;"
  viewBox="300 150 200 500" xmlns="http://www.w3.org/2000/svg">
  <g  id="kashmir">  
    <path d="M426.0722 322.1819l-.3286.4929-1.3144-1.1501-.1643-.6572-1.3144.1643 0-1.1501-.8215.1643-1.9716-.8215.3286-.8215-.4929-.4929-1.1501.1643-1.4787.8215-.4929-2.3002-.6572-1.4787-.6572.4929-.9858-.4929-.8215 0-.8215-.6572-.6572.1643 0 .8215-.9858.9858-1.643 0-1.1501-.8215-1.8073.1643-.8215-.9858-1.3144 0-1.4787-.3286-.8215.8215-1.1501-.1643-.8215.1643-1.8073-.1643-.1643-.4929-1.1501.1643-.1643-1.1501.4929-.9858-1.3144-.9858-.3286-.9858-.1643-1.643-.6572-.8215.6572-.4929.1643-.9858 1.8073-1.3144-1.4787-.9858-.4929-1.1501.3286-1.643.4929-.9858.6572-2.3002.6572-1.1501.3286-1.1501-2.3002.1643-.9858 1.4787.1643 1.1501-.8215 1.3144-1.3144.4929-1.4787-.6572-.4929.8215-1.643-.1643-2.4645-2.1359-2.1359.3286-.8215 1.1501-1.1501-.1643-1.3144-.8215-1.3144-1.643 0-.8215-2.1359-.9858-1.8073-.3286-.6572-1.3144-1.3144-.8215-2.1359-.6572-2.9574-.6572-.1643-.9858-1.8073 0-1.1501-.3286.3286-1.3144-1.1501-.3286-.4929-1.1501-1.643.1643-1.1501-.9858-3.4503-.1643-.6572 1.8073-1.3144-.1643.6572-1.1501-2.3002-2.4645-.3286-1.3144-1.8073-1.1501-1.9716.1643-.8215-.1643-.1643-.6572 0-2.1359 1.3144-1.643.1643-2.1359-1.4787-.6572 0-.8215-.9858-.6572-.3286-1.4787.1643-.6572-.6572-.8215 0-.8215-.9858-1.1501-.3286-1.3144.1643-1.3144 1.3144-1.643-.1643-1.1501 1.8073-.9858-1.3144-1.4787.3286-1.4787 1.1501-.8215-.6572-.6572.1643-1.8073-1.4787-1.643-1.1501-.9858.3286-1.3144-.3286-1.4787 1.3144-1.1501.3286-.9858-.1643-1.8073-1.643-1.4787 0-.8215.6572-3.1217.8215-1.9716-.4929-1.3144-1.3144-1.1501-1.643-3.7789-.1643-3.286-.4929-.9858-.1643-3.286-.3286-1.9716 0-2.7931-.4929-.3286-.3286-1.643-1.1501-2.4645-.8215-2.3002-1.1501-.3286-.1643-1.3144.6572-.4929.6572-2.4645-.1643-1.8073.4929-1.1501-.1643-1.9716.4929-.6572 0-1.4787.8215-.8215 3.4503.1643.8215-.8215 2.7931.3286.9858.9858.4929 0 .4929-1.1501 0-.9858 1.643-2.4645-1.4787-.9858 1.3144-2.6288.4929 0 1.3144-2.7931 1.8073-1.4787 2.1359.1643.9858-1.1501 2.6288-.3286 1.1501.1643.4929-.8215 1.3144-.6572.1643-.9858 2.1359-.8215.9858-.9858 0-1.1501 1.4787-1.1501-.4929-2.9574 1.8073-1.1501-.1643-1.1501-1.3144-.8215 1.1501-2.7931 1.4787-.3286.3286-.4929-.4929-.4929.1643 0 3.286-.9858.9858-.1643 2.1359.3286 1.1501-.1643 2.6288.4929 1.9716.8215.9858.1643.4929.4929.8215 1.1501.4929.3286 1.3144 0 1.9716-1.8073 2.1359-.8215.9858-.6572.6572-.1643.3286-.3286.6572-.4929.4929.8215 2.4645 2.3002 1.3144.4929 1.8073 1.643 1.8073.6572-.4929 1.3144-.4929 1.3144-.1643 2.1359.1643.6572-.1643.8215.1643 1.1501.8215-1.4787.4929.3286.8215 0 .6572.3286.6572.8215.6572.9858 1.3144.4929 1.1501.4929.3286 0 .6572.1643 1.1501.3286.8215.3286.8215.3286.6572.6572.6572.4929.3286.1643-.1643.4929.3286-.1643.4929-.1643-.1643-.1643-.1643-.3286.1643-.3286-.1643-.3286.1643-.4929-.1643-.1643 0-.1643.1643-.1643.1643-.1643 0-.1643.1643-.1643.1643-.1643-.1643-.1643.1643-.1643 0-.1643-.3286 0-.1643-.3286.4929-.1643.3286-.3286.6572.1643.1643.6572.3286.3286.1643.1643 0 .1643 0 .1643.1643 0 .4929.1643.3286.1643.3286.1643-.1643.4929.1643.4929-.1643 0 .1643.6572.1643.1643.3286-.1643.3286.1643.4929-.1643 0 .1643.4929.1643.4929.3286 0 .3286.3286 0 .3286.1643.4929.1643 0 .3286.3286 0 0 .1643.1643.1643.1643.1643.1643.3286.1643.1643.1643.1643-.1643.3286.1643.3286 0 .3286 0 .4929 0 .4929.3286.4929.3286.6572-.1643.1643.1643.3286-.1643.1643-.1643.1643 0 .1643-.1643.3286 0 .3286 0 .1643.1643.3286 0 .1643-.6572.1643-.1643.3286-.3286.3286-.1643 0 0 .3286 0 .1643-.9858.9858.1643.3286 0-.4929.1643 0 0 .1643.1643 0 .4929.1643.3286 0 .1643 0 .8215.1643.3286 0 .1643 0 0 .1643.1643.3286 0 .1643-.1643 0 0 .1643 0 .1643-.3286.1643-.1643 0 0-.1643-.1643.1643 0 .1643-.1643.4929 0 .1643.1643.1643.3286 0 .1643-.1643.1643 0 0 .1643.1643 0 .3286.1643.3286 0 .1643.3286.1643.1643.1643 0 .1643 0 .3286.4929.1643 0 .1643.3286.1643.3286.4929-.1643.1643 0 .3286.3286.1643 0 .3286.4929.3286.6572.3286.1643 2.9574 3.286-2.6288 4.929.1643.3286-.1643.4929.4929.1643-.1643.4929.1643.3286-.3286.3286.3286.4929.1643.4929.3286.4929 0 .1643-.1643.4929 0 .3286.1643.6572.3286.4929 1.1501 0 .8215.1643.3286-.4929.3286.3286.4929 0 .4929.4929 0 .4929.1643.6572.3286.4929.1643.4929.3286 0 .3286.3286.6572 0 .1643.1643.4929.1643.3286.4929.8215.1643.6572-.1643.6572.8215 2.6288-2.3002.3286.4929.6572.1643.6572-.1643.1643.1643.1643.3286 0 1.8073-.1643.6572-.3286.4929.1643.6572.4929.8215.4929 1.3144.8215.3286.6572.4929.1643.4929.4929.9858.3286.8215.9858.6572.8215.1643.1643 0 .4929-.1643.4929.9858.4929.3286.4929 0 .3286.4929-.1643.8215-.1643.4929-.1643.4929.1643.4929.3286-.4929.6572.1643.9858-.1643.6572-.3286 1.1501 0 1.4787.3286.3286 0-.1643-.4929 0-.4929.1643-.1643.9858 0 .4929 0 .3286.1643.3286.4929.4929 1.3144-.1643.6572.1643.4929.3286.6572 1.4787 1.8073.3286.4929 1.8073 1.8073.6572.6572.4929.3286 0 .9858.8215 1.3144 1.1501.9858 1.3144.1643.6572.1643.6572.4929.1643.3286.4929 1.3144 0 .4929-.1643.9858 0 .4929.1643.6572 0 .1643 0 .1643.6572.8215-.3286.4929-.1643.3286-1.8073.8215-.1643.1643.4929.4929.1643.4929-.1643.3286-.4929 0 0 .1643.1643.6572-.3286.6572-.8215.1643.8215 1.1501.4929.1643 1.1501-.8215 2.1359-.3286-.3286-1.4787.1643-.3286.1643-.3286.1643 0 .1643 0 .1643.1643.1643.1643.1643 0 .1643-.1643.1643 0 0-.1643.1643 0 .1643.1643.3286.1643.3286 0 .1643 0 0 .1643 0 .3286.1643.3286.4929.3286.1643.1643.1643.1643 0 .1643-.1643.1643-.1643.1643.1643.4929.1643.3286.1643 0 .3286.1643.4929.1643.1643.1643.4929.1643.3286.1643.4929-.3286.1643-.3286.1643-.4929 0-.1643.1643-.1643.1643 0 .1643.3286.3286.3286.1643.1643-.1643.3286-.1643.1643.1643.3286 0 .1643.4929.1643.3286 0 .4929.6572.3286 0 .1643 0 .1643.1643 0 .1643.1643.3286 0 .1643.1643.1643.1643.1643.3286 0 0 .3286.1643.1643.3286.1643.3286.6572.3286.1643.4929.1643.3286 0 .1643 0 .1643.4929.1643.3286 0 .3286 0 .1643 0 .4929 0 .1643.1643 0 .4929 0 .1643-.1643.1643 0 .1643-.1643.1643 0 .1643-.1643.1643-.1643.1643 0 .3286.1643.1643 0 0 .1643 0 .1643 0 .1643.1643.3286.1643.1643 0 .1643 0 .1643-.1643.1643.1643.1643 0 .3286.1643.4929.1643 0 0 .1643.3286.1643 0 .3286 0 .3286.1643.1643.1643.1643 0 .1643 0 .1643 0 .1643.4929.1643.1643.1643 0 .1643 0 .1643 0 .1643 0 .1643.1643 0 .3286.1643 0 .1643.1643.1643.3286 0 .1643 0 .3286 0 .1643 0 .3286 0 .3286.8215 0 .1643.1643.1643 0 .1643 0 .1643.1643.1643-.1643.1643 0 .3286-.1643 0 .1643.3286.1643.1643 0 .1643.1643.3286.1643.1643-.1643.1643 0 .1643.1643.1643.3286.1643.1643.1643.1643.1643.3286.1643.1643 0 .4929 0 .1643.3286-.1643.8215-1.3144 2.4645-.6572.1643-.3286-.1643-.4929.1643-.1643-.1643 0 .1643-.3286.1643-1.4787.1643-1.1501.4929-.4929-.1643-.3286.1643-1.1501-.6572-.6572-1.643-.8215-.1643-.1643 0-.1643 0-.3286.3286-1.643.1643-1.3144.9858-1.3144 0-.4929-.1643-.1643.1643-.9858-.1643-.3286-.1643-.1643 0-1.4787 1.4787-1.9716 1.4787-1.1501.4929-.6572.9858-.9858 2.7931-.8215.9858-3.7789.6572-.9858.6572-1.643.1643-.6572 2.1359-2.3002 1.643-.4929.8215-3.286 1.8073-.4929 0-.4929-.6572-.4929-.4929-.4929-.4929-1.4787-.6572-1.4787-.3286-.4929.1643-.6572.1643-.4929 1.3144-.4929.4929.3286 1.3144 1.1501 1.4787 2.4645 1.4787.9858 2.4645.6572.6572 0 1.9716-.6572 1.643.3286.8215.9858.8215-.1643.8215-1.643 2.7931-1.4787 1.8073-.3286.6572-.3286.4929-.6572 1.4787-.8215 1.1501-1.1501.6572-1.643.1643-1.4787 2.7931-1.1501.9858-1.643.6572-2.6288.3286-1.1501.4929-1.643 1.3144-.4929 2.6288-.6572.8215-.4929.1643 0-.1643-.1643 0 0 .1643-.6572-.4929 0-1.1501-.9858-.3286.1643-.8215-1.8073.4929-.4929-.1643-.3286.1643-1.643-.3286-1.4787-.4929 0-.1643-.1643 0-.6572 0z" 
    style="fill:#c1e0b2;fill-opacity:1;stroke:#000000;stroke-width:1px;stroke-linecap:butt;stroke-linejoin:miter;stroke-opacity:1">
  </path></g>
  </svg>