<svg xmlns="http://www.w3.org/2000/svg" version="1.1" baseProfile="full" width="800" height="533" style="background-color:#e0f2f1"><path d="M 562.4421 231.8621 L 561.2685 234.2419 L 556.2508 237.0745 L 556.0151 243.9901 L 554.58 251.4679 L 554.5134 262.1267 L 553.0014 266.3379 L 551.7458 268.1539 L 553.3397 269.4438 L 558.2907 275.876 L 564.6767 280.0052 L 567.2035 283.9636 L 569.1255 288.5234 L 569.4279 292.4715 L 568.5207 300.1953 L 566.486 302.1275 L 562.9188 303.7676 L 555.5948 308.1753 L 550.8796 309.0705 L 549.0089 310.907 L 540.7931 323.8773 L 539.9474 326.305 L 540.0499 337.9393 L 540.9827 342.892 L 546.272 352.5206 L 551.4024 358.577 L 554.2161 360.5468 L 558.6648 365.5986 L 564.7126 376.1224 L 567.0344 379.1668 L 568.9512 383.665 L 569.5662 389.6753 L 567.3726 387.7772 L 563.6876 390.2578 L 562.1397 394.6194 L 558.793 398.2566 L 554.211 402.5738 L 548.8295 406.0573 L 544.8523 406.5595 L 541.7105 405.637 L 534.6684 401.0499 L 529.4714 399.3671 L 524.8075 400.3699 L 517.4117 408.0749 L 513.291 410.6614 L 505.6903 411.5037 L 501.7131 415.9011 L 498.802 419.3863 L 495.5987 424.8054 L 494.3327 429.946 L 494.794 433.3048 L 499.2837 434.0308 L 503.8196 439.2637 L 506.1106 444.7426 L 506.7973 449.9567 L 506.0491 457.1132 L 504.3218 461.4304 L 492.3185 470.2885 L 487.3214 473.1809 L 481.0071 475.2771 L 473.8266 476.0562 L 463.2584 476.1997 L 454.0432 479.7019 L 446.3656 468.1991 L 444.6999 461.9139 L 438.3651 455.2938 L 430.9437 452.615 L 426.0337 452.1349 L 422.1539 449.275 L 418.2638 442.2876 L 415.7371 435.9101 L 413.9227 428.253 L 411.6984 424.1784 L 410.8989 418.7781 L 412.1033 412.8397 L 415.0093 403.2008 L 412.2263 399.9855 L 403.3545 392.8273 L 400.4434 387.9822 L 391.3717 379.5443 L 388.0044 379.2129 L 380.9469 385.2949 L 375.4424 384.058 L 370.6657 380.7266 L 364.9459 372.3263 L 355.8742 367.9083 L 353.204 367.8656 L 346.7769 359.3919 L 342.8202 360.0906 L 339.9603 364.6589 L 341.4774 368.9129 L 346.0389 371.9675 L 350.3389 376.1139 L 350.0263 381.5603 L 346.4079 384.7755 L 336.1471 379.992 L 326.9166 376.3838 L 321.4992 373.0062 L 305.4828 385.5016 L 297.8205 383.3422 L 290.7221 380.4498 L 281.1994 384.3553 L 273.7934 381.7926 L 271.2871 383.2516 L 266.6437 387.6525 L 261.6465 389.6035 L 257.9102 384.8199 L 261.7081 376.2146 L 259.5913 372.2716 L 248.1005 360.1624 L 246.4451 354.8765 L 233.5961 346.6642 L 230.4389 323.8073 L 231.8586 315.8427 L 242.0681 316.9907 L 245.1484 314.9902 L 249.2383 305.8911 L 260.683 274.4341 L 271.2564 278.8042 L 273.6704 278.7598 L 278.196 274.1573 L 282.455 274.2547 L 291.3986 282.4773 L 292.9567 281.9409 L 298.2818 274.417 L 287.7392 260.4251 L 287.2523 256.8425 L 291.0245 246.1479 L 295.4783 241.4822 L 304.0887 240.862 L 307.2459 239.0272 L 306.3746 233.3655 L 308.0095 229.3268 L 309.091 223.8274 L 311.9252 218.0957 L 312.1815 213.758 L 309.7367 209.8269 L 303.2226 203.3162 L 309.5369 185.9125 L 308.5528 181.3955 L 309.3062 176.7845 L 307.374 172.7714 L 301.1725 165.1672 L 306.7897 152.2602 L 305.042 148.23 L 303.9452 139.963 L 304.4526 133.3702 L 300.6753 125.8634 L 300.6035 120.8031 L 303.9247 110.4757 L 307.9019 113.1802 L 312.9759 111.0669 L 314.4725 101.8329 L 316.3688 100.6319 L 322.9086 106.5156 L 325.0048 105.863 L 328.9462 96.1268 L 331.5959 93.9947 L 335.7781 93.9229 L 347.1357 97.4166 L 355.3156 95.8022 L 359.2517 96.5026 L 363.8696 96.0465 L 367.9852 81.7265 L 376.1087 63.4431 L 386.7897 63.6122 L 389.7982 57.3338 L 393.637 53.3019 L 398.6751 62.1635 L 409.4945 64.1145 L 414.6505 67.6885 L 416.3777 69.7642 L 429.032 70.4288 L 433.4294 76.6098 L 433.7677 81.8051 L 432.5735 88.9412 L 436.1919 91.6763 L 438.3292 90.9588 L 443.8849 85.6029 L 449.8969 77.5477 L 453.2488 74.693 L 466.0465 73.1964 L 468.2145 69.1492 L 472.6632 70.4647 L 476.7993 70.832 L 480.2588 72.6497 L 482.2987 75.0603 L 484.7434 79.7977 L 484.1694 88.4321 L 488.6745 97.3995 L 486.2041 116.9079 L 473.4166 115.2388 L 473.3039 126.9466 L 474.9696 133.2267 L 478.8442 138.4852 L 482.7138 140.4738 L 485.8043 141.1452 L 489.31 140.0809 L 493.6152 140.0809 L 491.8624 143.5626 L 488.5258 145.4077 L 491.0833 148.7938 L 496.5468 153.6867 L 502.5588 165.526 L 507.8429 167.2003 L 509.5957 167.0397 L 512.7734 171.2851 L 511.8867 177.8147 L 514.7722 182.8135 L 517.2887 184.4228 L 521.6247 183.3858 L 524.8126 184.363 L 528.6719 187.7576 L 531.2448 191.6802 L 533.7459 197.1351 L 533.2334 201.5667 L 534.0688 207.4095 L 539.4759 209.8184 L 541.28 206.8902 L 545.1957 203.5844 L 548.3938 202.7421 L 555.7434 203.1453 L 559.9923 204.3532 L 558.7776 207.9733 L 557.5424 215.3075 L 558.2702 218.8645 L 562.7445 225.8775 L 562.4421 231.8621 Z" fill="#000" fill-opacity="1" stroke="#000" stroke-width="0" paint-order="fill" stroke-opacity="1" stroke-dasharray="" stroke-linecap="butt" stroke-linejoin="miter" stroke-miterlimit="10" clip-path="none" style="filter: url(&quot;#zr2322-shadow-10&quot;);"></path><path d="M 562.4421 231.8621 L 561.2685 234.2419 L 556.2508 237.0745 L 556.0151 243.9901 L 554.58 251.4679 L 554.5134 262.1267 L 553.0014 266.3379 L 551.7458 268.1539 L 553.3397 269.4438 L 558.2907 275.876 L 564.6767 280.0052 L 567.2035 283.9636 L 569.1255 288.5234 L 569.4279 292.4715 L 568.5207 300.1953 L 566.486 302.1275 L 562.9188 303.7676 L 555.5948 308.1753 L 550.8796 309.0705 L 549.0089 310.907 L 540.7931 323.8773 L 539.9474 326.305 L 540.0499 337.9393 L 540.9827 342.892 L 546.272 352.5206 L 551.4024 358.577 L 554.2161 360.5468 L 558.6648 365.5986 L 564.7126 376.1224 L 567.0344 379.1668 L 568.9512 383.665 L 569.5662 389.6753 L 567.3726 387.7772 L 563.6876 390.2578 L 562.1397 394.6194 L 558.793 398.2566 L 554.211 402.5738 L 548.8295 406.0573 L 544.8523 406.5595 L 541.7105 405.637 L 534.6684 401.0499 L 529.4714 399.3671 L 524.8075 400.3699 L 517.4117 408.0749 L 513.291 410.6614 L 505.6903 411.5037 L 501.7131 415.9011 L 498.802 419.3863 L 495.5987 424.8054 L 494.3327 429.946 L 494.794 433.3048 L 499.2837 434.0308 L 503.8196 439.2637 L 506.1106 444.7426 L 506.7973 449.9567 L 506.0491 457.1132 L 504.3218 461.4304 L 492.3185 470.2885 L 487.3214 473.1809 L 481.0071 475.2771 L 473.8266 476.0562 L 463.2584 476.1997 L 454.0432 479.7019 L 446.3656 468.1991 L 444.6999 461.9139 L 438.3651 455.2938 L 430.9437 452.615 L 426.0337 452.1349 L 422.1539 449.275 L 418.2638 442.2876 L 415.7371 435.9101 L 413.9227 428.253 L 411.6984 424.1784 L 410.8989 418.7781 L 412.1033 412.8397 L 415.0093 403.2008 L 412.2263 399.9855 L 403.3545 392.8273 L 400.4434 387.9822 L 391.3717 379.5443 L 388.0044 379.2129 L 380.9469 385.2949 L 375.4424 384.058 L 370.6657 380.7266 L 364.9459 372.3263 L 355.8742 367.9083 L 353.204 367.8656 L 346.7769 359.3919 L 342.8202 360.0906 L 339.9603 364.6589 L 341.4774 368.9129 L 346.0389 371.9675 L 350.3389 376.1139 L 350.0263 381.5603 L 346.4079 384.7755 L 336.1471 379.992 L 326.9166 376.3838 L 321.4992 373.0062 L 305.4828 385.5016 L 297.8205 383.3422 L 290.7221 380.4498 L 281.1994 384.3553 L 273.7934 381.7926 L 271.2871 383.2516 L 266.6437 387.6525 L 261.6465 389.6035 L 257.9102 384.8199 L 261.7081 376.2146 L 259.5913 372.2716 L 248.1005 360.1624 L 246.4451 354.8765 L 233.5961 346.6642 L 230.4389 323.8073 L 231.8586 315.8427 L 242.0681 316.9907 L 245.1484 314.9902 L 249.2383 305.8911 L 260.683 274.4341 L 271.2564 278.8042 L 273.6704 278.7598 L 278.196 274.1573 L 282.455 274.2547 L 291.3986 282.4773 L 292.9567 281.9409 L 298.2818 274.417 L 287.7392 260.4251 L 287.2523 256.8425 L 291.0245 246.1479 L 295.4783 241.4822 L 304.0887 240.862 L 307.2459 239.0272 L 306.3746 233.3655 L 308.0095 229.3268 L 309.091 223.8274 L 311.9252 218.0957 L 312.1815 213.758 L 309.7367 209.8269 L 303.2226 203.3162 L 309.5369 185.9125 L 308.5528 181.3955 L 309.3062 176.7845 L 307.374 172.7714 L 301.1725 165.1672 L 306.7897 152.2602 L 305.042 148.23 L 303.9452 139.963 L 304.4526 133.3702 L 300.6753 125.8634 L 300.6035 120.8031 L 303.9247 110.4757 L 307.9019 113.1802 L 312.9759 111.0669 L 314.4725 101.8329 L 316.3688 100.6319 L 322.9086 106.5156 L 325.0048 105.863 L 328.9462 96.1268 L 331.5959 93.9947 L 335.7781 93.9229 L 347.1357 97.4166 L 355.3156 95.8022 L 359.2517 96.5026 L 363.8696 96.0465 L 367.9852 81.7265 L 376.1087 63.4431 L 386.7897 63.6122 L 389.7982 57.3338 L 393.637 53.3019 L 398.6751 62.1635 L 409.4945 64.1145 L 414.6505 67.6885 L 416.3777 69.7642 L 429.032 70.4288 L 433.4294 76.6098 L 433.7677 81.8051 L 432.5735 88.9412 L 436.1919 91.6763 L 438.3292 90.9588 L 443.8849 85.6029 L 449.8969 77.5477 L 453.2488 74.693 L 466.0465 73.1964 L 468.2145 69.1492 L 472.6632 70.4647 L 476.7993 70.832 L 480.2588 72.6497 L 482.2987 75.0603 L 484.7434 79.7977 L 484.1694 88.4321 L 488.6745 97.3995 L 486.2041 116.9079 L 473.4166 115.2388 L 473.3039 126.9466 L 474.9696 133.2267 L 478.8442 138.4852 L 482.7138 140.4738 L 485.8043 141.1452 L 489.31 140.0809 L 493.6152 140.0809 L 491.8624 143.5626 L 488.5258 145.4077 L 491.0833 148.7938 L 496.5468 153.6867 L 502.5588 165.526 L 507.8429 167.2003 L 509.5957 167.0397 L 512.7734 171.2851 L 511.8867 177.8147 L 514.7722 182.8135 L 517.2887 184.4228 L 521.6247 183.3858 L 524.8126 184.363 L 528.6719 187.7576 L 531.2448 191.6802 L 533.7459 197.1351 L 533.2334 201.5667 L 534.0688 207.4095 L 539.4759 209.8184 L 541.28 206.8902 L 545.1957 203.5844 L 548.3938 202.7421 L 555.7434 203.1453 L 559.9923 204.3532 L 558.7776 207.9733 L 557.5424 215.3075 L 558.2702 218.8645 L 562.7445 225.8775 L 562.4421 231.8621 Z" fill="#e7ea18" fill-opacity="1" stroke="#000000" stroke-width="0.4" paint-order="fill" stroke-opacity="1" stroke-dasharray="" stroke-linecap="butt" stroke-linejoin="miter" stroke-miterlimit="10" clip-path="none"></path></text><defs><filter id="zr2322-shadow-10" x="-100%" y="-100%" width="1400%" height="1400%"><feDropShadow dx="-9.799999999999999" dy="9.799999999999999" flood-color="#000" stdDeviation="7 7"></feDropShadow></filter></defs><text transform="matrix(1 0 0 1 400.0027 266.5019)" style="font-family:'Tahoma'; font-size:13px;" class="maplabels1">West</text></svg>