<svg
   aria-label="Ladakh" preserveAspectRatio="xMidYMid meet" style="width: 120%; height: 120%;"
  viewBox="250 -20 500 503" xmlns="http://www.w3.org/2000/svg">
<path d="M481.4232 269.8241l-.5915 0-.1972 0-.3943-.1972-.1972-.1972-.1972-.1972-.3943-.1972-.1972-.1972 0-.1972.1972-.1972-.1972-.1972-.1972-.3943 0-.1972-.1972-.1972-.1972-.3943.1972 0 0-.3943.1972-.1972-.1972-.1972 0-.1972 0-.1972-.1972-.1972 0-.1972-.3943-.9858-.3943 0-.1972 0-.3943 0-.1972 0-.3943 0-.1972-.1972 0-.1972-.3943-.1972-.1972 0 0-.1972 0-.1972 0-.1972 0-.1972-.1972-.1972-.5915-.1972 0-.1972 0-.1972 0-.1972-.1972-.1972-.1972-.1972 0-.3943 0-.3943-.3943-.1972 0-.1972-.1972 0-.1972-.5915 0-.3943-.1972-.1972.1972-.1972 0-.1972 0-.1972-.1972-.1972-.1972-.3943 0-.1972 0-.1972 0-.1972-.1972 0-.3943-.1972-.1972 0-.1972.1972-.1972.1972-.1972 0-.1972.1972-.1972 0-.1972.1972-.5915 0-.1972 0 0-.1972 0-.5915 0-.1972 0-.3943-.1972-.3943-.1972-.5915-.1972 0-.3943 0-.5915-.1972-.3943-.1972-.3943-.7886-.3943-.1972-.1972-.1972 0-.3943-.3943 0-.1972-.1972-.1972-.1972 0-.1972-.1972-.3943 0-.1972-.1972-.1972-.1972 0-.3943 0-.5915-.7886-.3943 0-.5915-.1972 0-.1972-.1972-.3943.1972-.1972.1972-.3943-.1972-.1972-.3943-.3943-.1972-.3943-.1972 0-.1972.1972 0 .1972-.1972.5915-.1972.3943-.5915.3943-.3943-.1972-.5915-.1972-.1972-.1972-.5915-.1972-.3943-.1972-.1972 0-.1972-.3943-.1972-.5915.1972-.1972.1972-.1972 0-.1972-.1972-.1972-.1972-.1972-.5915-.3943-.1972-.3943 0-.3943 0-.1972-.1972 0-.3943 0-.3943-.1972-.1972-.1972-.1972 0 0 .1972-.1972 0-.1972.1972-.1972 0-.1972-.1972-.1972-.1972-.1972 0-.1972 0-.1972.3943-.1972.3943.3943 1.7744-2.5631.3943-1.3801.9858-.5915-.1972-.9858-1.3801.9858-.1972.3943-.7886-.1972-.7886 0-.1972.5915 0 .1972-.3943-.1972-.5915-.5915-.5915.1972-.1972 2.1688-.9858.1972-.3943.3943-.5915-.7886-.9858 0-.1972 0-.1972-.1972-.7886 0-.5915.1972-1.183 0-.5915-.5915-1.5773-.1972-.3943-.7886-.5915-.7886-.1972-1.5773-.1972-1.3801-1.183-.9858-1.5773 0-1.183-.5915-.3943-.7886-.7886-2.1688-2.1688-.3943-.5915-1.7744-2.1688-.3943-.7886-.1972-.5915.1972-.7886-.5915-1.5773-.3943-.5915-.3943-.1972-.5915 0-1.183 0-.1972.1972 0 .5915.1972.5915-.3943 0-1.7744-.3943-1.3801 0-.7886.3943-1.183.1972-.7886-.1972-.3943.5915-.1972-.5915.1972-.5915.1972-.5915.1972-.9858-.3943-.5915-.5915 0-.5915-.3943-.5915-1.183-.5915.1972-.1972 0-.9858-.1972-1.183-.7886-.3943-.9858-.5915-1.183-.1972-.5915-.7886-.5915-.9858-.3943-.5915-1.5773-.5915-.9858-.1972-.7886.3943-.5915.1972-.7886 0-2.1688-.1972-.3943-.1972-.1972-.7886.1972-.7886-.1972-.3943-.5915-3.1546 2.7602-.7886-.9858-.7886.1972-.9858-.1972-.3943-.5915-.5915-.1972-.1972-.1972-.7886 0-.3943-.3943-.3943 0-.1972-.5915-.3943-.5915-.1972-.7886 0-.5915-.5915-.5915-.5915 0-.3943-.3943-.3943.5915-.9858-.1972-1.3801 0-.3943-.5915-.1972-.7886 0-.3943.1972-.5915 0-.1972-.3943-.5915-.1972-.5915-.3943-.5915.3943-.3943-.1972-.3943.1972-.5915-.5915-.1972.1972-.5915-.1972-.3943 3.1546-5.9148-3.5489-3.9432-.3943-.1972-.3943-.7886-.3943-.5915-.1972 0-.3943-.3943-.1972 0-.5915.1972-.1972-.3943-.1972-.3943-.1972 0-.3943-.5915-.1972 0-.1972 0-.1972-.1972-.1972-.3943-.3943 0-.3943-.1972-.1972 0 0-.1972-.1972 0-.1972.1972-.3943 0-.1972-.1972 0-.1972.1972-.5915 0-.1972.1972-.1972 0 .1972.1972 0 .3943-.1972 0-.1972 0-.1972.1972 0 0-.1972-.1972-.3943 0-.1972-.1972 0-.3943 0-.9858-.1972-.1972 0-.3943 0-.5915-.1972-.1972 0 0-.1972-.1972 0 0 .5915-.1972-.3943 1.183-1.183 0-.1972 0-.3943.1972 0 .3943-.3943.1972-.3943.7886-.1972 0-.1972-.1972-.3943 0-.1972 0-.3943.1972-.3943 0-.1972.1972-.1972.1972-.1972-.1972-.3943.1972-.1972-.3943-.7886-.3943-.5915 0-.5915 0-.5915 0-.3943-.1972-.3943.1972-.3943-.1972-.1972-.1972-.1972-.1972-.3943-.1972-.1972-.1972-.1972 0-.1972-.3943 0 0-.3943-.5915-.1972-.3943-.1972-.3943 0 0-.3943-.5915-.3943-.5915-.1972 0-.1972-.5915.1972-.3943-.1972-.3943.1972-.1972-.1972-.1972-.7886.1972 0-.1972-.5915.1972-.5915-.3943-.1972-.3943-.1972-.5915-.1972-.1972 0 0-.1972 0-.1972-.1972-.1972-.3943-.3943-.1972-.7886-.7886-.1972-.3943.3943-.5915.1972.1972.3943.3943 0 0 .1972-.1972.1972.1972.1972-.1972.1972-.1972.1972 0 .1972-.1972.1972-.1972.1972 0 .1972.1972.1972-.1972.5915.1972.3943-.1972.3943.1972.3943.1972.1972-.5915.1972-.3943.1972.1972-.5915-.3943-.1972-.7886-.5915-.7886-.7886-.9858-.3943-.9858-.3943-1.3801-.3943-.7886-.1972-.3943 0-1.3801-.5915-1.5773-.5915-.7886-1.183-.7886-.9858-.7886-.3943-.9858 0-.5915-.3943-.9858 1.7744-.1972-1.3801.1972-.9858-.1972-.7886.1972-2.5631.5915-1.5773.5915-1.5773-2.1688-.7886-2.1688-1.9716-1.5773-.5915-2.9574-2.7602-.5915-.9858-.7886.5915-.3943.3943-.7886.1972-1.183.7886-2.5631.9858-2.3659 2.1688-1.5773 0-.5915-.3943-.9858-1.3801-.5915-.5915-1.183-.1972-2.3659-.9858-3.1546-.5915-1.3801.1972-2.5631-.3943-1.183.1972-3.9432 1.183-.1972 0-2.3659-2.1688-1.5773.5915-1.183-.1972-.9858-.9858-.5915-1.183-2.1688.5915-2.1688-2.5631-2.9574.1972-.7886-1.183-2.1688-.9858-1.7744 0-1.5773 1.3801-.9858.3943-.7886-.7886.5915-3.746-1.3801-2.5631 0-2.3659.3943-1.5773 1.3801-2.5631 1.5773-1.7744 1.7744-.7886-.3943-2.5631 0-1.7744-1.7744-.1972-1.9716-1.5773-2.3659.1972-1.7744-1.3801-3.1546.9858-1.3801 0-1.183-.9858-1.7744.3943-.9858-.7886-4.3375.7886-1.9716-2.7602-3.3517-.7886-3.3517-2.1688-1.3801-1.3801-1.5773-.9858-1.7744-1.5773-1.183-.5915.1972-3.3517-.1972-1.5773.9858-2.9574-1.3801-.9858-1.9716-2.1688-.9858 0-.7886 1.5773-1.7744.5915-1.183-.5915-1.183.1972-1.183.7886-2.5631 0-.3943-.3943-.1972-1.9716-2.5631.1972-.9858-.5915-.5915.7886-1.3801.3943 0 .9858-1.7744.7886-1.183-.9858-1.183.3943-1.5773 1.3801-1.5773-.9858-.7886-1.3801-2.5631-.3943-1.7744-2.3659-.7886 0-1.183-.9858 0-1.9716.9858-.9858.3943-1.9716.9858 0 .3943-1.5773.7886-.3943-.5915-1.5773-1.9716-.3943-.9858-1.183 0-2.3659.7886-1.5773 1.5773-1.183-1.3801-1.9716.5915-2.1688 1.3801-1.183.3943-2.1688 2.1688-.9858 1.5773.9858.9858 0 .5915-.9858 1.3801-.1972 1.7744-1.5773 1.5773-.5915 2.3659-2.7602 1.183-1.183 1.183 0 .9858-1.183.1972-2.3659-.5915-.9858 2.5631-1.5773 1.5773-.1972 2.1688.3943-.1972-2.3659.3943-1.3801 1.183-.7886 1.9716-.5915.7886-1.7744 2.1688-3.1546-1.183-1.7744.1972-1.9716-.3943-1.183 2.3659-.3943 1.5773-1.183 2.1688-.7886.3943.9858 1.3801.1972.9858-.5915 2.9574 0 1.9716-.5915.9858.1972.3943-1.183 2.1688 0 1.5773-.7886 1.7744.9858 1.3801.1972.9858.7886.9858-.3943 2.9574.3943.9858.9858 1.9716.5915.5915-.3943 2.9574.5915.9858-1.5773 3.1546.5915 1.3801-.9858 2.9574 1.183 1.9716-.3943.3943-1.7744-.7886-1.3801-1.3801-2.1688-1.7744-.1972-1.3801-1.5773-1.7744-.1972-.7886-.7886-1.9716-.3943-.1972-.9858-.9858-1.7744-1.183-.7886.5915-1.9716 1.3801.1972 1.5773.9858.7886-.5915 1.5773.7886.9858-.1972 1.183.7886.5915-.9858 2.7602.7886.5915.7886 1.3801-.1972.7886.5915 1.3801 2.1688 1.5773.9858 1.3801-.1972 1.5773 1.3801 1.7744-1.9716 1.5773.1972 1.3801-.3943.9858-4.1404.5915-.3943 3.1546.5915 1.7744.5915.9858-.9858 1.9716-.9858 2.7602-2.9574 1.9716-.5915 1.3801-1.3801 2.5631-.1972.7886.3943 2.1688 0 1.3801 2.3659.9858 0 .9858-6.3091 2.3659-.7886.9858 0 1.9716-1.3801 1.3801.9858.3943 2.3659 1.3801.9858.9858-1.183 1.5773.3943 2.1688 0 .1972 1.9716 3.5489 5.3233 4.1404-2.7602 1.183-.3943.5915-.7886 2.1688.7886 1.5773 1.3801 1.3801-.3943 1.9716-1.183 2.5631-3.5489.5915-1.183 1.183-.1972 1.3801-.7886 1.7744.1972.9858-.3943 1.9716.1972 0 3.5489.3943 1.183 1.183 1.3801 1.5773-.5915 1.3801.7886 0 1.3801-.7886.9858.1972 2.3659 1.5773 0 .3943 1.183.3943 2.7602.9858 1.5773 2.1688.9858.9858.1972 4.5347 2.5631 2.9574 3.5489 3.9432 7.4921 1.3801 1.183 2.7602 1.3801.7886 0 4.5347 2.9574 2.9574 1.183 2.5631 0 2.7602.7886 5.1262 5.7176 2.3659.9858 1.9716 1.7744 1.7744 0 1.9716-.9858 1.183 0 1.9716 1.5773.9858 1.183 1.5773.5915.3943 1.5773.7886 1.3801-.1972 1.3801 1.9716 2.3659 3.5489 1.5773.7886 1.183 1.7744.3943 2.5631-1.183 1.183 1.7744 2.1688 1.9716.5915 2.7602 3.3517 1.9716.9858.9858.5915 1.3801-1.3801.1972-.9858.7886-1.183 2.3659-1.183 1.183 1.9716 2.3659 1.183 1.183.9858 2.9574 1.7744 1.3801 1.3801.1972 1.9716 2.1688 2.3659.9858 1.5773 0 1.9716.5915 2.7602-.3943 1.183-.9858 2.1688-.1972 1.5773 1.9716 1.183.1972.1972 2.3659 2.7602.1972.1972.9858 3.3517.1972 1.5773.7886.5915-1.3801 1.7744.1972 1.183 1.5773.9858 1.9716 1.183 0 .7886 1.3801 0 1.183-.5915.7886 1.5773 1.3801.5915.7886-.3943 1.5773.3943.7886 1.183.7886-2.7602.9858-1.3801-.5915-.9858-1.3801-1.7744-.1972-2.1688 1.183 1.3801 1.3801.1972 1.183.9858 0 .5915.9858 1.9716.1972 1.9716.7886 1.3801-.9858 2.1688-.7886 1.183.5915 1.5773-.3943 2.3659 1.183 1.9716-1.3801.9858 1.183.9858-.3943 1.9716.1972.3943-3.1546 2.3659 1.7744.7886 0 1.3801-1.183.7886.1972 1.9716 1.9716.7886-.3943 1.3801 1.183.7886-1.3801 2.7602.9858-.3943-1.5773-1.5773-1.183 1.7744-3.5489.1972-2.1688 1.183 1.5773 2.9574-.3943 1.7744 2.3659.7886-.3943 1.183.3943.7886.7886 1.3801-.9858-.1972-1.183.7886-2.9574.9858-.5915.5915-1.5773 0-1.3801 2.3659 1.3801.7886-.1972.7886-1.183 0-3.1546.5915-.5915 1.183.3943 1.9716 0 2.1688-.7886.9858-.9858.9858-2.3659 1.3801-.1972.9858.5915 2.9574.1972.9858-.1972 2.3659-1.9716 2.5631-.9858 1.9716-2.3659 1.7744 0 1.3801-.9858 3.1546 0 .3943.7886 2.5631.1972 6.112-1.7744.5915-.7886 3.5489 3.1546 2.1688 0 3.1546.7886 1.3801-.3943 2.5631-3.1546-.1972-3.9432 1.183-1.9716 1.183-.7886 3.1546-.1972 3.9432 0 1.183.9858.9858 4.1404.9858 1.183 1.7744.3943 2.7602.1972 2.9574 1.9716 1.3801.1972 3.1546 1.183.5915 0 2.5631 1.183.9858.9858 1.5773.3943 2.3659 0 2.3659.7886 1.9716.1972 1.5773-1.9716 1.5773-.9858 1.9716-.7886 2.1688.5915 1.7744 2.9574.9858 2.7602 1.3801 1.3801.3943 1.5773.9858 1.5773 5.9148 1.9716 2.5631 1.5773.9858.9858 1.183 3.746.3943 3.5489.5915 1.9716-1.7744.3943-.7886 1.5773.1972 2.9574-.9858 3.9432-1.7744 3.746-.1972 3.3517-.5915 1.183-1.9716 2.7602-.3943 1.3801.5915 5.7176-.7886 4.7318-1.183 2.7602-2.3659 5.1262-1.183 1.183-.7886 2.7602 0 5.9148-.3943.5915-2.1688.7886-1.3801.1972-2.9574.9858-1.3801-.5915-3.1546 0-1.9716 1.7744-.1972 1.183-.7886 0-1.7744 1.3801.7886.9858.1972 1.3801-.9858.1972-.5915 1.183 2.9574 2.9574 0 1.3801-.9858.9858-1.5773.3943-4.7318 0-1.5773-.5915-2.3659-.1972-1.3801.1972-2.3659.7886-1.5773.1972 1.183 1.7744 0 1.7744 1.5773.5915-.1972 1.3801.3943 1.9716-.1972 1.7744 1.7744 3.1546-.1972 2.5631-.5915.9858-1.7744 1.3801-1.3801-.3943-.5915.3943-.9858 2.9574.3943 1.5773-1.9716 2.3659-1.3801.3943-.7886.9858-.3943 1.5773 1.3801 1.3801-.1972.7886-1.183.3943-.7886-.7886-1.183-.3943-3.746-.5915-1.9716.1972-1.183-.7886-2.7602 0-.9858-1.3801-1.5773.5915 0 1.183-.7886 1.3801-2.1688.3943-2.5631-.9858-1.3801-1.183-4.5347 1.9716-1.7744 3.3517.9858.9858 1.5773 3.3517 0 .9858 2.7602 5.9148.7886 1.3801 1.3801.5915.9858-.1972.3943.9858-1.3801.3943 0 .7886-1.3801 1.9716.9858 1.3801 1.3801.5915 1.183-.7886.3943.7886 0 1.183.7886 2.9574-2.1688-.9858-2.5631.1972-.9858.7886-1.183 0-2.9574-1.3801-.3943.7886 0 2.7602.5915 1.183.7886 3.3517-.5915 1.9716 0 2.9574 1.183 1.9716 0 1.3801.9858.7886 1.183 2.5631 1.7744 0 1.9716 1.3801 2.5631 1.183 5.3233 0 2.3659-.3943 1.183.7886 1.9716.7886 1.183 0 2.3659-.5915 4.3375 1.5773-.1972 1.9716-.5915 2.1688-1.3801 1.9716-1.5773 2.9574-.5915 1.9716.9858 1.9716 0 1.183-1.5773.9858-.7886.9858.9858.9858.7886.1972 0 1.3801 1.9716.1972 2.3659 2.7602.9858 1.7744 1.7744 2.3659 2.9574 4.3375 1.7744.5915.7886.9858.5915 1.7744-2.9574 3.746-.3943.1972-2.7602 4.1404-2.5631 2.3659 0 .5915-1.183 2.1688-1.7744.1972-.7886-.3943 0-2.3659-2.9574-1.3801-1.183-.1972-.7886 1.9716-1.5773 1.9716-1.3801 0-.5915 1.5773-2.5631 1.7744-2.3659 0-.9858.5915.9858 2.1688-.3943 1.183-.9858.1972-.1972 1.3801-1.183.3943-1.9716-.1972-2.5631.7886-1.3801 2.5631-.5915-.1972-.9858-1.5773-2.9574-1.5773-2.7602-3.3517-1.5773.1972-.1972-1.5773-.7886-.9858-.7886-3.1546-.7886-1.7744 0-.9858.9858-.9858-.1972-1.9716-1.5773-2.3659.1972-1.9716-2.7602 1.7744-2.5631 0-.7886.9858-.7886 2.1688-.7886.7886-1.7744-1.183-.9858-.1972-2.1688.5915-1.7744 1.7744-1.3801-.1972-1.5773.9858-.7886 1.3801-.1972 1.183-1.183 0-.1972.1972-.1972 0-.1972.3943-1.183.7886-2.3659 2.1688-.1972 0-.3943-.3943-1.183-1.3801 1.183-1.5773-.1972-2.9574 1.183-.1972 3.746-2.9574-.9858-.7886-.1972-2.3659.1972-1.5773.5915-1.183-.5915-.9858.1972-1.7744-.3943-.1972-.5915 0-.5915 0-2.9574 1.7744.3943 1.183-.5915.7886-2.5631.7886-.7886.9858-1.183.7886-.9858 0-.1972-.1972 0-.1972-.3943-.3943-.7886-.1972-.1972 0-.1972 0-.7886.5915-.3943 1.3801-.5915.3943-.5915-.3943-.3943-.7886-.3943 0-.3943.1972-.3943.3943-.1972.3943-.3943 1.3801-1.7744-.1972.3943 1.7744-.5915.7886-2.5631 0-.3943-.1972-.1972 0-.5915-.1972-3.1546-5.7176-.7886-.7886.7886-4.1404-.1972-.5915-.3943-.3943-.1972 0-.1972 0-.1972-.1972-.3943 0-.3943 0-.7886-.9858-.3943-1.5773-.7886-.7886-.5915-.3943-.1972 0-.1972 0-.3943-.3943-.3943.1972-.1972 0-.5915-.5915-1.9716-1.183.5915-1.7744.9858-.7886-1.7744-1.3801-2.5631-2.9574-.5915.1972-.1972-.5915-.1972 0-.5915 0 0 .3943-.1972.3943-.3943.7886-1.5773.7886-1.5773.1972-1.3801 1.183-.9858.3943-1.5773 1.7744-1.5773.3943-.3943-.3943-1.5773 1.5773-.3943 0-.5915 0-.9858-.1972-.1972-.3943-.1972-.3943-.1972 0-.1972-.1972-.1972 0-.3943.1972-.3943-.1972-.3943 0-.9858 1.3801-.1972 2.1688-1.183.5915-.3943-.1972-.1972-.1972-.3943.1972-.7886-.1972-.7886-2.1688-.9858.1972-.7886-.3943-.1972-.5915-.1972.1972-.3943 0-.1972-.3943-.3943.3943-1.183-1.183.1972-.7886-2.5631-1.3801-1.3801.1972-.9858-2.7602 0-1.5773-.9858-.1972-.3943.5915-.9858.1972-.1972-.1972-.3943-.5915-.3943 0-1.183-.7886-.3943.1972-.1972 0-.1972.1972-1.183.1972-.3943-.1972-.1972-.1972-.3943-.3943-.7886-.3943-.1972-.3943-2.5631-1.5773-1.3801-2.7602-.1972-1.183-.9858-1.3801-.3943.1972-.3943.3943-.3943-.1972-.3943-.1972-.1972.1972-.9858-.5915-.1972-.9858-1.3801-1.183-.3943-1.183.3943-1.3801.7886-.5915-.3943-.7886.3943-.9858.1972-.3943-.1972 0-.1972-.1972-.3943-.1972-.1972-.3943-.5915-.1972-.5915 0-.1972 0-.1972.3943zm2.7602.1972 0 .1972.1972 0-.1972-.1972z"
      id="INLA" 
      name="Ladakh"
      style="fill:#fffff;fill-opacity:1;stroke:#000000;stroke-width:1px;stroke-linecap:butt;stroke-linejoin:miter;stroke-opacity:1"></path>
      <text transform="matrix(1 0 0 1 429.1387 152.9406)" style="font-family:'Tahoma'; font-size:13px; color:white;" class="maplabels1">Ladakh</text></svg>