<svg xmlns="http://www.w3.org/2000/svg" version="8.1" baseProfile="full" width="800" height="533" style="background-color:#e0f2f1">
<path  d="M 456.4256 403.3462 L 456.4256 403.3254 L 456.3805 403.3254 L 456.3805 403.3059 L 456.3505 403.3063 L 456.3505 403.2863 L 456.2909 403.2863 L 456.2909 403.3063 L 456.2462 403.3059 L 456.2462 403.3254 L 456.2162 403.3254 L 456.2162 403.3462 L 456.1928 403.3462 L 456.1714 403.3462 L 456.1714 403.3662 L 456.1262 403.3661 L 456.1262 403.3861 L 456.1562 403.3858 L 456.1562 403.4057 L 456.1714 403.4057 L 456.1714 403.3858 L 456.1858 403.3858 L 456.231 403.3861 L 456.231 403.3661 L 456.2765 403.3662 L 456.2765 403.3462 L 456.3053 403.3462 L 456.3053 403.3662 L 456.3957 403.3661 L 456.3957 403.3861 L 456.4256 403.3858 L 456.4256 403.4057 L 456.4412 403.4057 L 456.4412 403.4459 L 456.4552 403.4458 L 456.4552 403.4658 L 456.4704 403.4658 L 456.4704 403.4857 L 456.5004 403.4854 L 456.5004 403.5055 L 456.53 403.5055 L 456.53 403.5256 L 456.5751 403.5256 L 456.5751 403.5456 L 456.6499 403.545 L 456.6499 403.565 L 456.6647 403.565 L 456.6647 403.545 L 456.6795 403.545 L 456.6795 403.565 L 456.7394 403.565 L 456.7394 403.5852 L 456.7538 403.5852 L 456.7538 403.6053 L 456.7694 403.6053 L 456.7694 403.6254 L 456.8294 403.6254 L 456.8294 403.6053 L 456.8737 403.6053 L 456.8737 403.6254 L 456.8889 403.6253 L 456.8889 403.6452 L 456.9041 403.6452 L 456.9041 403.6851 L 456.9193 403.685 L 456.9193 403.7051 L 456.9337 403.7051 L 456.9337 403.7252 L 456.9489 403.725 L 456.9489 403.745 L 456.9337 403.7445 L 456.9337 403.8251 L 456.9189 403.8247 L 456.9189 403.8846 L 456.9041 403.8846 L 456.9041 403.924 L 456.8889 403.924 L 456.8889 403.9642 L 456.8737 403.9642 L 456.8737 404.0044 L 456.8589 404.0041 L 456.8589 404.1237 L 456.8294 404.1234 L 456.8294 404.1638 L 456.8142 404.1636 L 456.8142 404.1836 L 456.7994 404.1836 L 456.7994 404.2235 L 456.7842 404.2233 L 456.7842 404.2829 L 456.7694 404.2829 L 456.7694 404.3231 L 456.7538 404.3231 L 456.7538 404.3827 L 456.7394 404.3827 L 456.7394 404.4429 L 456.7546 404.4427 L 456.7546 404.4626 L 456.7394 404.4624 L 456.7394 404.5025 L 456.7246 404.5025 L 456.7246 404.5427 L 456.7094 404.5425 L 456.7094 404.6022 L 456.6946 404.6022 L 456.6946 404.6619 L 456.6795 404.6619 L 456.6795 404.7221 L 456.6647 404.7218 L 456.6647 404.7419 L 456.6499 404.7416 L 456.6499 404.7617 L 456.6347 404.7617 L 456.6347 404.8018 L 456.6199 404.8016 L 456.6199 404.8215 L 456.6047 404.8213 L 456.6047 404.8816 L 456.5751 404.8815 L 456.5751 404.9014 L 456.5599 404.9014 L 456.5599 404.9412 L 456.5451 404.9412 L 456.5451 405.0007 L 456.53 405.0007 L 456.53 405.0603 L 456.5156 405.0603 L 456.5156 405.1003 L 456.5004 405.1003 L 456.5004 405.1607 L 456.4852 405.1606 L 456.4852 405.2204 L 456.47 405.2203 L 456.47 405.2605 L 456.4552 405.2602 L 456.4552 405.3201 L 456.4404 405.3201 L 456.4404 405.3798 L 456.4256 405.3796 L 456.4256 405.4794 L 456.4412 405.4794 L 456.4412 405.5389 L 456.4256 405.5389 L 456.4256 405.559 L 456.4104 405.559 L 456.4104 405.5792 L 456.3961 405.5792 L 456.3961 405.5993 L 456.3657 405.5991 L 456.3657 405.6191 L 456.3805 405.6191 L 456.3805 405.6989 L 456.3657 405.6989 L 456.3657 405.7189 L 456.3505 405.7184 L 456.3505 405.8585 L 456.3357 405.8585 L 456.3357 405.8979 L 456.3209 405.8979 L 456.3209 405.9173 L 456.3053 405.9173 L 456.3053 405.9379 L 456.2909 405.9379 L 456.2909 405.9782 L 456.2757 405.978 L 456.2757 406.0179 L 456.2909 406.0176 L 456.2909 406.0974 L 456.2609 406.0974 L 456.2609 406.0773 L 456.2162 406.0773 L 456.2162 406.0176 L 456.231 406.0176 L 456.231 405.9976 L 456.2462 405.998 L 456.2462 405.958 L 456.231 405.9582 L 456.231 405.9173 L 456.2162 405.9181 L 456.2162 405.8784 L 456.1862 405.8784 L 456.1862 405.8982 L 455.9763 405.8979 L 455.9763 405.7184 L 455.9463 405.7184 L 455.9463 405.7385 L 455.932 405.7385 L 455.932 405.7788 L 455.9172 405.7786 L 455.9172 405.7985 L 455.902 405.7985 L 455.902 405.8185 L 455.872 405.8182 L 455.872 405.8383 L 455.8568 405.8383 L 455.8568 405.8979 L 455.9024 405.8979 L 455.9024 405.9173 L 455.932 405.9173 L 455.932 405.9379 L 455.9463 405.9379 L 455.9463 405.9782 L 455.9619 405.978 L 455.9619 406.0377 L 455.9767 406.0377 L 455.9767 406.1175 L 455.9919 406.1175 L 455.9919 406.1972 L 456.0067 406.1972 L 456.0067 406.2374 L 456.0367 406.2371 L 456.0367 406.2571 L 456.0515 406.2568 L 456.0515 406.2769 L 456.0967 406.2769 L 456.0967 406.2969 L 456.1562 406.2969 L 456.1562 406.3171 L 456.1714 406.3169 L 456.1714 406.3569 L 456.1862 406.3569 L 456.1862 406.3966 L 456.201 406.3966 L 456.201 406.6957 L 456.1862 406.6957 L 456.1862 406.7156 L 456.1714 406.7155 L 456.1714 406.7356 L 456.1858 406.7356 L 456.1858 406.7557 L 456.1714 406.7555 L 456.1714 406.7955 L 456.1562 406.795 L 456.1562 406.9551 L 456.1262 406.955 L 456.1262 406.9949 L 456.111 406.9939 L 456.111 407.0348 L 456.0967 407.0348 L 456.0967 407.1344 L 456.0815 407.1344 L 456.0815 407.1544 L 456.0967 407.154 L 456.0967 407.2143 L 456.0667 407.2141 L 456.0667 407.254 L 456.0515 407.2538 L 456.0515 407.2939 L 456.0367 407.2939 L 456.0367 407.3538 L 456.0219 407.3535 L 456.0219 407.5129 L 456.0067 407.5129 L 456.0067 407.5329 L 455.9919 407.5329 L 455.9919 407.5732 L 456.0067 407.573 L 456.0067 407.6528 L 455.9919 407.652 L 455.9919 407.7124 L 455.9763 407.7124 L 455.9763 407.8321 L 455.9619 407.8321 L 455.9619 407.8524 L 455.9467 407.8523 L 455.9467 407.912 L 455.932 407.912 L 455.932 407.9715 L 455.9172 407.9715 L 455.9172 407.9917 L 455.9024 407.9917 L 455.902 408.1166 L 455.7085 407.8912 L 455.5553 407.5969 L 455.5011 407.4526 L 455.4929 407.3227 L 455.4362 406.7835 L 455.5578 406.5511 L 455.3939 406.4363 L 455.2268 406.2008 L 455.1348 405.9631 L 454.8978 405.8289 L 454.722 405.9324 L 454.1096 405.814 L 454.0168 406.3271 L 453.9203 406.386 L 453.7498 407.0664 L 453.6246 407.1332 L 453.303 406.9644 L 453.043 406.3723 L 453.1186 406.147 L 453.2032 406.1368 L 453.2718 405.7291 L 453.3999 405.6876 L 453.4968 405.0969 L 453.4545 404.5679 L 453.2418 404.4882 L 453.1777 404.3748 L 452.8454 404.4329 L 452.8323 404.87 L 452.62 405.1406 L 452.5637 406.2072 L 451.9907 406.3983 L 452.13 405.3546 L 451.4745 405.2482 L 451.4646 405.3008 L 450.8564 405.3395 L 450.7007 405.9711 L 450.3709 404.9569 L 450.1438 404.8513 L 450.2666 403.4525 L 449.9852 403.4036 L 449.5302 403.4546 L 449.4394 403.6505 L 449.3326 403.7259 L 449.0513 403.6986 L 448.9301 403.7072 L 448.9449 403.939 L 448.2931 404.0059 L 448.2931 403.5428 L 448.3629 403.1696 L 448.7851 403.2464 L 448.8118 403.3627 L 449.1995 403.0254 L 449.4127 403.0303 L 449.455 402.8379 L 449.4168 402.5358 L 449.6254 402.4419 L 449.5433 402.1267 L 449.4106 402.0119 L 449.5737 401.2038 L 450.6354 401.3623 L 450.6313 401.6543 L 450.0489 401.7018 L 450.0407 403.0921 L 450.5898 403.225 L 450.7319 403.3648 L 450.9438 403.4114 L 451.3237 403.3383 L 451.4075 403.204 L 451.3587 402.4978 L 451.4387 402.3141 L 451.8367 402.1511 L 450.7159 400.6093 L 450.821 399.481 L 450.3068 399.2126 L 450.2062 399.2929 L 450.2009 399.6804 L 450.2855 400.099 L 450.3791 400.3444 L 450.1076 400.0201 L 450.0657 399.7846 L 449.9709 399.6624 L 449.6427 399.5879 L 449.3228 398.9196 L 449.2952 398.7172 L 449.4994 398.4295 L 449.5881 398.204 L 449.7121 398.2995 L 449.7791 398.1481 L 450.1277 397.8962 L 450.5799 397.7963 L 450.6001 397.4913 L 450.2411 397.1611 L 450.4543 396.5151 L 450.4452 396.3695 L 450.2165 396.1505 L 449.9569 396.1125 L 449.791 396.2316 L 449.6439 396.1779 L 449.4809 396.3134 L 449.285 396.2309 L 449.0669 396.3473 L 448.9428 396.1757 L 448.6315 396.6952 L 448.42 396.3121 L 448.3218 396.0112 L 447.8705 396.373 L 447.4926 396.2869 L 447.3924 396.1002 L 447.4971 395.3494 L 447.5041 395.3494 L 447.5 394.89 L 447.6438 394.8434 L 447.6602 394.5629 L 447.9321 394.486 L 448.3058 394.5872 L 448.5186 393.906 L 448.8225 393.8406 L 448.963 393.5299 L 449.2287 393.4409 L 449.3679 392.9816 L 450.0419 393.1122 L 450.0883 393.5694 L 449.984 394.2836 L 449.9988 394.631 L 450.2485 394.8894 L 450.5877 395.3625 L 450.6896 395.796 L 450.8112 395.9883 L 451.0293 396.0708 L 451.1742 396.1132 L 451.4092 396.1267 L 451.5652 396.0536 L 451.8388 395.9502 L 451.9558 395.8017 L 452.0499 395.3674 L 452.0573 395.3674 L 452.3633 394.7723 L 453.1691 395.3595 L 453.3284 395.8383 L 453.3194 396.0774 L 453.1379 396.3473 L 452.9259 396.4563 L 452.7793 396.7297 L 452.551 396.7291 L 452.4043 396.9759 L 451.9456 397.0562 L 451.6856 396.7011 L 451.4601 396.5984 L 451.3418 396.7003 L 451.2765 397.576 L 452.3058 398.1531 L 452.3033 398.8645 L 452.4828 399.5757 L 452.4659 400.8089 L 452.4828 401.0271 L 452.6787 401.0278 L 452.6947 400.8634 L 453.0541 400.4535 L 453.0385 400.2619 L 453.0717 399.4673 L 453.6262 399.3597 L 453.9527 399.0589 L 454.0197 398.7309 L 454.2312 398.5665 L 454.3622 398.2112 L 454.4111 398.1832 L 454.5745 398.2392 L 454.738 398.2112 L 454.9824 398.4029 L 455.2103 398.7876 L 455.3578 398.4876 L 455.4305 398.1151 L 455.472 397.4468 L 455.6252 397.0994 L 455.7673 396.9823 L 455.865 396.9272 L 456.1266 397.0096 L 456.2038 397.291 L 456.2203 397.5747 L 456.3164 398.2034 L 456.4729 398.4905 L 456.6441 398.6261 L 456.8487 398.6426 L 457.2471 398.6699 L 457.2471 398.6599 L 457.5321 398.6528 L 457.9058 398.6312 L 457.9058 398.6805 L 457.8911 398.6805 L 457.8911 398.7604 L 457.8759 398.7604 L 457.8759 398.9398 L 457.8611 398.9398 L 457.8611 398.9986 L 457.8463 398.9986 L 457.8463 399.1393 L 457.8311 399.1391 L 457.8311 399.1592 L 457.8459 399.1592 L 457.8459 399.1791 L 457.8311 399.1788 L 457.8311 399.2987 L 457.8167 399.2987 L 457.8167 399.4185 L 457.8311 399.4184 L 457.8311 399.4383 L 457.8163 399.4383 L 457.8163 399.4583 L 457.8011 399.4579 L 457.8011 399.5183 L 457.7863 399.518 L 457.7863 399.538 L 457.7711 399.5378 L 457.7711 399.5578 L 457.7863 399.5578 L 457.7863 399.5779 L 457.7711 399.5779 L 457.7711 399.6575 L 457.7563 399.6569 L 457.7563 399.7775 L 457.7416 399.7772 L 457.7416 399.837 L 457.7268 399.837 L 457.7268 399.8965 L 457.7116 399.8965 L 457.7116 399.9167 L 457.6964 399.9167 L 457.6964 399.9762 L 457.6816 399.9762 L 457.6816 400.1161 L 457.6664 400.1161 L 457.6664 400.1363 L 457.6516 400.1362 L 457.6516 400.1959 L 457.6368 400.1957 L 457.6368 400.2756 L 457.6216 400.2756 L 457.6216 400.3351 L 457.6064 400.3351 L 457.6064 400.3754 L 457.5916 400.3754 L 457.5916 400.3955 L 457.5769 400.3953 L 457.5769 400.4153 L 457.5621 400.4153 L 457.5621 400.4353 L 457.5469 400.4349 L 457.5469 400.5749 L 457.5321 400.5748 L 457.5321 400.5947 L 457.5169 400.5947 L 457.5169 400.6347 L 457.5021 400.6345 L 457.5021 400.6941 L 457.4869 400.6941 L 457.4869 400.7744 L 457.4721 400.7742 L 457.4721 400.7941 L 457.4869 400.7938 L 457.4869 400.8542 L 457.5021 400.8538 L 457.5021 400.9734 L 457.5321 400.9731 L 457.5321 400.9933 L 457.5469 400.9933 L 457.5469 401.0335 L 457.5321 401.0334 L 457.5321 401.0533 L 457.4869 401.053 L 457.4869 401.073 L 457.4274 401.073 L 457.4274 401.053 L 457.3974 401.0533 L 457.3974 401.0334 L 457.3826 401.0335 L 457.3826 401.0133 L 457.3674 401.0133 L 457.3674 400.9731 L 457.3526 400.9734 L 457.3526 400.9337 L 457.3374 400.9339 L 457.3374 400.8936 L 457.3526 400.8936 L 457.3526 400.7938 L 457.3674 400.7938 L 457.3674 400.5138 L 457.3526 400.5138 L 457.3526 400.475 L 457.3374 400.475 L 457.3374 400.455 L 457.323 400.455 L 457.323 400.4349 L 457.3078 400.4353 L 457.3078 400.4153 L 457.2926 400.4153 L 457.2926 400.3953 L 457.2627 400.3955 L 457.2627 400.3754 L 457.2475 400.3754 L 457.2475 400.3553 L 457.1879 400.3553 L 457.1879 400.3955 L 457.2031 400.3953 L 457.2031 400.4353 L 457.2179 400.4349 L 457.2179 400.475 L 457.2331 400.475 L 457.2331 400.4952 L 457.2627 400.4949 L 457.2627 400.5149 L 457.2775 400.5138 L 457.2775 400.5347 L 457.2926 400.5347 L 457.2926 400.5749 L 457.3078 400.5748 L 457.3078 400.6347 L 457.2926 400.6345 L 457.2926 400.6748 L 457.3078 400.6744 L 457.3078 400.8538 L 457.2926 400.8538 L 457.2926 400.8937 L 457.2775 400.8936 L 457.2775 400.9731 L 457.2627 400.9731 L 457.2627 400.9933 L 457.2331 400.9933 L 457.2331 400.8936 L 457.2179 400.8936 L 457.2179 400.8735 L 457.2035 400.8735 L 457.2035 400.9137 L 457.1128 400.9137 L 457.1128 400.8936 L 457.0984 400.8936 L 457.0984 400.8735 L 457.084 400.8735 L 457.084 400.8936 L 457.0536 400.8936 L 457.0536 400.9137 L 457.0388 400.9137 L 457.0388 400.9339 L 457.0236 400.9337 L 457.0236 400.9534 L 456.9637 400.9534 L 456.9637 400.9734 L 456.9489 400.9731 L 456.9489 400.9933 L 456.9337 400.9933 L 456.9337 401.0133 L 456.9189 401.0133 L 456.9189 401.0334 L 456.9041 401.0334 L 456.9041 401.0533 L 456.8889 401.053 L 456.8889 401.093 L 456.8737 401.093 L 456.8737 401.2324 L 456.8589 401.2324 L 456.8589 401.393 L 456.8441 401.3922 L 456.8441 401.4321 L 456.8589 401.432 L 456.8589 401.4119 L 456.8889 401.4119 L 456.8889 401.3723 L 456.9041 401.3723 L 456.9041 401.3522 L 456.9189 401.3523 L 456.9189 401.2725 L 456.9337 401.2725 L 456.9337 401.1729 L 456.9489 401.1729 L 456.9489 401.1331 L 456.9637 401.1333 L 456.9637 401.093 L 456.9789 401.093 L 456.9789 401.073 L 456.9932 401.073 L 456.9932 401.053 L 457.0236 401.0533 L 457.0236 401.0334 L 457.0384 401.0334 L 457.0384 401.0133 L 457.1583 401.0133 L 457.1583 401.0335 L 457.1731 401.0334 L 457.1731 401.0533 L 457.2035 401.053 L 457.2035 401.093 L 457.3078 401.093 L 457.3078 401.1132 L 457.3526 401.1129 L 457.3526 401.1331 L 457.4573 401.1331 L 457.4573 401.1529 L 457.4721 401.1527 L 457.4721 401.1928 L 457.4873 401.1928 L 457.4873 401.2128 L 457.5169 401.2128 L 457.5169 401.2527 L 457.5469 401.2527 L 457.5469 401.1928 L 457.5621 401.1928 L 457.5621 401.1729 L 457.5777 401.1735 L 457.5777 401.1527 L 457.6064 401.1527 L 457.6064 401.2526 L 457.5916 401.2526 L 457.5916 401.2725 L 457.5621 401.2725 L 457.5621 401.2926 L 457.4126 401.2926 L 457.4126 401.3324 L 457.3966 401.332 L 457.3966 401.393 L 457.3826 401.3922 L 457.3826 401.4719 L 457.3674 401.4719 L 457.3674 401.5118 L 457.3526 401.5117 L 457.3526 401.6515 L 457.3826 401.6514 L 457.3826 401.771 L 457.3674 401.7707 L 457.3674 401.8109 L 457.3526 401.8109 L 457.3526 401.831 L 457.3374 401.8308 L 457.3374 401.9107 L 457.3526 401.9107 L 457.3526 401.9305 L 457.3374 401.9305 L 457.3374 401.9506 L 457.323 401.9501 L 457.323 401.9702 L 457.3078 401.9702 L 457.3078 401.9903 L 457.2926 401.9903 L 457.2926 402.1899 L 457.3078 402.1898 L 457.3078 402.2097 L 457.2926 402.2097 L 457.2926 402.2894 L 457.2779 402.2894 L 457.2779 402.3093 L 457.2627 402.309 L 457.2627 402.3492 L 457.2475 402.3492 L 457.2475 402.3895 L 457.2331 402.3892 L 457.2331 402.4888 L 457.2179 402.4884 L 457.2179 402.5287 L 457.2035 402.5287 L 457.2035 402.5688 L 457.1879 402.5686 L 457.1879 402.6283 L 457.2035 402.6283 L 457.2031 402.7081 L 457.1879 402.708 L 457.1879 402.7476 L 457.1731 402.7483 L 457.1731 402.768 L 457.1583 402.7677 L 457.1583 402.8474 L 457.1128 402.8474 L 457.1128 402.8675 L 457.0684 402.8675 L 457.0684 402.8876 L 457.0536 402.8876 L 457.0536 402.9084 L 457.0236 402.9076 L 457.0236 402.9275 L 456.9637 402.9275 L 456.9637 402.9473 L 456.9337 402.9472 L 456.9337 402.9672 L 456.9193 402.9672 L 456.9193 402.9873 L 456.9041 402.9873 L 456.9041 403.0073 L 456.8737 403.0073 L 456.8737 402.9873 L 456.8441 402.9873 L 456.8441 402.9672 L 456.7538 402.9672 L 456.7538 402.9472 L 456.6946 402.9473 L 456.6946 402.9275 L 456.6795 402.9275 L 456.6795 402.9473 L 456.6499 402.9473 L 456.6499 402.9275 L 456.6347 402.9275 L 456.6347 402.9076 L 456.6047 402.9084 L 456.6047 402.8876 L 456.5891 402.8876 L 456.5891 402.8675 L 456.53 402.8675 L 456.53 402.8474 L 456.4704 402.8476 L 456.4704 402.8277 L 456.4404 402.8277 L 456.4404 402.8077 L 456.3053 402.808 L 456.3053 402.7877 L 456.2897 402.7878 L 456.2765 402.7877 L 456.2765 402.7677 L 456.231 402.7677 L 456.231 402.7877 L 456.2162 402.7877 L 456.2162 402.7677 L 456.1414 402.768 L 456.1414 402.7483 L 456.0667 402.7479 L 456.0667 402.7281 L 455.9919 402.7281 L 455.9919 402.708 L 455.932 402.708 L 455.932 402.7281 L 455.902 402.7281 L 455.902 402.7479 L 455.8872 402.7483 L 455.8872 402.768 L 455.8568 402.7677 L 455.8568 402.7877 L 455.7677 402.7877 L 455.7677 402.808 L 455.7377 402.8077 L 455.7377 402.8277 L 455.7077 402.8277 L 455.7077 402.8476 L 455.6777 402.8474 L 455.6777 402.8675 L 455.6477 402.8675 L 455.6477 402.8876 L 455.633 402.8876 L 455.633 402.9076 L 455.543 402.9076 L 455.543 402.9275 L 455.5282 402.9275 L 455.5282 402.9672 L 455.5134 402.9672 L 455.5134 402.9873 L 455.5282 402.9873 L 455.5282 403.0073 L 455.5134 403.0072 L 455.5134 403.0471 L 455.4531 403.0469 L 455.4531 403.0671 L 455.3787 403.0671 L 455.3787 403.087 L 455.4235 403.087 L 455.4235 403.1069 L 455.4387 403.1069 L 455.4387 403.1268 L 455.543 403.1266 L 455.543 403.1466 L 455.5882 403.1466 L 455.5882 403.1266 L 455.603 403.1268 L 455.603 403.1069 L 455.633 403.1069 L 455.633 403.087 L 455.6477 403.087 L 455.6477 403.0469 L 455.6777 403.0469 L 455.6777 403.0269 L 455.6921 403.0269 L 455.6921 402.9873 L 455.7077 402.9873 L 455.7077 402.9672 L 455.7377 402.9672 L 455.7377 402.9472 L 455.7525 402.9473 L 455.7525 402.9275 L 455.7972 402.9275 L 455.7972 402.9076 L 455.8124 402.9084 L 455.8124 402.8876 L 455.8272 402.8876 L 455.8272 402.8675 L 455.8424 402.8675 L 455.8424 402.8474 L 455.8568 402.8474 L 455.8568 402.8675 L 455.9172 402.8675 L 455.9172 402.9084 L 455.902 402.9076 L 455.902 402.9275 L 455.932 402.9275 L 455.932 402.9473 L 455.9767 402.9473 L 455.9767 402.9275 L 456.0215 402.9275 L 456.0215 402.9473 L 456.0667 402.9473 L 456.0667 402.9275 L 456.0815 402.9277 L 456.0815 402.8675 L 456.0967 402.8675 L 456.0967 402.8474 L 456.1262 402.8476 L 456.1262 402.8277 L 456.1414 402.8277 L 456.1414 402.8476 L 456.1562 402.8476 L 456.1562 402.8277 L 456.1862 402.8277 L 456.1862 402.8476 L 456.231 402.8474 L 456.231 402.8675 L 456.2462 402.8675 L 456.2462 402.8876 L 456.2609 402.8876 L 456.2609 402.9084 L 456.2696 402.9079 L 456.2757 402.9076 L 456.2757 402.9275 L 456.3357 402.9275 L 456.3357 402.9473 L 456.3961 402.9472 L 456.3961 402.9672 L 456.4104 402.9672 L 456.4104 402.9873 L 456.4412 402.9873 L 456.4404 403.0072 L 456.4704 403.0072 L 456.4704 403.0272 L 456.5004 403.0269 L 456.5004 403.0469 L 456.53 403.0469 L 456.53 403.087 L 456.5451 403.087 L 456.5451 403.1069 L 456.5751 403.1069 L 456.5751 403.1268 L 456.5891 403.1266 L 456.5891 403.1466 L 456.6795 403.1466 L 456.6795 403.1667 L 456.6946 403.1667 L 456.6946 403.1867 L 456.7094 403.1867 L 456.7094 403.2066 L 456.7394 403.2061 L 456.7394 403.2263 L 456.7694 403.2263 L 456.7694 403.2464 L 456.7842 403.2464 L 456.7842 403.2665 L 456.8142 403.2665 L 456.8142 403.3059 L 456.8294 403.3059 L 456.8294 403.3254 L 456.8589 403.3254 L 456.8589 403.3662 L 456.9041 403.3661 L 456.9041 403.3861 L 456.9337 403.3858 L 456.9337 403.4459 L 456.9189 403.4458 L 456.9189 403.4658 L 456.8741 403.4658 L 456.8741 403.4458 L 456.8441 403.4459 L 456.8441 403.4259 L 456.7842 403.4259 L 456.7842 403.4459 L 456.6795 403.4459 L 456.6795 403.4259 L 456.6199 403.4259 L 456.6199 403.4057 L 456.5599 403.4057 L 456.5599 403.3858 L 456.5451 403.3861 L 456.5451 403.3661 L 456.47 403.3662 L 456.47 403.3462 L 456.4256 403.3462 Z" fill="#8cd5f7" fill-opacity="1" stroke="#000000" stroke-width="0.4210526368624617" paint-order="fill" stroke-opacity="1" stroke-dasharray="" stroke-linecap="butt" stroke-linejoin="miter" stroke-miterlimit="10" transform="matrix(0.949999988079071,0,0,0.949999988079071,19.999988555908203,13.325004577636719)" clip-path="none"></path>
<text transform="matrix(1 0 0 1 417.624 368.8466)" style="font-family:'Tahoma'; font-size:13px;" class="maplabels1">Puducherry</text></svg>