<svg width="1500" height="2000" viewBox="0 0 1500 2000" fill="none" xmlns="http://www.w3.org/2000/svg">
<g clip-path="url(#clip0_6_49143)">
<rect width="1500" height="2000" transform="translate(1500 2000) rotate(-180)" fill="#FFBAB8"/>
<path d="M73.2715 2134.33C58.544 1979.36 176.364 1858.36 188.511 1712.77C194.622 1639.86 197.507 1595.76 162.851 1530.13C120.567 1450.09 52.6606 1261.79 152.109 1203.87C342.466 1092.97 544.666 1490.43 688.677 1264.18C753.433 1162.43 753.015 1030.99 821.301 925.97C901.998 801.897 1050.49 747.204 1192.9 805.161C1339 864.636 1409.34 1024.35 1408.92 1173.7C1408.43 1352.66 1386.03 1522.84 1463.47 1691.93C1537.64 1853.88 1697.36 1914.01 1765.23 2081.2C1832.83 2247.74 1751.37 2448.75 1582.65 2516.65C1295.43 2632.26 1028.81 2447.42 890.801 2206.86C838.685 2116.04 727.622 2134.6 646.279 2187.09C527.965 2263.42 423.582 2324.9 279.077 2333.9C162.51 2341.11 83.634 2243.34 73.2715 2134.33Z" fill="#FF8F8F"/>
<path d="M971.842 606.192C1085.4 597.618 1178.14 451.29 1102.65 352.121C1036.51 265.202 893.242 217.992 836.896 333.288C779.783 450.116 813.877 618.135 971.842 606.192Z" fill="#3A489E"/>
<path d="M1440.48 606.493C1626.41 563.212 1316.4 351.963 1358.46 568.163C1364.18 597.51 1388.11 618.64 1440.48 606.493Z" fill="#61568C"/>
<path d="M1416.13 892.619C1533.98 857.861 1479.21 712.248 1390.86 675.602C1219.27 604.301 1249.89 941.565 1416.13 892.619Z" fill="#FF7A42"/>
<path d="M931.567 0C916.306 103.353 992.507 223.856 1097.24 232.277C1071.52 198.183 1043.75 127.954 1026.24 104.323C1006.19 77.2216 969.489 24.7027 931.567 0Z" fill="#F5EFDF"/>
<path d="M695.211 2031.66C824.665 2070.63 861.78 1793.83 702.473 1839.96C612.49 1866.12 600.923 2003.31 695.211 2031.66Z" fill="#3A489E"/>
<path d="M263.036 2058.59C377.51 2051.2 472.366 1970.69 545.096 1888.53C610.193 1815.01 669.365 1757.35 771.605 1775.81C879.805 1795.35 897.573 1802.78 962.199 1793.7C999.335 1788.47 1030.83 1772.03 1057.16 1748.91C1015.01 1762.78 974.053 1749.9 928.309 1713.8C872.57 1669.89 827.359 1637.08 757.741 1618.09C673.456 1595.13 603.682 1601.35 544.315 1674.21C489.44 1741.56 457.699 1814.51 375.166 1858.79C282.53 1908.49 178.96 1886.52 80.5749 1902.23C38.2715 1908.96 -4.16948 1922.33 -44.6621 1934.5C-60.0245 1939.09 -73.663 1941.38 -87.1168 1942.3C-55.1037 1952.91 -23.9657 1974.08 0.920229 1988.5C77.084 2032.64 170.715 2064.53 263.036 2058.59Z" fill="#FF7A42"/>
<path d="M114.026 1821.41C96.3581 1841.52 31.364 1932.01 -24.8303 1983.54C-6.13932 1982.64 12.2715 1983.15 26.4692 1982.59C130.417 1978.31 222.062 2012.57 326.232 1983.97C449.584 1950.13 517.573 1822.2 580.609 1723.44C611.656 1674.8 638.604 1642.45 693.752 1625.66C758.145 1606.01 798.654 1631.51 860.847 1633.78C930.085 1636.33 968.403 1598.8 1003.93 1543.38C1035.97 1493.36 1056.79 1459.07 1082.63 1426.95C1070.08 1429.08 1056.67 1430.97 1041.86 1432.98C983.472 1440.86 940.748 1484.96 879.099 1489.41C784.933 1496.26 707.792 1405.19 614.746 1462.69C519.846 1521.33 467.196 1632.66 370.953 1689.78C277.406 1745.18 194.072 1730.19 114.026 1821.41Z" fill="#F1B062"/>
<path d="M432.577 1205.73C404.518 1251.66 431.854 1246.72 403.294 1290.55C346.547 1377.64 215.868 1484.61 141.845 1553.89C66.6055 1624.31 54.5467 1727.08 38.9358 1822.02C31.6153 1866.46 18.3434 1926.82 -4.308 1983.08C58.0132 1937.79 119.227 1872.21 146.378 1837.15C214.207 1749.54 216.897 1644.58 307.252 1567.66C349.871 1531.39 398.276 1512.2 440.852 1475.83C497.951 1427.02 501.309 1399.81 512.929 1329.7C532.014 1214.34 608.544 1120.15 709.644 1068.41C738.948 1053.38 763.963 1034.47 789.442 1015.8C762.753 1012.96 735.994 1007.07 707.086 1011.75C646.967 1021.54 609.256 1047.29 562.181 1082.71C516.608 1116.86 463.127 1155.64 432.577 1205.73Z" fill="#FF7A42"/>
<path d="M218.553 881.235C157.622 952.081 29.4746 1037.09 81.8004 1140.71C119.758 1215.82 75.7328 1280.26 21.2447 1343.55C-35.2547 1409.27 -89.0685 1455.64 -99.0253 1547.11C-105.576 1607.56 -90.4389 1672.35 -65.6211 1727.92C-38.0278 1789.76 14.35 1890.21 5.89097 1970.07C63.4034 1920.14 91.9551 1846.58 86.0265 1759.83C79.36 1662.79 29.9671 1570.18 71.5903 1475.61C106.275 1396.84 185.788 1351.04 213.005 1269.67C238.529 1193.33 198.318 1117.86 217.487 1038.05C245.875 919.444 368.355 851.102 370.036 724.951C370.602 680.731 346.942 622.889 349.428 572.382C325.412 603.03 307.437 632.169 302.393 671.718C291.934 754.416 276.301 814.064 218.553 881.235Z" fill="#F1B062"/>
<path d="M172.714 421.156C158.168 390.533 136.681 363.533 119.94 334.39C110.6 318.211 98.8102 293.1 84.8766 271C62.8789 351.182 86.2546 470.919 106.415 529.511C129.433 596.321 167.968 634.702 219.67 672.93C219.21 662.365 219.364 652.31 219.006 644.195C216.199 572.128 204.103 487.2 172.714 421.156Z" fill="#FF8F8F"/>
<path d="M425.736 436.211C596.817 446.113 534.907 176.884 392.356 240.835C307.428 278.91 331.008 430.75 425.736 436.211Z" fill="#61568C"/>
<path d="M716.898 770.496C774.98 789.227 840.36 702.41 770.896 676.329C726.289 659.589 652.487 749.672 716.898 770.496Z" fill="#FF7A42"/>
<path d="M596.137 708.334C736.647 675.618 502.379 516.02 534.176 679.395C538.514 701.546 556.582 717.521 596.137 708.334Z" fill="#3A489E"/>
<path d="M629.01 911.518C714.806 886.202 674.944 780.246 610.636 753.553C485.744 701.646 508.048 947.143 629.01 911.518Z" fill="#61568C"/>
<path d="M1009.86 1150.47C1100.56 1132.15 1033.49 953.208 952.289 1032.47C906.405 1077.33 943.817 1163.79 1009.86 1150.47Z" fill="#3A489E"/>
<path d="M1152.77 987.149C1243.47 968.826 1176.4 789.884 1095.2 869.147C1049.31 914.01 1086.67 1000.47 1152.77 987.149Z" fill="#F5EFDF"/>
<path d="M1214.15 372.392C1298.02 310.101 1329.35 171.011 1261.24 90.9999C1255.33 133.297 1225.3 202.59 1220.97 231.678C1216.02 265.061 1204.84 328.146 1214.15 372.392Z" fill="#F5EFDF"/>
<path d="M1313.83 1208.97C1248.93 1290.85 1254.67 1433.31 1341.16 1492.97C1335.93 1450.58 1347 1375.88 1343.66 1346.66C1339.79 1313.13 1334.27 1249.3 1313.83 1208.97Z" fill="#F5EFDF"/>
</g>
<defs>
<clipPath id="clip0_6_49143">
<rect width="1500" height="2000" fill="white" transform="translate(1500 2000) rotate(-180)"/>
</clipPath>
</defs>
</svg>
