<svg width="1500" height="2000" viewBox="0 0 1500 2000" fill="none" xmlns="http://www.w3.org/2000/svg">
<g clip-path="url(#clip0_5_20157)">
<rect width="1500" height="2000" transform="translate(1500 2000) rotate(-180)" fill="#F7F1EE"/>
<path d="M713.721 1274.86C722.858 1268.7 731.935 1262.47 732.238 1262.29C774.233 1259.87 807.03 1259.56 839.464 1255.88C910.867 1247.71 982.391 1239.61 1053.31 1228C1090.16 1222.01 1125.74 1208.65 1161.93 1198.61C1161.14 1194.68 1160.35 1190.75 1159.57 1186.82C1021.78 1186.82 883.939 1186.16 746.155 1187.67C729.817 1187.85 713.54 1199.7 692.3 1208.11C654.844 1201.45 607.887 1193.17 559.296 1184.58C564.077 1175.7 568.071 1168.32 573.638 1157.98C560.325 1147.09 546.71 1136.03 533.095 1124.9C533.458 1120.85 533.821 1116.8 534.184 1112.81C586.285 1110.57 638.506 1109.91 690.424 1105.73C745.671 1101.32 800.676 1093.52 855.802 1087.23L858.222 1086.38L854.228 1087.29C833.352 1082.76 812.536 1075.14 791.539 1074.29C742.464 1072.36 693.268 1073.69 644.133 1073.69C641.108 1067.22 638.143 1060.75 635.117 1054.28C646.07 1049.01 656.962 1043.69 680.016 1032.57C646.735 1022.83 625.556 1016.66 602.865 1010.01C595.18 985.281 595.18 985.281 616.359 927.716C634.936 918.767 652.665 910.18 678.141 897.905C658.111 875.29 643.165 858.359 625.314 838.223C636.569 824.255 647.461 810.65 660.29 794.686C637.84 776.425 615.269 758.103 590.944 738.33C576.179 737.604 560.083 736.878 549.615 736.395C535.879 709.547 524.26 686.871 509.738 658.512C539.63 652.404 562.564 647.688 589.673 642.125C587.071 633.417 584.711 625.556 580.778 612.193C632.697 582.926 691.151 571.014 749.423 559.888C913.711 528.505 1077.03 560.191 1242.53 576.577C1152 595.927 1061.48 615.216 965.569 635.715C1042.9 688.806 1121.51 642.79 1198.11 645.692C1186.44 638.678 1174.7 631.664 1163.02 624.589C1164.17 621.263 1165.38 617.998 1166.53 614.672C1178.81 617.151 1191.09 619.691 1203.32 622.17C1202.59 619.691 1201.93 617.212 1201.2 614.733C1241.38 605.3 1281.56 595.806 1321.68 586.373C1419.65 544.227 1572.68 537.817 1662.78 579.601C1659.63 625.557 1582.12 614.733 1592.1 669.577C1501.76 703.137 1410.51 718.919 1314.24 699.449C1282.83 693.099 1249 699.993 1216.39 698.36C1149.64 695.095 1083.08 688.202 1016.34 686.811C974.646 685.904 929.807 682.094 898.039 719.766C887.268 732.525 877.525 746.19 859.856 769.168C856.951 770.499 842.247 777.271 825.849 784.769C878.312 816.878 1180.69 812.947 1267.46 776.908C1242.59 773.038 1226.25 770.499 1209.91 767.959C1267.64 732.948 1328.82 739.116 1393.69 742.2C1473.92 746.009 1555.07 730.045 1639.97 722.306C1633.07 709.789 1629.32 703.016 1623.02 691.648C1663.32 691.648 1701.02 691.648 1747.5 691.648C1743.8 717.71 1740.48 741.413 1737.63 761.912C1649.83 805.631 1567.23 846.749 1474.47 893.007C1551.2 921.548 1632.95 875.592 1697.57 948.819C1703.99 980.988 1661.93 1003.36 1643.23 1040.31C1657.15 1040.31 1669.13 1040.31 1681.11 1040.31C1688.32 1051.19 1694.73 1060.93 1701.33 1070.84C1719.54 1057 1734.85 1045.33 1750.16 1033.66C1753.61 1035.71 1757.06 1037.83 1760.57 1039.88C1756.33 1073.56 1752.09 1107.31 1748.52 1135.73C1689.83 1163.06 1635.97 1188.21 1587.99 1210.59C1578.12 1242.03 1570.62 1265.73 1563.18 1289.44C1554.65 1286.71 1546.11 1284.05 1537.58 1281.33C1537.34 1284.84 1537.04 1288.35 1536.8 1291.92C1545.27 1290.65 1553.8 1289.32 1562.27 1288.05C1589.44 1284.48 1617.58 1284.11 1643.66 1276.8C1705.2 1259.44 1758.27 1272.26 1807.89 1310.9C1812.3 1314.35 1829.31 1301.59 1840.44 1296.39L1839.41 1297.54C1845.65 1299.47 1851.88 1301.41 1864.83 1305.4C1837.35 1329.59 1856.84 1377.66 1800.87 1377.36C1802.68 1380.98 1804.56 1384.61 1806.37 1388.24C1833.36 1397.43 1860.41 1406.68 1890.42 1416.96C1903.19 1461.83 1875.3 1487.77 1834.09 1504.46C1830.58 1525.44 1827.37 1544.49 1823.8 1565.9C1832.64 1570.07 1842.01 1574.54 1852.06 1579.26C1848.37 1595.83 1844.8 1611.67 1839.23 1636.64C1864.52 1673.59 1892.9 1714.95 1919.95 1754.5C1929.33 1788.84 1938.65 1823.13 1948.7 1859.83C1919.71 1885.59 1942.1 1910.87 1963.1 1940.62C1953.42 1957.73 1943.01 1976.23 1930.78 1997.88C1931.93 2000.78 1935.08 2008.95 1938.71 2018.26C1916.87 2026.84 1897.44 2038.03 1876.63 2041.78C1836.87 2048.98 1795.6 2048.73 1756.33 2057.5C1706.83 2068.57 1658.85 2086.1 1609.95 2100.01C1533.29 2121.84 1457.04 2145.79 1379.41 2163.68C1305.4 2180.74 1229.7 2190.17 1155.15 2205.1C1121.2 2211.94 1088.65 2225.3 1054.82 2232.92C1041.27 2236 1026.02 2231.65 1004.6 2230.2C1008.83 2185.03 1012.83 2142.52 1016.64 2101.7C973.073 2078.67 935.556 2058.83 893.5 2036.58C880.732 2005.44 866.573 1970.85 850.477 1931.55C879.946 1909.6 904.453 1891.28 931.985 1870.78C925.39 1857.47 917.463 1841.63 909.112 1824.88C895.981 1822.22 883.576 1819.68 872.926 1817.5C878.675 1787.81 884.363 1758.67 889.991 1729.58C861.066 1711.44 834.623 1694.87 810.055 1679.46C816.348 1647.71 821.976 1619.23 828.148 1587.91C802.612 1592.02 784.822 1594.86 767.092 1597.7C765.156 1592.8 763.159 1587.91 761.223 1582.95C782.523 1568.62 803.823 1554.35 828.753 1537.6C816.348 1529.43 802.975 1520.61 785.79 1509.24C816.469 1494.3 844.063 1480.82 876.618 1464.97C840.371 1450.95 807.635 1438.25 781.252 1428.03C804.972 1418.23 831.416 1407.29 857.799 1396.4L859.553 1398.58L856.528 1397.73C854.652 1396.1 797.166 1379.29 789.542 1378.45C792.567 1361.45 795.593 1344.46 797.953 1331.4C776.895 1296.39 719.53 1324.63 714.871 1273.17L713.721 1274.86ZM1070.62 929.288C1092.34 929.288 1114 929.288 1135.73 929.288C1135.79 923.422 1135.85 917.497 1135.91 911.631C1109.95 908.487 1083.93 905.403 1048.17 901.11C1061.48 917.436 1066.87 924.027 1072.25 930.679C1030.5 935.577 988.805 940.535 947.053 945.433C988.442 940.777 1034.98 969.922 1070.62 929.288ZM1298.2 1092.37C1212.76 1056.03 933.438 1059.17 878.856 1092.37C1024.39 1092.37 1161.32 1092.37 1298.2 1092.37ZM962.059 1373.61C961.152 1369.8 960.305 1365.93 959.397 1362.12C908.204 1360.49 908.204 1360.49 885.876 1398.64C916.676 1388.54 939.368 1381.11 962.059 1373.61ZM1138.87 1583.73C1138.63 1578.29 1138.33 1572.79 1138.09 1567.35C1109.53 1569.46 1080.96 1571.58 1052.4 1573.7C1052.71 1577.08 1053.01 1580.41 1053.31 1583.79C1081.87 1583.73 1110.37 1583.73 1138.87 1583.73ZM986.748 1612.46C986.869 1617.84 986.99 1623.22 987.111 1628.6C1009.62 1625.52 1032.13 1622.49 1054.64 1619.41C1054.34 1617.05 1054.04 1614.75 1053.79 1612.4C1031.41 1612.46 1009.08 1612.46 986.748 1612.46ZM1492.32 1081.18C1492.32 1079.61 1492.26 1078.1 1492.26 1076.53C1482.7 1076.53 1473.14 1076.53 1463.58 1076.53C1463.64 1078.1 1463.64 1079.61 1463.7 1081.18C1473.26 1081.18 1482.76 1081.18 1492.32 1081.18ZM1258.44 955.713C1257.11 954.926 1255.78 953.475 1254.51 953.475C1253.18 953.475 1251.85 954.926 1250.52 955.773C1253.18 955.833 1255.78 955.833 1258.44 955.713ZM1295.6 775.094C1295.6 776.787 1295.6 778.48 1295.6 780.113C1298.68 779.569 1301.71 778.964 1304.8 778.42C1304.61 777.332 1304.43 776.183 1304.25 775.094C1301.41 775.094 1298.5 775.094 1295.6 775.094ZM1496.8 1335.63C1493.95 1335.33 1491.11 1335.03 1488.2 1334.79C1491.05 1335.09 1493.89 1335.39 1496.8 1335.63ZM631.305 656.456L628.642 654.642L628.219 657.363L631.305 656.456Z" fill="#C8DBFB"/>
<path d="M1513.02 455.46C1496.86 458.483 1480.52 461.507 1460.19 465.316C1454.8 478.015 1448.63 492.345 1442.16 507.523C1406.94 515.807 1373.05 523.789 1351.09 528.989C1280.41 521.189 1220.62 514.598 1160.9 508.067C1122.66 503.895 1084.41 498.513 1046.05 496.276C1002.06 493.676 957.461 489.564 913.832 493.676C814.896 502.988 716.323 516.956 620.595 528.687C592.82 502.625 568.737 480.071 542.475 455.46C551.793 446.994 561.959 437.743 577.511 423.593C565.59 406.602 554.093 390.154 541.991 372.8C546.71 370.321 555.545 365.725 569.281 358.59C549.796 343.836 533.095 331.198 516.697 318.742C518.089 296.973 519.359 277.26 520.267 262.446C500.601 235.779 483.718 212.922 462.781 184.502C459.151 183.474 447.472 180.209 437.125 177.307C435.188 151.487 455.701 150.398 508.104 170.655C520.691 163.52 534.85 155.538 549.433 147.314C537.089 131.532 526.197 117.564 511.916 99.3029C597.842 45.97 696.113 41.4952 789.058 10.3541C737.442 3.40031 689.699 -3.06975 638.264 -10.0236C641.35 -32.3968 643.286 -46.123 645.283 -60.5748C746.458 -90.9903 845.394 -75.6919 943.846 -59.1237C958.974 -56.584 971.5 -38.6249 991.831 -22.6009C950.805 -24.5359 919.823 -25.9872 878.252 -27.9826C932.47 3.15845 981.181 -7.18161 1028.38 -5.1257C1081.75 -2.76744 1135 3.27935 1188.37 4.30731C1228.49 5.09339 1273.21 10.8983 1307.94 -4.03733C1383.1 -36.2668 1458.31 -26.7733 1534.38 -25.2012C1535.83 -21.5731 1537.34 -17.8845 1538.79 -14.2565C1515.98 -5.36765 1493.11 3.46083 1465.45 14.2242C1479.85 19.6058 1492.08 24.1409 1492.8 24.3828C1514.47 48.2072 1528.45 63.566 1545.51 82.3111C1543.63 97.6096 1541.09 118.834 1537.95 144.533C1525.36 146.165 1510.47 148.04 1493.59 150.217C1519.25 168.962 1541.64 185.349 1570.38 206.331C1535.16 237.775 1507.15 262.748 1479.13 287.782C1479.55 292.196 1480.04 296.55 1480.46 300.964C1529.23 309.49 1578 318.016 1626.78 326.542C1627.99 330.593 1629.14 334.645 1630.35 338.696C1607.59 351.092 1584.84 363.548 1564.33 374.735C1546.54 402.49 1529.96 428.733 1513.02 455.46ZM1083.93 480.312C1081.45 480.131 1078.97 480.01 1076.49 479.829C1076.79 481.219 1077.09 482.61 1077.33 484.061C1079.57 482.852 1081.75 481.643 1083.93 480.312Z" fill="#C8DBFB"/>
<path d="M714.992 1273.41C697.867 1277.16 680.682 1280.91 663.255 1284.72C681.469 1245.84 682.316 1245.66 713.721 1274.86L714.992 1273.41Z" fill="#C8DBFB"/>
<path d="M1131.07 765.6C1141.72 765.6 1152.37 765.6 1163.08 765.6C1163.14 766.93 1163.2 768.261 1163.32 769.591C1153.46 770.316 1143.53 771.103 1133.67 771.828C1132.76 769.772 1131.91 767.656 1131.07 765.6Z" fill="#C8DBFB"/>
<path d="M1393.75 533.826C1399.19 535.459 1396.47 534.613 1393.75 533.826C1396.71 532.617 1399.68 531.408 1393.75 533.826Z" fill="#C8DBFB"/>
<path d="M808.828 1428.5C805.42 1420.91 802.012 1413.42 801.922 1413.15C805.542 1381.73 809.529 1357.4 810.928 1332.93C814.086 1279 817.245 1224.97 817.771 1171.04C818.033 1142.98 812.711 1114.87 809.977 1086.82C806.981 1086.91 803.939 1086.95 800.943 1087.04C783.228 1189.05 765.058 1291.06 748.433 1393.24C746.485 1405.37 753.164 1418.94 756.666 1435.79C746.96 1462.66 734.759 1496.39 722.15 1531.25C716.156 1526.53 711.206 1522.67 704.258 1517.17C694.5 1525.66 684.515 1534.28 674.53 1542.9C671.579 1542.13 668.627 1541.36 665.721 1540.54C670.792 1501.68 676.998 1462.95 680.571 1423.96C684.37 1382.46 685.672 1340.74 688.154 1299.11L687.835 1297.16L688.018 1300.24C681.939 1315.13 673.636 1329.52 670.328 1345C662.577 1381.09 657.233 1417.68 650.935 1454.05C645.76 1455.41 640.54 1456.81 635.41 1458.22C632.91 1449.45 630.364 1440.65 625.091 1422.12C613.614 1445.5 606.309 1460.34 598.461 1476.36C579.167 1478.85 579.167 1478.85 539.206 1455.78C534.979 1440.84 530.888 1426.67 525.024 1406.19C505.688 1418.08 491.253 1426.98 474.005 1437.59C465.058 1427.47 456.428 1417.66 446.255 1406.03C429.825 1420.28 413.35 1434.67 395.558 1450.1C393.156 1460.95 390.527 1472.75 388.805 1480.47C367.196 1487.18 348.811 1492.85 325.978 1499.97C325.289 1477.04 324.737 1459.42 324.14 1438.68C317.376 1439.44 311.201 1440.17 300.805 1441.39C285.763 1399.12 284.475 1354.35 283.733 1309.77C281.6 1184.1 326.005 1067.21 359.467 946.823C362.171 1016.33 364.829 1085.89 367.715 1159.57C417.047 1109.15 393.008 1044.99 405.019 988.653C398.348 996.414 391.586 1004.17 384.915 1011.94C382.599 1010.62 380.328 1009.35 378.012 1008.03C381.414 999.268 384.907 990.507 388.309 981.746C386.402 981.927 384.45 982.153 382.543 982.334C380.716 951.371 378.889 920.407 376.971 889.444C358.329 811.44 373.225 697.264 415.789 635.989C449.479 644.263 431.475 700.235 473.379 699.933C486.616 771.17 486.595 840.768 459.788 909.54C451.08 931.964 451.815 957.933 446.421 981.857C435.452 1030.89 421.758 1079.28 412.151 1128.49C406.124 1159.22 397.555 1191.95 421.4 1220.34C429.485 1229.96 438.386 1238.96 453.056 1254.99C453.647 1257.3 456.784 1269.06 460.285 1282.18C490.781 1247.51 526.749 1023.06 511.197 954.141C505.165 972.072 501.129 983.829 497.183 995.587C478.688 948.318 491.067 903.876 501.719 856.164C514.864 797.24 513.434 735.086 518.587 671.256C508.464 674.748 502.926 676.653 493.711 679.873C498.876 650.001 503.724 622.082 509.704 587.671C528.547 593.716 545.711 599.261 560.513 604.078C581.649 674.774 601.513 741.202 623.831 815.893C654.82 762.74 631.279 696.266 693.827 657.88C718.479 657.299 729.705 691.307 754.636 709.975C756.403 699.67 757.943 690.772 759.484 681.965C768.517 678.019 776.506 674.571 784.768 670.942C776.863 655.685 770.185 642.834 763.461 630.029C765.458 627.76 767.409 625.445 769.451 623.13C793.879 630.585 818.307 638.13 838.966 644.448C851.695 691.396 863.424 734.53 873.834 772.988C895.857 784.391 912.477 792.932 929.096 801.564C926.011 807.556 922.881 813.502 919.841 819.449C922.383 820.085 924.972 820.767 927.56 821.358C927.693 814.866 927.827 808.465 927.961 801.972C928.817 781.406 932.169 760.524 930.073 740.275C925.153 692.512 941.483 654.835 976.476 623.022C979.562 620.209 972.338 605.996 969.929 597.051L970.655 597.96C972.878 593.557 975.147 589.199 979.774 580.121C994.129 603.552 1032.26 595.394 1024.88 636.751C1027.78 635.844 1030.73 634.982 1033.64 634.075C1043.94 615.238 1054.24 596.491 1065.72 575.566C1100.58 571.946 1116.25 595.878 1123.35 628.568C1138.42 633.84 1152.18 638.703 1167.57 644.111C1171.79 638.165 1176.28 631.765 1181.14 624.912C1192.95 629.819 1204.25 634.499 1222.01 641.815C1252.65 627.888 1286.96 612.192 1319.74 597.222C1346.39 594.734 1372.99 592.201 1401.5 589.578C1416.85 614.372 1438.46 601.032 1463.24 589.328C1474.69 598.684 1487.09 608.813 1501.48 620.668C1503.75 620.214 1510.24 618.9 1517.6 617.45C1521.14 634.703 1526.96 650.595 1527.1 666.44C1527.34 696.813 1521.81 727.32 1523.28 757.557C1525.15 795.648 1531.93 833.469 1535.98 871.47C1542.32 931.083 1550.28 990.605 1553.53 1050.4C1556.68 1107.38 1553.89 1164.67 1555.4 1221.83C1556.09 1247.84 1561.82 1273.63 1563.15 1299.65C1563.7 1310.09 1558.53 1320.8 1554.67 1336.46C1521.76 1327.51 1490.79 1319.05 1461 1310.96C1438.36 1340.24 1418.76 1365.47 1396.93 1393.75C1372.23 1399.19 1344.77 1405.22 1313.58 1412.06C1301.09 1387.4 1290.73 1366.88 1279.05 1343.86C1268.34 1347.03 1255.58 1350.89 1242.1 1354.83C1238.43 1364.23 1234.93 1373.08 1231.99 1380.66C1210.69 1372.53 1189.85 1364.57 1169.01 1356.62C1151.85 1375.68 1136.2 1393.16 1121.63 1409.36C1098.92 1400.63 1078.54 1392.77 1056.11 1384.14C1055.84 1403.57 1055.66 1417.1 1055.49 1430.63C1051.58 1431.44 1047.68 1432.26 1043.82 1433.12C1035.91 1415.5 1028.1 1397.88 1018.88 1377.22C1011.21 1385.35 1002.99 1394.11 992.372 1405.36C985.236 1380.71 978.781 1358.55 971.235 1332.4C956.171 1357.45 942.605 1380.01 931.624 1398.26C927.395 1379.42 922.712 1358.49 918.028 1337.46L919.889 1336.42L918.846 1338.55C917.393 1339.73 897.568 1380.09 895.89 1385.67C883.676 1381.26 871.507 1376.81 862.108 1373.4C833.464 1384.42 847.055 1430.6 808.283 1427.41L808.828 1428.5ZM598.56 1119.56C601.37 1103.49 604.179 1087.42 606.897 1071.35C602.538 1070.53 598.179 1069.72 593.821 1068.9C588.152 1087.74 582.53 1106.53 574.73 1132.5C588.529 1124.78 594.157 1121.61 599.741 1118.48C598.027 1149.98 596.267 1181.54 594.599 1213.09C596.585 1181.94 624.132 1151.22 598.56 1119.56ZM748.737 972.113C710.803 1030.67 677.236 1237.91 694.822 1282.63C713.533 1174.9 731.113 1073.49 748.737 972.113ZM913.959 1257.33C911.008 1257.47 908.057 1257.69 905.106 1257.83C897.311 1295.51 897.311 1295.51 922.742 1317.03C919.193 1292.88 916.553 1275.08 913.959 1257.33ZM1092.39 1153.56C1088.3 1153.02 1084.22 1152.56 1080.13 1152.02C1078.05 1173.44 1075.92 1194.83 1073.84 1216.26C1076.39 1216.44 1078.88 1216.67 1081.43 1216.85C1085.05 1195.78 1088.72 1174.67 1092.39 1153.56ZM1094.16 1269.88C1098.15 1270.52 1102.19 1271.11 1106.14 1271.7C1106.77 1254.63 1107.4 1237.56 1108.03 1220.49C1106.26 1220.44 1104.49 1220.31 1102.72 1220.26C1099.87 1236.83 1096.97 1253.36 1094.16 1269.88ZM765.392 826.93C764.212 826.748 763.122 826.566 761.942 826.384C760.718 833.421 759.495 840.548 758.226 847.63C759.407 847.812 760.542 847.949 761.677 848.176C762.9 841.049 764.124 834.012 765.392 826.93ZM642.369 983.925C641.597 984.787 640.326 985.604 640.19 986.558C640.009 987.556 640.918 988.737 641.372 989.827C641.734 987.829 642.052 985.877 642.369 983.925ZM513.233 933.031C514.459 933.258 515.73 933.44 516.955 933.668C516.909 931.352 516.908 928.992 516.862 926.676C516.045 926.676 515.183 926.63 514.32 926.675C513.958 928.763 513.595 930.943 513.233 933.031ZM954.54 856.508C953.95 858.55 953.361 860.684 952.817 862.772C953.406 860.639 953.95 858.55 954.54 856.508ZM340.02 1409.62L338.295 1411.35L340.247 1412.03L340.02 1409.62Z" fill="#95C6C3"/>
<path d="M305.457 737.691C305.643 750.04 305.784 762.525 306.017 778.097C314.735 783.73 324.589 790.135 334.989 796.903C336.633 824.053 338.185 850.204 339.19 867.093C324.363 918.436 311.757 961.834 299.242 1005.23C291.262 1033.01 282.373 1060.61 275.755 1088.76C268.139 1120.99 259.434 1153.49 256.858 1186.32C251.028 1260.82 248.694 1335.54 245.087 1408C222.257 1425.2 202.423 1440.13 180.773 1456.42C175.685 1448.43 170.143 1439.71 161.648 1426.4C147.531 1432.98 133.823 1439.42 119.434 1446.18C118.206 1442.32 115.934 1435.24 112.389 1424.16C98.9546 1436.69 87.4269 1447.4 76.1261 1457.97C60.1439 1454.15 45.7054 1450.7 34.8992 1448.06C12.6117 1459.18 -6.49838 1468.75 -30.2384 1480.59C-31.4179 1483.13 -35.4102 1491.39 -38.9034 1498.7C-58.2899 1496.83 -56.4793 1481.49 -34.7455 1445.31C-38.4266 1435.1 -42.5167 1423.56 -46.7431 1411.71C-60.0428 1418.83 -71.7539 1425.1 -87.1416 1433.31C-115.633 1362.79 -106.307 1289.43 -117.455 1216.65C-129.246 1253.96 -140.175 1288.51 -151.921 1325.69C-168.085 1320.5 -178.029 1317.28 -188.517 1313.96C-198.079 1235.14 -173.997 1163.83 -149.098 1093.06C-145.288 1082.16 -130.354 1075.22 -115.831 1062.24C-122.539 1092.39 -127.616 1115.08 -134.37 1145.64C-104.328 1109.51 -105.748 1072.14 -98.1334 1037.46C-89.5213 998.237 -78.2307 959.606 -70.6175 920.201C-64.9077 890.603 -54.8858 858.236 -61.3878 830.585C-75.6194 770.788 -58.9316 716.314 -48.0102 660.158C-45.1048 659.523 -42.2447 658.934 -39.3393 658.299C-35.7008 676.37 -32.0625 694.44 -27.6509 716.279C-21.8433 706.294 -16.8978 697.806 -16.6255 697.352C3.79989 684.374 17.0084 675.98 33.0764 665.816C44.1552 669.18 59.593 673.816 78.2091 679.452C77.7585 688.986 77.3083 700.245 76.7227 713.003C93.9234 696.438 108.946 681.96 128.189 663.353C146.95 693.46 161.895 717.482 176.84 741.413C180.154 741.641 183.469 741.87 186.783 742.098C199.346 707.099 211.955 672.054 224.518 637.055C227.696 636.693 230.783 636.331 233.961 635.969C240.233 654.404 246.55 672.884 252.186 689.502C270.488 705.989 287.791 721.749 305.457 737.691ZM268.752 1058.61C268.299 1060.43 267.846 1062.24 267.483 1064.06C268.573 1064.06 269.662 1063.97 270.706 1063.92C270.07 1062.2 269.389 1060.43 268.752 1058.61Z" fill="#95C6C3"/>
<path d="M-247.434 350.611C-145.906 344.227 -44.5554 334.652 57.5922 338.731C137.06 341.922 216.705 341.302 296.261 341.656C338.52 341.834 380.779 340.947 422.949 339.706C464.322 338.553 505.695 336.692 547.068 334.652C597.477 332.17 647.886 328.624 698.384 326.585C737.542 325.078 776.878 325.698 816.036 324.546C845.537 323.659 874.95 321.177 904.451 320.202C912.956 319.936 921.639 322.063 930.143 323.127C930.586 324.723 930.94 326.407 931.383 328.003C924.739 331.461 918.449 335.982 911.45 338.11C867.508 351.408 822.326 353.714 776.701 353.802C747.288 353.891 717.963 357.26 688.55 357.703C662.15 358.058 635.66 355.93 609.171 355.753C576.569 355.575 544.056 355.841 511.453 356.728C477.699 357.614 443.946 359.565 410.103 361.072C394.511 361.781 378.919 363.466 363.238 363.466C327.358 363.554 291.566 362.756 255.686 362.49C236.284 362.313 216.882 363.288 197.569 362.49C129.441 359.476 61.4016 353.802 -6.72635 353.182C-76.2718 352.472 -145.906 356.728 -215.451 358.324C-226.348 358.59 -237.334 356.462 -248.319 355.398C-247.965 353.802 -247.699 352.206 -247.434 350.611Z" fill="#EEC1BD"/>
<path d="M679.78 236.423C674.465 236.334 669.238 236.068 663.922 236.068C656.215 235.979 648.507 236.068 639.914 236.068C641.331 231.369 642.128 228.709 642.749 226.759C630.257 229.773 618.031 232.965 605.717 235.536C602.439 236.245 598.806 235.004 595.351 235.093C584.897 235.27 574.355 235.27 563.901 236.068C547.688 237.309 531.476 238.816 515.352 240.944C507.999 241.919 500.911 244.668 491.52 247.15C487.977 245.2 482.573 242.185 477.257 239.171C477.346 240.146 477.523 241.121 477.611 242.097C457.501 244.136 437.479 246.086 417.368 248.125H417.811C411.167 248.036 404.434 247.416 397.878 248.125C369.085 251.051 340.381 254.774 311.5 257.257C305.741 257.789 299.628 254.42 293.781 254.508C270.215 254.508 246.561 254.508 222.995 254.508C222.995 254.154 223.084 253.888 223.084 253.533C204.745 252.469 186.318 250.519 167.979 250.696C135.554 251.051 103.218 253.888 70.7929 253.533C6.65163 252.913 -57.49 249.898 -121.72 249.632C-159.017 249.455 -196.226 253.179 -233.524 254.331C-243.624 254.597 -255.141 255.306 -264 243.249C-259.748 241.831 -257.178 240.412 -254.52 240.146C-220.501 237.132 -186.57 233.32 -152.55 231.724C-121.897 230.217 -91.1549 231.192 -60.4132 231.015C-47.2128 230.926 -34.0128 230.039 -20.9011 230.749C-11.6874 231.192 -2.56194 234.915 6.65172 235.093C26.9395 235.359 47.3154 234.206 67.6918 233.852C82.664 233.586 97.7249 233.763 112.697 232.788C133.162 232.788 153.981 234.827 174.181 232.256C195.886 229.507 216.351 237.22 237.436 235.979C299.451 232.522 361.466 228.266 423.481 224.631C473.27 221.706 523.059 218.603 572.849 216.83C649.127 214.17 725.494 210.18 801.596 221.174C823.744 224.365 846.069 226.138 868.306 228.532C868.306 230.483 868.218 232.344 868.218 234.295C838.539 235.27 808.86 237.398 779.181 237.043C746.048 236.689 712.914 229.153 679.692 236.157L679.78 236.423ZM555.75 224.543C555.219 223.745 554.687 223.035 554.156 222.238C552.029 223.833 549.903 225.429 547.777 227.025C548.22 227.734 548.752 228.355 549.194 229.064C551.321 227.557 553.535 226.05 555.75 224.543ZM533.779 229.862L533.691 231.015L535.019 230.483L533.779 229.862Z" fill="#EEC1BD"/>
<path d="M642.039 405.224C682.881 401.5 714.066 398.663 745.073 395.915C750.211 399.461 754.73 402.564 759.602 406.021C764.209 403.007 768.284 400.259 769.968 399.195C831.451 396.979 890.277 394.851 952.292 392.546C941.838 409.036 926.688 410.632 914.463 410.986C865.294 412.405 816.124 410.809 766.955 411.695C740.112 412.139 713.18 414.089 686.513 417.369C647.001 422.157 608.994 416.837 569.659 405.755C564.432 417.635 552.649 410.809 543.081 409.745C515.618 406.819 488.862 414.355 461.664 414.444C424.544 414.532 387.424 414.355 350.392 414.355C298.654 414.355 246.915 414.266 195.266 414.621C150.615 414.887 105.964 415.419 61.3132 416.217C8.86617 417.192 -43.6696 419.852 -96.1166 419.231C-123.137 418.877 -150.07 413.38 -176.913 409.213C-185.95 407.795 -194.632 403.539 -202.782 399.106C-189.67 399.106 -176.559 399.018 -163.536 399.106C-106.659 399.461 -49.6936 400.879 7.18303 399.815C73.9821 398.486 140.692 394.496 207.491 392.634C239.562 391.748 271.633 393.432 303.703 393.698C314.334 393.787 325.054 392.723 335.685 392.989C374.666 393.876 413.647 395.471 452.716 395.915C468.486 396.092 484.256 392.546 499.937 392.723C523.325 392.989 546.713 394.319 570.013 396.535C597.477 398.929 624.764 403.007 642.039 405.224Z" fill="#EEC1BD"/>
<path d="M915.88 137.039C913.843 138.28 911.894 140.408 909.768 140.674C879.735 145.018 849.79 150.78 819.58 152.731C792.382 154.504 764.918 151.844 737.631 151.844C723.368 151.844 708.751 151.401 694.93 154.327C671.542 159.291 648.507 161.33 624.499 160.621C597.655 159.912 570.368 161.951 543.79 166.207C506.315 172.235 469.107 171.437 431.366 171.171C386.361 170.905 341.001 168.068 295.819 177.466C266.672 183.494 235.753 180.303 205.897 183.583C143.971 190.498 83.6389 170.107 21.5353 175.515C-49.6048 181.81 -121.1 183.938 -192.505 186.863C-214.831 187.75 -237.333 185.268 -259.836 184.381C-259.924 182.874 -260.013 181.367 -260.013 179.948C-256.647 178.973 -253.28 177.2 -249.825 177.023C-187.278 173.033 -124.732 168.955 -62.1851 165.409C-26.7479 163.458 8.68924 161.242 44.1264 161.419C79.5636 161.508 114.912 165.32 150.349 165.763C187.47 166.206 224.856 166.827 261.799 163.458C330.99 157.164 399.915 149.805 469.638 150.78C503.392 151.224 537.146 144.84 570.9 141.649C577.19 141.028 583.48 140.851 589.77 140.496C630.523 137.748 671.275 134.379 712.117 132.429C768.727 129.769 825.427 127.641 882.126 126.4C893.466 126.134 904.895 130.655 916.324 132.96C916.146 134.379 915.969 135.709 915.88 137.039Z" fill="#EEC1BD"/>
<path d="M-232.726 67.9754C-229.98 67.2662 -227.233 65.8477 -224.576 65.9363C-191.796 67.0002 -158.928 69.2166 -126.149 69.2166C-96.5591 69.2166 -66.969 66.9115 -37.4675 65.4044C-22.4067 64.6951 -7.34572 62.1241 7.62648 62.922C48.9108 65.1384 89.2205 59.5531 129.973 53.4358C161.424 48.737 194.203 50.3328 226.185 51.6627C264.191 53.2585 302.109 58.9325 340.115 60.351C367.225 61.3262 394.423 58.7552 421.532 56.8047C482.041 52.4606 542.55 47.7618 602.971 42.7971C624.942 41.024 646.647 40.1374 668.795 40.492C703.967 41.1126 739.227 34.9953 774.487 32.4243C801.33 30.4739 828.263 29.676 854.929 30.1192C811.253 40.5807 767.753 51.7513 723.9 61.1489C708.75 64.3405 692.627 63.5426 676.946 63.6313C654.886 63.7199 632.915 63.0993 610.855 62.656C597.035 62.3901 583.126 61.1489 569.305 61.6808C542.904 62.656 516.504 64.7838 490.103 66.1136C440.934 68.5073 391.677 72.3196 342.508 72.4082C307.248 72.4969 272.076 67.4435 236.816 65.0498C209.53 63.2766 182.243 61.8581 154.868 60.9716C143.617 60.617 132.011 60.8829 121.025 63.0993C81.0699 70.9011 41.0258 74.7133 0.184443 73.3834C-25.6847 72.4969 -51.642 76.1318 -77.5112 75.9545C-100.102 75.8658 -122.694 73.0288 -145.285 71.8763C-160.877 71.0784 -176.558 70.9011 -192.239 70.7238C-205.617 70.5464 -218.994 70.7238 -232.372 70.7238C-232.46 69.7485 -232.637 68.862 -232.726 67.9754Z" fill="#EEC1BD"/>
<path d="M417.28 247.947L416.66 248.213L417.811 247.947H417.28Z" fill="#EEC1BD"/>
<path d="M679.426 236.156L679.78 236.422L679.426 236.156Z" fill="#EEC1BD"/>
<path d="M933.29 1796.61C1039.25 1789.95 1145.03 1779.96 1251.63 1784.21C1334.57 1787.54 1417.7 1786.89 1500.73 1787.27C1544.83 1787.45 1588.93 1786.52 1632.95 1785.23C1676.12 1784.03 1719.3 1782.08 1762.48 1779.96C1815.09 1777.36 1867.7 1773.66 1920.41 1771.54C1961.27 1769.96 2002.33 1770.61 2043.2 1769.41C2073.99 1768.48 2104.68 1765.89 2135.47 1764.87C2144.35 1764.6 2153.41 1766.82 2162.29 1767.93C2162.75 1769.59 2163.12 1771.35 2163.58 1773.02C2156.65 1776.62 2150.08 1781.34 2142.78 1783.56C2096.92 1797.44 2049.76 1799.85 2002.14 1799.94C1971.45 1800.03 1940.84 1803.55 1910.14 1804.01C1882.59 1804.38 1854.94 1802.16 1827.3 1801.98C1793.27 1801.79 1759.34 1802.07 1725.31 1802.99C1690.09 1803.92 1654.86 1805.96 1619.54 1807.53C1603.26 1808.27 1586.99 1810.03 1570.63 1810.03C1533.18 1810.12 1495.82 1809.29 1458.38 1809.01C1438.13 1808.82 1417.88 1809.84 1397.72 1809.01C1326.62 1805.86 1255.61 1799.94 1184.51 1799.29C1111.93 1798.55 1039.25 1802.99 966.669 1804.66C955.296 1804.94 943.83 1802.72 932.365 1801.61C932.735 1799.94 933.012 1798.28 933.29 1796.61Z" fill="#E59C87"/>
<path d="M1900.99 1677.44C1895.44 1677.34 1889.99 1677.07 1884.44 1677.07C1876.4 1676.97 1868.35 1677.07 1859.38 1677.07C1860.86 1672.16 1861.7 1669.39 1862.34 1667.35C1849.31 1670.5 1836.55 1673.83 1823.69 1676.51C1820.27 1677.25 1816.48 1675.96 1812.88 1676.05C1801.96 1676.23 1790.96 1676.23 1780.05 1677.07C1763.13 1678.36 1746.21 1679.93 1729.38 1682.16C1721.71 1683.17 1714.31 1686.04 1704.51 1688.63C1700.81 1686.6 1695.17 1683.45 1689.62 1680.3C1689.72 1681.32 1689.9 1682.34 1689.99 1683.36C1669.01 1685.49 1648.11 1687.52 1627.12 1689.65H1627.58C1620.65 1689.56 1613.62 1688.91 1606.78 1689.65C1576.73 1692.7 1546.77 1696.59 1516.63 1699.18C1510.62 1699.74 1504.24 1696.22 1498.14 1696.31C1473.54 1696.31 1448.86 1696.31 1424.26 1696.31C1424.26 1695.94 1424.35 1695.66 1424.35 1695.29C1405.21 1694.18 1385.98 1692.15 1366.84 1692.33C1333 1692.7 1299.25 1695.66 1265.41 1695.29C1198.47 1694.65 1131.53 1691.5 1064.49 1691.22C1025.57 1691.04 986.733 1694.92 947.807 1696.13C937.266 1696.4 925.246 1697.14 916 1684.56C920.438 1683.08 923.12 1681.6 925.893 1681.32C961.399 1678.18 996.811 1674.2 1032.32 1672.53C1064.31 1670.96 1096.39 1671.98 1128.48 1671.79C1142.25 1671.7 1156.03 1670.77 1169.71 1671.51C1179.33 1671.98 1188.85 1675.86 1198.47 1676.05C1219.64 1676.33 1240.91 1675.12 1262.18 1674.75C1277.8 1674.48 1293.52 1674.66 1309.15 1673.64C1330.5 1673.64 1352.23 1675.77 1373.31 1673.09C1395.97 1670.22 1417.33 1678.27 1439.33 1676.97C1504.05 1673.36 1568.78 1668.92 1633.5 1665.13C1685.46 1662.08 1737.43 1658.84 1789.39 1656.99C1869 1654.21 1948.7 1650.05 2028.13 1661.52C2051.24 1664.85 2074.54 1666.7 2097.75 1669.2C2097.75 1671.24 2097.66 1673.18 2097.66 1675.22C2066.68 1676.23 2035.71 1678.45 2004.73 1678.08C1970.15 1677.71 1935.57 1669.85 1900.9 1677.16L1900.99 1677.44ZM1771.55 1665.04C1770.99 1664.2 1770.44 1663.46 1769.88 1662.63C1767.66 1664.3 1765.44 1665.96 1763.22 1667.63C1763.69 1668.37 1764.24 1669.02 1764.7 1669.76C1766.92 1668.18 1769.23 1666.61 1771.55 1665.04ZM1748.61 1670.59L1748.52 1671.79L1749.91 1671.24L1748.61 1670.59Z" fill="#E59C87"/>
<path d="M1861.6 1853.61C1904.23 1849.72 1936.77 1846.76 1969.13 1843.89C1974.5 1847.59 1979.21 1850.83 1984.3 1854.44C1989.11 1851.29 1993.36 1848.43 1995.12 1847.32C2059.28 1845 2120.68 1842.78 2185.4 1840.38C2174.49 1857.59 2158.68 1859.25 2145.92 1859.62C2094.6 1861.1 2043.29 1859.44 1991.97 1860.36C1963.96 1860.82 1935.85 1862.86 1908.02 1866.28C1866.78 1871.28 1827.11 1865.73 1786.06 1854.16C1780.61 1866.56 1768.31 1859.44 1758.32 1858.33C1729.66 1855.27 1701.74 1863.14 1673.35 1863.23C1634.61 1863.32 1595.87 1863.14 1557.22 1863.14C1503.22 1863.14 1449.22 1863.05 1395.32 1863.42C1348.72 1863.69 1302.12 1864.25 1255.52 1865.08C1200.78 1866.1 1145.95 1868.87 1091.21 1868.23C1063.01 1867.86 1034.9 1862.12 1006.89 1857.77C997.458 1856.29 988.397 1851.85 979.891 1847.22C993.575 1847.22 1007.26 1847.13 1020.85 1847.22C1080.21 1847.59 1139.66 1849.07 1199.02 1847.96C1268.74 1846.58 1338.36 1842.41 1408.08 1840.47C1441.55 1839.54 1475.02 1841.3 1508.49 1841.58C1519.59 1841.67 1530.77 1840.56 1541.87 1840.84C1582.55 1841.76 1623.24 1843.43 1664.01 1843.89C1680.47 1844.08 1696.93 1840.38 1713.29 1840.56C1737.7 1840.84 1762.11 1842.23 1786.43 1844.54C1815.09 1847.04 1843.57 1851.29 1861.6 1853.61Z" fill="#E59C87"/>
<path d="M2147.4 1573.71C2145.27 1575.01 2143.24 1577.23 2141.02 1577.51C2109.68 1582.04 2078.42 1588.05 2046.89 1590.09C2018.51 1591.94 1989.85 1589.16 1961.37 1589.16C1946.48 1589.16 1931.23 1588.7 1916.8 1591.76C1892.39 1596.94 1868.35 1599.07 1843.3 1598.32C1815.28 1597.58 1786.8 1599.71 1759.06 1604.15C1719.95 1610.45 1681.12 1609.61 1641.73 1609.34C1594.76 1609.06 1547.42 1606.1 1500.26 1615.91C1469.84 1622.2 1437.58 1618.87 1406.42 1622.29C1341.79 1629.51 1278.82 1608.23 1214 1613.87C1139.76 1620.44 1065.14 1622.66 990.617 1625.71C967.316 1626.64 943.831 1624.05 920.346 1623.12C920.254 1621.55 920.161 1619.98 920.161 1618.5C923.675 1617.48 927.188 1615.63 930.794 1615.44C996.072 1611.28 1061.35 1607.02 1126.63 1603.32C1163.61 1601.29 1200.6 1598.97 1237.58 1599.16C1274.57 1599.25 1311.46 1603.23 1348.44 1603.69C1387.18 1604.15 1426.2 1604.8 1464.76 1601.29C1536.97 1594.72 1608.91 1587.04 1681.67 1588.05C1716.9 1588.52 1752.13 1581.86 1787.36 1578.52C1793.92 1577.88 1800.49 1577.69 1807.05 1577.32C1849.58 1574.45 1892.11 1570.94 1934.74 1568.9C1993.82 1566.13 2053 1563.9 2112.17 1562.61C2124.01 1562.33 2135.94 1567.05 2147.86 1569.46C2147.68 1570.94 2147.49 1572.32 2147.4 1573.71Z" fill="#E59C87"/>
<path d="M948.64 1501.63C951.506 1500.89 954.372 1499.41 957.146 1499.51C991.357 1500.62 1025.66 1502.93 1059.87 1502.93C1090.75 1502.93 1121.63 1500.52 1152.42 1498.95C1168.14 1498.21 1183.86 1495.53 1199.49 1496.36C1242.57 1498.67 1284.64 1492.84 1327.18 1486.46C1360 1481.56 1394.21 1483.22 1427.59 1484.61C1467.26 1486.27 1506.83 1492.2 1546.49 1493.68C1574.79 1494.69 1603.17 1492.01 1631.47 1489.98C1694.62 1485.44 1757.77 1480.54 1820.83 1475.36C1843.76 1473.51 1866.41 1472.58 1889.53 1472.95C1926.23 1473.6 1963.03 1467.21 1999.83 1464.53C2027.85 1462.49 2055.96 1461.66 2083.79 1462.12C2038.2 1473.04 1992.81 1484.7 1947.04 1494.51C1931.23 1497.84 1914.4 1497.01 1898.03 1497.1C1875.01 1497.19 1852.08 1496.54 1829.06 1496.08C1814.63 1495.8 1800.12 1494.51 1785.69 1495.06C1758.14 1496.08 1730.58 1498.3 1703.03 1499.69C1651.72 1502.19 1600.31 1506.17 1548.99 1506.26C1512.19 1506.35 1475.48 1501.08 1438.68 1498.58C1410.21 1496.73 1381.73 1495.25 1353.16 1494.32C1341.42 1493.95 1329.3 1494.23 1317.84 1496.54C1276.14 1504.69 1234.34 1508.67 1191.72 1507.28C1164.72 1506.35 1137.63 1510.15 1110.63 1509.96C1087.05 1509.87 1063.48 1506.91 1039.9 1505.7C1023.63 1504.87 1007.26 1504.69 990.895 1504.5C976.933 1504.32 962.971 1504.5 949.009 1504.5C948.917 1503.48 948.732 1502.56 948.64 1501.63Z" fill="#E59C87"/>
<path d="M197.613 1021.12C205.753 1150.58 217.961 1279.81 212.761 1410.06C208.692 1511.39 209.483 1612.94 209.031 1714.38C208.805 1768.26 209.935 1822.15 211.518 1875.92C212.987 1928.67 215.361 1981.43 217.961 2034.18C221.126 2098.46 225.648 2162.73 228.248 2227.12C230.17 2277.05 229.379 2327.21 230.848 2377.14C231.979 2414.75 235.144 2452.26 236.387 2489.87C236.727 2500.72 234.013 2511.79 232.657 2522.63C230.622 2523.2 228.474 2523.65 226.44 2524.21C222.031 2515.74 216.266 2507.72 213.553 2498.8C196.596 2442.77 193.657 2385.16 193.544 2326.98C193.431 2289.48 189.135 2252.08 188.57 2214.58C188.118 2180.92 190.831 2147.14 191.057 2113.37C191.283 2071.8 190.944 2030.34 189.813 1988.77C188.683 1945.73 186.196 1902.69 184.274 1859.54C183.37 1839.66 181.222 1819.77 181.222 1799.78C181.109 1754.03 182.126 1708.39 182.466 1662.64C182.692 1637.9 181.448 1613.17 182.466 1588.54C186.309 1501.67 193.544 1414.91 194.335 1328.05C195.239 1239.37 189.813 1150.58 187.779 1061.9C187.439 1048.01 190.152 1034 191.509 1020C193.544 1020.45 195.579 1020.79 197.613 1021.12Z" fill="#F2DC77"/>
<path d="M343.214 2203.4C343.328 2196.62 343.667 2189.95 343.667 2183.18C343.78 2173.35 343.667 2163.52 343.667 2152.56C349.658 2154.37 353.049 2155.39 355.536 2156.18C351.693 2140.25 347.623 2124.66 344.345 2108.96C343.441 2104.78 345.023 2100.15 344.91 2095.74C344.684 2082.41 344.684 2068.97 343.667 2055.64C342.084 2034.97 340.162 2014.3 337.449 1993.74C336.206 1984.36 332.701 1975.32 329.536 1963.35C332.023 1958.83 335.867 1951.94 339.71 1945.16C338.467 1945.28 337.223 1945.5 335.98 1945.62C333.38 1919.97 330.893 1894.44 328.293 1868.8L328.293 1869.36C328.406 1860.89 329.197 1852.31 328.293 1843.95C324.562 1807.24 319.814 1770.64 316.649 1733.81C315.971 1726.47 320.267 1718.67 320.154 1711.22C320.154 1681.17 320.154 1651.01 320.154 1620.96C320.606 1620.96 320.945 1621.07 321.397 1621.07C322.754 1597.69 325.241 1574.19 325.014 1550.81C324.562 1509.46 320.945 1468.23 321.397 1426.89C322.188 1345.1 326.032 1263.32 326.371 1181.42C326.597 1133.86 321.849 1086.42 320.38 1038.86C320.041 1025.98 319.136 1011.3 334.51 1000C336.319 1005.42 338.128 1008.7 338.467 1012.09C342.31 1055.47 347.171 1098.73 349.206 1142.11C351.128 1181.19 349.884 1220.39 350.11 1259.59C350.223 1276.42 351.354 1293.25 350.449 1309.97C349.884 1321.72 345.136 1333.35 344.91 1345.1C344.571 1370.97 346.041 1396.95 346.493 1422.93C346.832 1442.02 346.606 1461.23 347.849 1480.32C347.849 1506.41 345.249 1532.96 348.528 1558.72C352.032 1586.39 342.197 1612.49 343.78 1639.37C348.188 1718.45 353.615 1797.52 358.249 1876.59C361.98 1940.08 365.936 2003.57 368.197 2067.05C371.588 2164.31 376.675 2261.69 362.658 2358.72C358.588 2386.96 356.328 2415.43 353.275 2443.78C350.788 2443.78 348.414 2443.67 345.928 2443.67C344.684 2405.83 341.971 2367.98 342.423 2330.14C342.875 2287.89 352.484 2245.65 343.554 2203.28L343.214 2203.4ZM358.362 2045.25C359.38 2044.57 360.284 2043.89 361.301 2043.22C359.267 2040.5 357.232 2037.79 355.197 2035.08C354.293 2035.65 353.501 2036.32 352.597 2036.89C354.519 2039.6 356.441 2042.42 358.362 2045.25ZM351.58 2017.23L350.11 2017.12L350.788 2018.82L351.58 2017.23Z" fill="#F2DC77"/>
<path d="M127.979 2155.28C132.727 2207.35 136.345 2247.11 139.849 2286.65C135.327 2293.2 131.371 2298.96 126.962 2305.18C130.806 2311.05 134.31 2316.25 135.666 2318.39C138.493 2396.79 141.206 2471.8 144.145 2550.87C123.119 2537.54 121.084 2518.23 120.632 2502.64C118.823 2439.94 120.858 2377.25 119.727 2314.55C119.162 2280.33 116.675 2245.99 112.492 2211.98C106.388 2161.6 113.171 2113.14 127.301 2062.98C112.153 2056.32 120.858 2041.3 122.214 2029.1C125.945 1994.08 116.336 1959.96 116.223 1925.28C116.11 1877.95 116.336 1830.62 116.336 1783.4C116.336 1717.43 116.449 1651.46 115.997 1585.6C115.658 1528.67 114.979 1471.74 113.962 1414.8C112.719 1347.93 109.327 1280.94 110.119 1214.07C110.571 1179.61 117.579 1145.27 122.893 1111.04C124.701 1099.52 130.127 1088.45 135.779 1078.06C135.779 1094.78 135.893 1111.5 135.779 1128.1C135.327 1200.62 133.519 1273.26 134.875 1345.78C136.571 1430.96 141.658 1516.02 144.032 1601.19C145.162 1642.08 143.014 1682.98 142.675 1723.87C142.562 1737.42 143.919 1751.09 143.58 1764.65C142.449 1814.35 140.414 1864.06 139.849 1913.87C139.623 1933.98 144.145 1954.09 143.919 1974.08C143.579 2003.9 141.884 2033.73 139.058 2063.44C136.006 2098.45 130.806 2133.25 127.979 2155.28Z" fill="#F2DC77"/>
<path d="M469.937 2504.44C468.354 2501.85 465.641 2499.36 465.302 2496.65C459.763 2458.36 452.415 2420.17 449.928 2381.65C447.667 2346.97 451.059 2311.95 451.059 2277.16C451.059 2258.97 451.624 2240.34 447.893 2222.71C441.563 2192.89 438.963 2163.52 439.867 2132.91C440.772 2098.68 438.172 2063.89 432.746 2030C425.059 1982.21 426.076 1934.77 426.415 1886.65C426.754 1829.26 430.372 1771.43 418.389 1713.81C410.702 1676.65 414.772 1637.23 410.589 1599.16C401.772 1520.2 427.772 1443.27 420.876 1364.08C412.85 1273.37 410.137 1182.21 406.406 1091.16C405.276 1062.69 408.441 1034 409.572 1005.31C411.493 1005.2 413.415 1005.08 415.224 1005.08C416.467 1009.38 418.728 1013.67 418.954 1018.07C424.041 1097.83 429.241 1177.58 433.763 1257.33C436.25 1302.52 439.076 1347.7 438.85 1392.89C438.737 1438.07 433.876 1483.14 433.311 1528.33C432.746 1575.66 431.954 1623.33 436.25 1670.44C444.276 1758.66 453.659 1846.55 452.415 1935.45C451.85 1978.49 459.989 2021.53 464.059 2064.57C464.85 2072.59 465.076 2080.61 465.528 2088.63C469.033 2140.59 473.328 2192.55 475.815 2244.63C479.207 2316.81 481.92 2389.11 483.502 2461.4C483.841 2475.86 478.076 2490.44 475.137 2505.01C473.328 2504.78 471.633 2504.56 469.937 2504.44Z" fill="#F2DC77"/>
<path d="M557.998 1039.87C558.902 1043.38 560.711 1046.88 560.598 1050.27C559.241 1092.06 556.415 1133.97 556.415 1175.77C556.415 1213.5 559.354 1251.23 561.276 1288.85C562.18 1308.05 565.459 1327.25 564.441 1346.34C561.615 1398.99 568.737 1450.38 576.537 1502.35C582.528 1542.45 580.493 1584.24 578.798 1625.02C576.763 1673.49 569.528 1721.83 567.719 1770.29C566.476 1804.86 569.754 1839.54 572.241 1874.11C577.78 1951.26 583.772 2028.42 590.102 2105.46C592.363 2133.47 593.493 2161.15 593.041 2189.39C592.25 2234.23 600.05 2279.19 603.328 2324.15C605.815 2358.38 606.833 2392.72 606.267 2426.72C592.928 2371.03 578.685 2315.57 566.702 2259.65C562.632 2240.33 563.65 2219.78 563.537 2199.78C563.424 2171.65 564.215 2143.64 564.78 2115.51C565.119 2097.89 566.702 2080.15 566.024 2062.53C564.78 2028.87 562.067 1995.2 560.372 1961.54C557.319 1898.85 552.458 1836.04 552.345 1773.34C552.232 1728.39 558.676 1683.54 561.728 1638.58C563.989 1603.79 565.798 1568.99 566.928 1534.09C567.38 1519.74 567.041 1504.94 564.215 1490.94C554.267 1439.99 549.406 1388.93 551.102 1336.85C552.232 1303.87 547.598 1270.77 547.824 1237.79C547.937 1208.98 551.554 1180.18 553.024 1151.37C554.041 1131.49 554.267 1111.49 554.493 1091.5C554.719 1074.44 554.493 1057.38 554.493 1040.33C555.737 1040.21 556.867 1039.99 557.998 1039.87Z" fill="#F2DC77"/>
<path d="M328.519 1868.69L328.18 1867.9L328.519 1869.37L328.519 1868.69Z" fill="#F2DC77"/>
</g>
<defs>
<clipPath id="clip0_5_20157">
<rect width="1500" height="2000" fill="white" transform="translate(1500 2000) rotate(-180)"/>
</clipPath>
</defs>
</svg>
