<svg width="1500" height="2000" viewBox="0 0 1500 2000" fill="none" xmlns="http://www.w3.org/2000/svg">
<g clip-path="url(#clip0_1_77)">
<rect width="1500" height="2000" transform="translate(1500 2000) rotate(-180)" fill="#F8C00C"/>
<path d="M1543.5 288.5C1349.5 236 1165.89 271.351 1190.62 507.132C1221.55 801.859 1258.19 1109.12 1258.19 1286.64C1258.19 1441.84 1152.41 1531.18 1021.36 1500.5C890.315 1469.82 452.725 1007.04 250.996 1072.78C103.505 1120.84 193.207 1390.43 179 1500.5C131.5 1868.5 -244.36 1791.11 -244.36 1791.11" stroke="#F57B07" stroke-width="10"/>
<path d="M1288 1050C1262.34 721.403 1442.5 495.5 1506 427V2003H131C131 2003 564.863 1952 542 1761.5C527.339 1639.35 438.531 1500.94 605.907 1427.65C773.283 1354.36 1097.04 1687.84 1205.77 1722.04C1314.51 1756.25 1382.92 1717.95 1382.92 1544.92C1382.92 1347 1313.66 1378.6 1288 1050Z" fill="#F57B07"/>
<path d="M1034 379.5C1075.7 102.041 1367.09 113.327 1519.12 164.474L1655.85 0.269827L-77.7982 0.269735L-77.7981 220.522C18.0258 254.239 258.242 368.605 81.4105 556.331C-139.629 790.989 32.8236 1149.75 367.962 1273.48C703.101 1397.21 1078.52 1319.81 1188.5 954.5C1298.48 589.19 981.872 726.323 1034 379.5Z" fill="#F57B07"/>
<path d="M1030.64 338.718C1071.09 69.5611 1376.17 101.505 1523.65 151.121L1656.29 -8.17004L-25.4919 -8.17009L-25.4918 205.493C67.4652 238.201 300.494 349.145 128.953 531.255C-85.4724 758.892 81.8202 1106.92 406.932 1226.95C732.043 1346.98 1074.1 1273.96 1180.79 919.578C1287.47 565.198 980.068 675.165 1030.64 338.718Z" fill="#FF9B00"/>
<path d="M1527.5 138C1386.13 90.4386 1056.32 68.7387 1017.54 326.747C969.067 649.258 1263.74 543.846 1161.47 883.548C1059.2 1223.25 731.316 1293.24 419.671 1178.19C108.025 1063.13 -52.3381 729.517 153.206 511.309C317.642 336.742 94.2647 230.394 5.15801 199.04" stroke="#F1E418" stroke-width="10"/>
<path d="M1248 -15.4999C1158.42 -45.6366 878.132 194.881 853.56 358.365C822.845 562.721 1009.56 495.928 944.759 711.176C879.958 926.425 661.971 1037.9 464.5 965C267.029 892.096 175.642 613.576 305.883 475.311C410.076 364.698 100.462 4.36629 44.0005 -15.5004" stroke="#F57B07" stroke-width="10"/>
<path d="M1322 1047C1301.48 784.123 1436.5 597.5 1500 529V2000H165C165 2000 598.863 1949 576 1758.5C561.339 1636.35 472.531 1497.94 639.907 1424.65C807.283 1351.36 1131.04 1684.84 1239.77 1719.04C1348.51 1753.25 1416.92 1714.95 1416.92 1541.92C1416.92 1344 1347.66 1375.6 1322 1047Z" fill="#FF9B00"/>
<path d="M1350 1076C1329.48 813.123 1464.5 626.5 1528 558V2029H193C193 2029 626.863 1978 604 1787.5C589.339 1665.35 500.531 1526.94 667.907 1453.65C835.283 1380.36 1159.04 1713.84 1267.77 1748.04C1376.51 1782.25 1444.92 1743.95 1444.92 1570.92C1444.92 1373 1375.66 1404.6 1350 1076Z" stroke="#F1E418" stroke-width="10"/>
<path d="M1528 849C1473.06 893.099 1420.24 1043.77 1438 1213C1460.2 1424.54 1486.5 1645.08 1486.5 1772.5C1486.5 1883.9 1410.57 1948.02 1316.5 1926C1222.43 1903.98 908.308 1571.82 763.5 1619C657.625 1653.5 715.9 1794.89 728.584 1873.53C748.365 1996.17 373 2029 373 2029" stroke="#F57B07" stroke-width="10"/>
</g>
<defs>
<clipPath id="clip0_1_77">
<rect width="1500" height="2000" fill="white" transform="translate(1500 2000) rotate(-180)"/>
</clipPath>
</defs>
</svg>
